  0
SECTION
  2
HEADER
  9
$ACADVER
  1
AC1009
  9
$EXTMIN
 10
0.0
 20
0.0
 30
0.0
  9
$EXTMAX
 10
1000.0
 20
1000.0
 30
0.0
  9
$FILLMODE
 70
 0
  9
$SPLFRAME
 70
 1
  0
ENDSEC
  0
SECTION
  2
TABLES
  0
TABLE
  2
LAYER
 70
1
  0
LAYER
  2
0
 70
     0
 62
     7
  6
CONTINUOUS
  0
ENDTAB
  0
ENDSEC
  0
SECTION
  2
ENTITIES
  0
LINE
  8
0
 62
     254
 10
69.0563
 20
0
 30
0.0
 11
29.1042
 21
0
 31
0.0
  0
LINE
  8
0
 62
     254
 10
29.1042
 20
0
 30
0.0
 11
29.1042
 21
3.36655
 31
0.0
  0
LINE
  8
0
 62
     254
 10
29.1042
 20
3.36655
 30
0.0
 11
28.8809
 21
3.47404
 31
0.0
  0
LINE
  8
0
 62
     254
 10
28.8809
 20
3.47404
 30
0.0
 11
28.2636
 21
3.89848
 31
0.0
  0
LINE
  8
0
 62
     254
 10
28.2636
 20
3.89848
 30
0.0
 11
27.795
 21
4.51721
 31
0.0
  0
LINE
  8
0
 62
     254
 10
27.795
 20
4.51721
 30
0.0
 11
27.784
 21
5.19384
 31
0.0
  0
LINE
  8
0
 62
     254
 10
27.784
 20
5.19384
 30
0.0
 11
28.1547
 21
5.75744
 31
0.0
  0
LINE
  8
0
 62
     254
 10
28.1547
 20
5.75744
 30
0.0
 11
28.32
 21
5.89523
 31
0.0
  0
LINE
  8
0
 62
     254
 10
28.32
 20
5.89523
 30
0.0
 11
28.2801
 21
6.04132
 31
0.0
  0
LINE
  8
0
 62
     254
 10
28.2801
 20
6.04132
 30
0.0
 11
28.0761
 21
7.32151
 31
0.0
  0
LINE
  8
0
 62
     254
 10
28.0761
 20
7.32151
 30
0.0
 11
28.0761
 21
7.74732
 31
0.0
  0
LINE
  8
0
 62
     254
 10
28.0761
 20
7.74732
 30
0.0
 11
28.0761
 21
8.06154
 31
0.0
  0
LINE
  8
0
 62
     254
 10
28.0761
 20
8.06154
 30
0.0
 11
27.784
 21
9.00271
 31
0.0
  0
LINE
  8
0
 62
     254
 10
27.784
 20
9.00271
 30
0.0
 11
27.1694
 21
9.62561
 31
0.0
  0
LINE
  8
0
 62
     254
 10
27.1694
 20
9.62561
 30
0.0
 11
27.0082
 21
9.70414
 31
0.0
  0
LINE
  8
0
 62
     254
 10
27.0082
 20
9.70414
 30
0.0
 11
26.7395
 21
9.55118
 31
0.0
  0
LINE
  8
0
 62
     254
 10
26.7395
 20
9.55118
 30
0.0
 11
25.9829
 21
9.00825
 31
0.0
  0
LINE
  8
0
 62
     254
 10
25.9829
 20
9.00825
 30
0.0
 11
25.0982
 21
8.23376
 31
0.0
  0
LINE
  8
0
 62
     254
 10
25.0982
 20
8.23376
 30
0.0
 11
24.3307
 21
7.45105
 31
0.0
  0
LINE
  8
0
 62
     254
 10
24.3307
 20
7.45105
 30
0.0
 11
23.6582
 21
6.73308
 31
0.0
  0
LINE
  8
0
 62
     254
 10
23.6582
 20
6.73308
 30
0.0
 11
23.0573
 21
6.15294
 31
0.0
  0
LINE
  8
0
 62
     254
 10
23.0573
 20
6.15294
 30
0.0
 11
22.5075
 21
5.78362
 31
0.0
  0
LINE
  8
0
 62
     254
 10
22.5075
 20
5.78362
 30
0.0
 11
21.9866
 21
5.6968
 31
0.0
  0
LINE
  8
0
 62
     254
 10
21.9866
 20
5.6968
 30
0.0
 11
21.576
 21
5.87043
 31
0.0
  0
LINE
  8
0
 62
     254
 10
21.576
 20
5.87043
 30
0.0
 11
21.4726
 21
5.96417
 31
0.0
  0
LINE
  8
0
 62
     254
 10
21.4726
 20
5.96417
 30
0.0
 11
21.3196
 21
6.10196
 31
0.0
  0
LINE
  8
0
 62
     254
 10
21.3196
 20
6.10196
 30
0.0
 11
21.0123
 21
6.68211
 31
0.0
  0
LINE
  8
0
 62
     254
 10
21.0123
 20
6.68211
 30
0.0
 11
20.858
 21
7.66741
 31
0.0
  0
LINE
  8
0
 62
     254
 10
20.858
 20
7.66741
 30
0.0
 11
20.993
 21
8.84424
 31
0.0
  0
LINE
  8
0
 62
     254
 10
20.993
 20
8.84424
 30
0.0
 11
21.2769
 21
9.82126
 31
0.0
  0
LINE
  8
0
 62
     254
 10
21.2769
 20
9.82126
 30
0.0
 11
21.4064
 21
10.1314
 31
0.0
  0
LINE
  8
0
 62
     254
 10
21.4064
 20
10.1314
 30
0.0
 11
21.2687
 21
10.1644
 31
0.0
  0
LINE
  8
0
 62
     254
 10
21.2687
 20
10.1644
 30
0.0
 11
20.7091
 21
10.4455
 31
0.0
  0
LINE
  8
0
 62
     254
 10
20.7091
 20
10.4455
 30
0.0
 11
20.3619
 21
10.9223
 31
0.0
  0
LINE
  8
0
 62
     254
 10
20.3619
 20
10.9223
 30
0.0
 11
20.3302
 21
11.0519
 31
0.0
  0
LINE
  8
0
 62
     254
 10
20.3302
 20
11.0519
 30
0.0
 11
20.2833
 21
11.2393
 31
0.0
  0
LINE
  8
0
 62
     254
 10
20.2833
 20
11.2393
 30
0.0
 11
20.1924
 21
11.8139
 31
0.0
  0
LINE
  8
0
 62
     254
 10
20.1924
 20
11.8139
 30
0.0
 11
20.2117
 21
12.3541
 31
0.0
  0
LINE
  8
0
 62
     254
 10
20.2117
 20
12.3541
 30
0.0
 11
20.3784
 21
12.7096
 31
0.0
  0
LINE
  8
0
 62
     254
 10
20.3784
 20
12.7096
 30
0.0
 11
20.6871
 21
12.9122
 31
0.0
  0
LINE
  8
0
 62
     254
 10
20.6871
 20
12.9122
 30
0.0
 11
21.1267
 21
12.9963
 31
0.0
  0
LINE
  8
0
 62
     254
 10
21.1267
 20
12.9963
 30
0.0
 11
21.6917
 21
12.9977
 31
0.0
  0
LINE
  8
0
 62
     254
 10
21.6917
 20
12.9977
 30
0.0
 11
22.3711
 21
12.9494
 31
0.0
  0
LINE
  8
0
 62
     254
 10
22.3711
 20
12.9494
 30
0.0
 11
22.9622
 21
12.8984
 31
0.0
  0
LINE
  8
0
 62
     254
 10
22.9622
 20
12.8984
 30
0.0
 11
23.1593
 21
12.8833
 31
0.0
  0
LINE
  8
0
 62
     254
 10
23.1593
 20
12.8833
 30
0.0
 11
23.3467
 21
13.0927
 31
0.0
  0
LINE
  8
0
 62
     254
 10
23.3467
 20
13.0927
 30
0.0
 11
24.4133
 21
14.0422
 31
0.0
  0
LINE
  8
0
 62
     254
 10
24.4133
 20
14.0422
 30
0.0
 11
25.6425
 21
14.8305
 31
0.0
  0
LINE
  8
0
 62
     254
 10
25.6425
 20
14.8305
 30
0.0
 11
25.9126
 21
14.9572
 31
0.0
  0
LINE
  8
0
 62
     254
 10
25.9126
 20
14.9572
 30
0.0
 11
25.2264
 21
14.8746
 31
0.0
  0
LINE
  8
0
 62
     254
 10
25.2264
 20
14.8746
 30
0.0
 11
23.2186
 21
14.2131
 31
0.0
  0
LINE
  8
0
 62
     254
 10
23.2186
 20
14.2131
 30
0.0
 11
21.033
 21
13.1809
 31
0.0
  0
LINE
  8
0
 62
     254
 10
21.033
 20
13.1809
 30
0.0
 11
19.3918
 21
12.5925
 31
0.0
  0
LINE
  8
0
 62
     254
 10
19.3918
 20
12.5925
 30
0.0
 11
18.4519
 21
12.9536
 31
0.0
  0
LINE
  8
0
 62
     254
 10
18.4519
 20
12.9536
 30
0.0
 11
18.332
 21
13.1768
 31
0.0
  0
LINE
  8
0
 62
     254
 10
18.332
 20
13.1768
 30
0.0
 11
18.2163
 21
13.3931
 31
0.0
  0
LINE
  8
0
 62
     254
 10
18.2163
 20
13.3931
 30
0.0
 11
18.124
 21
14.18
 31
0.0
  0
LINE
  8
0
 62
     254
 10
18.124
 20
14.18
 30
0.0
 11
18.4051
 21
15.3638
 31
0.0
  0
LINE
  8
0
 62
     254
 10
18.4051
 20
15.3638
 30
0.0
 11
19.1203
 21
16.6343
 31
0.0
  0
LINE
  8
0
 62
     254
 10
19.1203
 20
16.6343
 30
0.0
 11
19.9154
 21
17.6017
 31
0.0
  0
LINE
  8
0
 62
     254
 10
19.9154
 20
17.6017
 30
0.0
 11
20.2144
 21
17.8883
 31
0.0
  0
LINE
  8
0
 62
     254
 10
20.2144
 20
17.8883
 30
0.0
 11
19.8341
 21
18.0275
 31
0.0
  0
LINE
  8
0
 62
     254
 10
19.8341
 20
18.0275
 30
0.0
 11
18.7565
 21
18.6159
 31
0.0
  0
LINE
  8
0
 62
     254
 10
18.7565
 20
18.6159
 30
0.0
 11
17.7395
 21
19.5323
 31
0.0
  0
LINE
  8
0
 62
     254
 10
17.7395
 20
19.5323
 30
0.0
 11
17.1111
 21
20.592
 31
0.0
  0
LINE
  8
0
 62
     254
 10
17.1111
 20
20.592
 30
0.0
 11
16.8272
 21
21.7496
 31
0.0
  0
LINE
  8
0
 62
     254
 10
16.8272
 20
21.7496
 30
0.0
 11
16.8355
 21
22.9595
 31
0.0
  0
LINE
  8
0
 62
     254
 10
16.8355
 20
22.9595
 30
0.0
 11
17.0918
 21
24.1777
 31
0.0
  0
LINE
  8
0
 62
     254
 10
17.0918
 20
24.1777
 30
0.0
 11
17.5452
 21
25.3587
 31
0.0
  0
LINE
  8
0
 62
     254
 10
17.5452
 20
25.3587
 30
0.0
 11
18.1474
 21
26.4542
 31
0.0
  0
LINE
  8
0
 62
     254
 10
18.1474
 20
26.4542
 30
0.0
 11
18.8529
 21
27.423
 31
0.0
  0
LINE
  8
0
 62
     254
 10
18.8529
 20
27.423
 30
0.0
 11
19.6108
 21
28.2167
 31
0.0
  0
LINE
  8
0
 62
     254
 10
19.6108
 20
28.2167
 30
0.0
 11
20.3743
 21
28.79
 31
0.0
  0
LINE
  8
0
 62
     254
 10
20.3743
 20
28.79
 30
0.0
 11
21.095
 21
29.1
 31
0.0
  0
LINE
  8
0
 62
     254
 10
21.095
 20
29.1
 30
0.0
 11
21.7248
 21
29.0987
 31
0.0
  0
LINE
  8
0
 62
     254
 10
21.7248
 20
29.0987
 30
0.0
 11
22.2154
 21
28.7418
 31
0.0
  0
LINE
  8
0
 62
     254
 10
22.2154
 20
28.7418
 30
0.0
 11
22.5185
 21
27.9838
 31
0.0
  0
LINE
  8
0
 62
     254
 10
22.5185
 20
27.9838
 30
0.0
 11
22.5998
 21
27.0798
 31
0.0
  0
LINE
  8
0
 62
     254
 10
22.5998
 20
27.0798
 30
0.0
 11
22.5874
 21
26.7794
 31
0.0
  0
LINE
  8
0
 62
     254
 10
22.5874
 20
26.7794
 30
0.0
 11
22.2829
 21
26.5038
 31
0.0
  0
LINE
  8
0
 62
     254
 10
22.2829
 20
26.5038
 30
0.0
 11
21.6407
 21
25.3752
 31
0.0
  0
LINE
  8
0
 62
     254
 10
21.6407
 20
25.3752
 30
0.0
 11
21.1557
 21
23.5134
 31
0.0
  0
LINE
  8
0
 62
     254
 10
21.1557
 20
23.5134
 30
0.0
 11
21.3927
 21
21.7565
 31
0.0
  0
LINE
  8
0
 62
     254
 10
21.3927
 20
21.7565
 30
0.0
 11
22.2581
 21
20.7794
 31
0.0
  0
LINE
  8
0
 62
     254
 10
22.2581
 20
20.7794
 30
0.0
 11
22.615
 21
20.6678
 31
0.0
  0
LINE
  8
0
 62
     254
 10
22.615
 20
20.6678
 30
0.0
 11
22.7183
 21
20.8842
 31
0.0
  0
LINE
  8
0
 62
     254
 10
22.7183
 20
20.8842
 30
0.0
 11
23.1938
 21
22.0597
 31
0.0
  0
LINE
  8
0
 62
     254
 10
23.1938
 20
22.0597
 30
0.0
 11
23.5906
 21
23.3633
 31
0.0
  0
LINE
  8
0
 62
     254
 10
23.5906
 20
23.3633
 30
0.0
 11
23.654
 21
23.6444
 31
0.0
  0
LINE
  8
0
 62
     254
 10
23.654
 20
23.6444
 30
0.0
 11
23.5658
 21
23.6499
 31
0.0
  0
LINE
  8
0
 62
     254
 10
23.5658
 20
23.6499
 30
0.0
 11
23.1951
 21
23.756
 31
0.0
  0
LINE
  8
0
 62
     254
 10
23.1951
 20
23.756
 30
0.0
 11
22.9264
 21
23.993
 31
0.0
  0
LINE
  8
0
 62
     254
 10
22.9264
 20
23.993
 30
0.0
 11
22.8906
 21
24.0633
 31
0.0
  0
LINE
  8
0
 62
     254
 10
22.8906
 20
24.0633
 30
0.0
 11
22.8051
 21
24.2287
 31
0.0
  0
LINE
  8
0
 62
     254
 10
22.8051
 20
24.2287
 30
0.0
 11
22.6412
 21
24.7702
 31
0.0
  0
LINE
  8
0
 62
     254
 10
22.6412
 20
24.7702
 30
0.0
 11
22.7666
 21
25.185
 31
0.0
  0
LINE
  8
0
 62
     254
 10
22.7666
 20
25.185
 30
0.0
 11
23.2144
 21
25.4055
 31
0.0
  0
LINE
  8
0
 62
     254
 10
23.2144
 20
25.4055
 30
0.0
 11
23.756
 21
25.5089
 31
0.0
  0
LINE
  8
0
 62
     254
 10
23.756
 20
25.5089
 30
0.0
 11
23.9379
 21
25.5323
 31
0.0
  0
LINE
  8
0
 62
     254
 10
23.9379
 20
25.5323
 30
0.0
 11
23.9572
 21
25.7721
 31
0.0
  0
LINE
  8
0
 62
     254
 10
23.9572
 20
25.7721
 30
0.0
 11
23.8924
 21
28.3876
 31
0.0
  0
LINE
  8
0
 62
     254
 10
23.8924
 20
28.3876
 30
0.0
 11
23.8566
 21
28.6714
 31
0.0
  0
LINE
  8
0
 62
     254
 10
23.8566
 20
28.6714
 30
0.0
 11
23.7905
 21
28.801
 31
0.0
  0
LINE
  8
0
 62
     254
 10
23.7905
 20
28.801
 30
0.0
 11
23.4542
 21
30.1625
 31
0.0
  0
LINE
  8
0
 62
     254
 10
23.4542
 20
30.1625
 30
0.0
 11
23.4515
 21
30.292
 31
0.0
  0
LINE
  8
0
 62
     254
 10
23.4515
 20
30.292
 30
0.0
 11
23.078
 21
30.2273
 31
0.0
  0
LINE
  8
0
 62
     254
 10
23.078
 20
30.2273
 30
0.0
 11
21.9907
 21
29.8387
 31
0.0
  0
LINE
  8
0
 62
     254
 10
21.9907
 20
29.8387
 30
0.0
 11
20.5011
 21
29.0835
 31
0.0
  0
LINE
  8
0
 62
     254
 10
20.5011
 20
29.0835
 30
0.0
 11
19.0128
 21
28.1781
 31
0.0
  0
LINE
  8
0
 62
     254
 10
19.0128
 20
28.1781
 30
0.0
 11
17.5603
 21
27.2741
 31
0.0
  0
LINE
  8
0
 62
     254
 10
17.5603
 20
27.2741
 30
0.0
 11
16.174
 21
26.5217
 31
0.0
  0
LINE
  8
0
 62
     254
 10
16.174
 20
26.5217
 30
0.0
 11
14.8856
 21
26.0753
 31
0.0
  0
LINE
  8
0
 62
     254
 10
14.8856
 20
26.0753
 30
0.0
 11
13.7253
 21
26.0821
 31
0.0
  0
LINE
  8
0
 62
     254
 10
13.7253
 20
26.0821
 30
0.0
 11
12.9205
 21
26.49
 31
0.0
  0
LINE
  8
0
 62
     254
 10
12.9205
 20
26.49
 30
0.0
 11
12.7276
 21
26.6954
 31
0.0
  0
LINE
  8
0
 62
     254
 10
12.7276
 20
26.6954
 30
0.0
 11
12.4961
 21
26.942
 31
0.0
  0
LINE
  8
0
 62
     254
 10
12.4961
 20
26.942
 30
0.0
 11
11.8594
 21
27.7289
 31
0.0
  0
LINE
  8
0
 62
     254
 10
11.8594
 20
27.7289
 30
0.0
 11
11.3743
 21
28.5722
 31
0.0
  0
LINE
  8
0
 62
     254
 10
11.3743
 20
28.5722
 30
0.0
 11
11.2379
 21
29.2626
 31
0.0
  0
LINE
  8
0
 62
     254
 10
11.2379
 20
29.2626
 30
0.0
 11
11.4115
 21
29.8387
 31
0.0
  0
LINE
  8
0
 62
     254
 10
11.4115
 20
29.8387
 30
0.0
 11
11.8635
 21
30.3403
 31
0.0
  0
LINE
  8
0
 62
     254
 10
11.8635
 20
30.3403
 30
0.0
 11
12.5553
 21
30.8019
 31
0.0
  0
LINE
  8
0
 62
     254
 10
12.5553
 20
30.8019
 30
0.0
 11
13.4552
 21
31.2649
 31
0.0
  0
LINE
  8
0
 62
     254
 10
13.4552
 20
31.2649
 30
0.0
 11
14.2572
 21
31.6411
 31
0.0
  0
LINE
  8
0
 62
     254
 10
14.2572
 20
31.6411
 30
0.0
 11
14.5259
 21
31.7652
 31
0.0
  0
LINE
  8
0
 62
     254
 10
14.5259
 20
31.7652
 30
0.0
 11
14.4115
 21
32.0449
 31
0.0
  0
LINE
  8
0
 62
     254
 10
14.4115
 20
32.0449
 30
0.0
 11
14.2916
 21
32.9765
 31
0.0
  0
LINE
  8
0
 62
     254
 10
14.2916
 20
32.9765
 30
0.0
 11
14.4529
 21
34.4083
 31
0.0
  0
LINE
  8
0
 62
     254
 10
14.4529
 20
34.4083
 30
0.0
 11
14.9862
 21
35.9791
 31
0.0
  0
LINE
  8
0
 62
     254
 10
14.9862
 20
35.9791
 30
0.0
 11
15.6173
 21
37.2166
 31
0.0
  0
LINE
  8
0
 62
     254
 10
15.6173
 20
37.2166
 30
0.0
 11
15.8667
 21
37.604
 31
0.0
  0
LINE
  8
0
 62
     254
 10
15.8667
 20
37.604
 30
0.0
 11
15.8047
 21
37.8629
 31
0.0
  0
LINE
  8
0
 62
     254
 10
15.8047
 20
37.8629
 30
0.0
 11
15.6862
 21
39.212
 31
0.0
  0
LINE
  8
0
 62
     254
 10
15.6862
 20
39.212
 30
0.0
 11
15.7923
 21
40.5903
 31
0.0
  0
LINE
  8
0
 62
     254
 10
15.7923
 20
40.5903
 30
0.0
 11
15.8433
 21
40.8615
 31
0.0
  0
LINE
  8
0
 62
     254
 10
15.8433
 20
40.8615
 30
0.0
 11
15.7441
 21
40.8601
 31
0.0
  0
LINE
  8
0
 62
     254
 10
15.7441
 20
40.8601
 30
0.0
 11
14.7753
 21
41.1702
 31
0.0
  0
LINE
  8
0
 62
     254
 10
14.7753
 20
41.1702
 30
0.0
 11
14.6802
 21
41.2365
 31
0.0
  0
LINE
  8
0
 62
     254
 10
14.6802
 20
41.2365
 30
0.0
 11
14.3109
 21
41.4983
 31
0.0
  0
LINE
  8
0
 62
     254
 10
14.3109
 20
41.4983
 30
0.0
 11
13.3064
 21
42.4244
 31
0.0
  0
LINE
  8
0
 62
     254
 10
13.3064
 20
42.4244
 30
0.0
 11
12.8392
 21
43.3973
 31
0.0
  0
LINE
  8
0
 62
     254
 10
12.8392
 20
43.3973
 30
0.0
 11
13.1231
 21
44.2666
 31
0.0
  0
LINE
  8
0
 62
     254
 10
13.1231
 20
44.2666
 30
0.0
 11
14.0022
 21
45.146
 31
0.0
  0
LINE
  8
0
 62
     254
 10
14.0022
 20
45.146
 30
0.0
 11
15.321
 21
46.1451
 31
0.0
  0
LINE
  8
0
 62
     254
 10
15.321
 20
46.1451
 30
0.0
 11
16.9265
 21
47.3742
 31
0.0
  0
LINE
  8
0
 62
     254
 10
16.9265
 20
47.3742
 30
0.0
 11
18.6628
 21
48.9451
 31
0.0
  0
LINE
  8
0
 62
     254
 10
18.6628
 20
48.9451
 30
0.0
 11
19.9885
 21
50.4335
 31
0.0
  0
LINE
  8
0
 62
     254
 10
19.9885
 20
50.4335
 30
0.0
 11
20.3757
 21
50.9693
 31
0.0
  0
LINE
  8
0
 62
     254
 10
20.3757
 20
50.9693
 30
0.0
 11
20.3192
 21
51.0868
 31
0.0
  0
LINE
  8
0
 62
     254
 10
20.3192
 20
51.0868
 30
0.0
 11
19.7005
 21
52.2813
 31
0.0
  0
LINE
  8
0
 62
     254
 10
19.7005
 20
52.2813
 30
0.0
 11
19.6329
 21
52.4027
 31
0.0
  0
LINE
  8
0
 62
     254
 10
19.6329
 20
52.4027
 30
0.0
 11
19.5185
 21
52.6521
 31
0.0
  0
LINE
  8
0
 62
     254
 10
19.5185
 20
52.6521
 30
0.0
 11
18.7234
 21
54.9437
 31
0.0
  0
LINE
  8
0
 62
     254
 10
18.7234
 20
54.9437
 30
0.0
 11
18.6765
 21
55.1533
 31
0.0
  0
LINE
  8
0
 62
     254
 10
18.6765
 20
55.1533
 30
0.0
 11
18.525
 21
55.0002
 31
0.0
  0
LINE
  8
0
 62
     254
 10
18.525
 20
55.0002
 30
0.0
 11
18.022
 21
54.5867
 31
0.0
  0
LINE
  8
0
 62
     254
 10
18.022
 20
54.5867
 30
0.0
 11
17.3343
 21
54.2216
 31
0.0
  0
LINE
  8
0
 62
     254
 10
17.3343
 20
54.2216
 30
0.0
 11
16.6026
 21
54.1016
 31
0.0
  0
LINE
  8
0
 62
     254
 10
16.6026
 20
54.1016
 30
0.0
 11
16.0018
 21
54.1955
 31
0.0
  0
LINE
  8
0
 62
     254
 10
16.0018
 20
54.1955
 30
0.0
 11
15.8185
 21
54.2685
 31
0.0
  0
LINE
  8
0
 62
     254
 10
15.8185
 20
54.2685
 30
0.0
 11
15.4147
 21
54.4297
 31
0.0
  0
LINE
  8
0
 62
     254
 10
15.4147
 20
54.4297
 30
0.0
 11
14.2517
 21
55.0347
 31
0.0
  0
LINE
  8
0
 62
     254
 10
14.2517
 20
55.0347
 30
0.0
 11
13.4262
 21
55.7953
 31
0.0
  0
LINE
  8
0
 62
     254
 10
13.4262
 20
55.7953
 30
0.0
 11
13.2292
 21
56.5976
 31
0.0
  0
LINE
  8
0
 62
     254
 10
13.2292
 20
56.5976
 30
0.0
 11
13.429
 21
57.2837
 31
0.0
  0
LINE
  8
0
 62
     254
 10
13.429
 20
57.2837
 30
0.0
 11
13.5434
 21
57.4848
 31
0.0
  0
LINE
  8
0
 62
     254
 10
13.5434
 20
57.4848
 30
0.0
 11
13.451
 21
57.5677
 31
0.0
  0
LINE
  8
0
 62
     254
 10
13.451
 20
57.5677
 30
0.0
 11
13.0996
 21
58.0552
 31
0.0
  0
LINE
  8
0
 62
     254
 10
13.0996
 20
58.0552
 30
0.0
 11
12.9053
 21
58.6617
 31
0.0
  0
LINE
  8
0
 62
     254
 10
12.9053
 20
58.6617
 30
0.0
 11
12.8929
 21
58.8024
 31
0.0
  0
LINE
  8
0
 62
     254
 10
12.8929
 20
58.8024
 30
0.0
 11
12.8668
 21
59.0765
 31
0.0
  0
LINE
  8
0
 62
     254
 10
12.8668
 20
59.0765
 30
0.0
 11
12.8405
 21
59.9034
 31
0.0
  0
LINE
  8
0
 62
     254
 10
12.8405
 20
59.9034
 30
0.0
 11
12.915
 21
60.7399
 31
0.0
  0
LINE
  8
0
 62
     254
 10
12.915
 20
60.7399
 30
0.0
 11
13.1134
 21
61.3406
 31
0.0
  0
LINE
  8
0
 62
     254
 10
13.1134
 20
61.3406
 30
0.0
 11
13.3353
 21
61.6574
 31
0.0
  0
LINE
  8
0
 62
     254
 10
13.3353
 20
61.6574
 30
0.0
 11
13.4317
 21
61.7333
 31
0.0
  0
LINE
  8
0
 62
     254
 10
13.4317
 20
61.7333
 30
0.0
 11
12.5691
 21
62.0931
 31
0.0
  0
LINE
  8
0
 62
     254
 10
12.5691
 20
62.0931
 30
0.0
 11
10.1837
 21
63.6598
 31
0.0
  0
LINE
  8
0
 62
     254
 10
10.1837
 20
63.6598
 30
0.0
 11
8.38951
 21
65.9652
 31
0.0
  0
LINE
  8
0
 62
     254
 10
8.38951
 20
65.9652
 30
0.0
 11
7.81209
 21
68.4939
 31
0.0
  0
LINE
  8
0
 62
     254
 10
7.81209
 20
68.4939
 30
0.0
 11
8.22
 21
71.0942
 31
0.0
  0
LINE
  8
0
 62
     254
 10
8.22
 20
71.0942
 30
0.0
 11
9.37479
 21
73.6134
 31
0.0
  0
LINE
  8
0
 62
     254
 10
9.37479
 20
73.6134
 30
0.0
 11
11.0464
 21
75.897
 31
0.0
  0
LINE
  8
0
 62
     254
 10
11.0464
 20
75.897
 30
0.0
 11
12.9963
 21
77.7931
 31
0.0
  0
LINE
  8
0
 62
     254
 10
12.9963
 20
77.7931
 30
0.0
 11
14.4639
 21
78.8652
 31
0.0
  0
LINE
  8
0
 62
     254
 10
14.4639
 20
78.8652
 30
0.0
 11
14.9931
 21
79.1464
 31
0.0
  0
LINE
  8
0
 62
     254
 10
14.9931
 20
79.1464
 30
0.0
 11
13.5778
 21
80.9445
 31
0.0
  0
LINE
  8
0
 62
     254
 10
13.5778
 20
80.9445
 30
0.0
 11
10.0432
 21
86.899
 31
0.0
  0
LINE
  8
0
 62
     254
 10
10.0432
 20
86.899
 30
0.0
 11
6.3252
 21
95.7379
 31
0.0
  0
LINE
  8
0
 62
     254
 10
6.3252
 20
95.7379
 30
0.0
 11
3.66007
 21
105.472
 31
0.0
  0
LINE
  8
0
 62
     254
 10
3.66007
 20
105.472
 30
0.0
 11
1.87413
 21
115.914
 31
0.0
  0
LINE
  8
0
 62
     254
 10
1.87413
 20
115.914
 30
0.0
 11
0.789615
 21
126.877
 31
0.0
  0
LINE
  8
0
 62
     254
 10
0.789615
 20
126.877
 30
0.0
 11
0.234267
 21
138.17
 31
0.0
  0
LINE
  8
0
 62
     254
 10
0.234267
 20
138.17
 30
0.0
 11
0.0289388
 21
149.608
 31
0.0
  0
LINE
  8
0
 62
     254
 10
0.0289388
 20
149.608
 30
0.0
 11
0
 21
158.152
 31
0.0
  0
LINE
  8
0
 62
     254
 10
0
 20
158.152
 30
0.0
 11
0
 21
160.999
 31
0.0
  0
LINE
  8
0
 62
     254
 10
0
 20
160.999
 30
0.0
 11
0
 21
164.153
 31
0.0
  0
LINE
  8
0
 62
     254
 10
0
 20
164.153
 30
0.0
 11
0.192925
 21
173.612
 31
0.0
  0
LINE
  8
0
 62
     254
 10
0.192925
 20
173.612
 30
0.0
 11
0.835092
 21
185.393
 31
0.0
  0
LINE
  8
0
 62
     254
 10
0.835092
 20
185.393
 30
0.0
 11
2.01331
 21
196.285
 31
0.0
  0
LINE
  8
0
 62
     254
 10
2.01331
 20
196.285
 30
0.0
 11
3.81854
 21
206.235
 31
0.0
  0
LINE
  8
0
 62
     254
 10
3.81854
 20
206.235
 30
0.0
 11
6.34037
 21
215.185
 31
0.0
  0
LINE
  8
0
 62
     254
 10
6.34037
 20
215.185
 30
0.0
 11
9.66833
 21
223.08
 31
0.0
  0
LINE
  8
0
 62
     254
 10
9.66833
 20
223.08
 30
0.0
 11
13.8906
 21
229.864
 31
0.0
  0
LINE
  8
0
 62
     254
 10
13.8906
 20
229.864
 30
0.0
 11
17.6664
 21
234.226
 31
0.0
  0
LINE
  8
0
 62
     254
 10
17.6664
 20
234.226
 30
0.0
 11
19.0996
 21
235.481
 31
0.0
  0
LINE
  8
0
 62
     254
 10
19.0996
 20
235.481
 30
0.0
 11
19.0996
 21
235.547
 31
0.0
  0
LINE
  8
0
 62
     254
 10
19.0996
 20
235.547
 30
0.0
 11
19.1203
 21
235.723
 31
0.0
  0
LINE
  8
0
 62
     254
 10
19.1203
 20
235.723
 30
0.0
 11
19.1244
 21
235.744
 31
0.0
  0
LINE
  8
0
 62
     254
 10
19.1244
 20
235.744
 30
0.0
 11
18.8061
 21
236.034
 31
0.0
  0
LINE
  8
0
 62
     254
 10
18.8061
 20
236.034
 30
0.0
 11
17.9558
 21
237.021
 31
0.0
  0
LINE
  8
0
 62
     254
 10
17.9558
 20
237.021
 30
0.0
 11
17.0312
 21
238.432
 31
0.0
  0
LINE
  8
0
 62
     254
 10
17.0312
 20
238.432
 30
0.0
 11
16.3945
 21
239.846
 31
0.0
  0
LINE
  8
0
 62
     254
 10
16.3945
 20
239.846
 30
0.0
 11
16.0914
 21
241.133
 31
0.0
  0
LINE
  8
0
 62
     254
 10
16.0914
 20
241.133
 30
0.0
 11
16.1644
 21
242.161
 31
0.0
  0
LINE
  8
0
 62
     254
 10
16.1644
 20
242.161
 30
0.0
 11
16.6605
 21
242.799
 31
0.0
  0
LINE
  8
0
 62
     254
 10
16.6605
 20
242.799
 30
0.0
 11
17.6251
 21
242.916
 31
0.0
  0
LINE
  8
0
 62
     254
 10
17.6251
 20
242.916
 30
0.0
 11
18.7565
 21
242.561
 31
0.0
  0
LINE
  8
0
 62
     254
 10
18.7565
 20
242.561
 30
0.0
 11
19.1024
 21
242.382
 31
0.0
  0
LINE
  8
0
 62
     254
 10
19.1024
 20
242.382
 30
0.0
 11
19.1313
 21
242.291
 31
0.0
  0
LINE
  8
0
 62
     254
 10
19.1313
 20
242.291
 30
0.0
 11
19.6384
 21
241.341
 31
0.0
  0
LINE
  8
0
 62
     254
 10
19.6384
 20
241.341
 30
0.0
 11
19.7087
 21
241.246
 31
0.0
  0
LINE
  8
0
 62
     254
 10
19.7087
 20
241.246
 30
0.0
 11
19.6577
 21
241.534
 31
0.0
  0
LINE
  8
0
 62
     254
 10
19.6577
 20
241.534
 30
0.0
 11
19.4607
 21
244.513
 31
0.0
  0
LINE
  8
0
 62
     254
 10
19.4607
 20
244.513
 30
0.0
 11
19.4744
 21
244.818
 31
0.0
  0
LINE
  8
0
 62
     254
 10
19.4744
 20
244.818
 30
0.0
 11
19.462
 21
244.822
 31
0.0
  0
LINE
  8
0
 62
     254
 10
19.462
 20
244.822
 30
0.0
 11
19.3408
 21
244.864
 31
0.0
  0
LINE
  8
0
 62
     254
 10
19.3408
 20
244.864
 30
0.0
 11
19.3284
 21
244.868
 31
0.0
  0
LINE
  8
0
 62
     254
 10
19.3284
 20
244.868
 30
0.0
 11
18.8047
 21
245.094
 31
0.0
  0
LINE
  8
0
 62
     254
 10
18.8047
 20
245.094
 30
0.0
 11
17.3233
 21
245.97
 31
0.0
  0
LINE
  8
0
 62
     254
 10
17.3233
 20
245.97
 30
0.0
 11
16.0018
 21
247.198
 31
0.0
  0
LINE
  8
0
 62
     254
 10
16.0018
 20
247.198
 30
0.0
 11
15.2742
 21
248.507
 31
0.0
  0
LINE
  8
0
 62
     254
 10
15.2742
 20
248.507
 30
0.0
 11
15.0564
 21
249.517
 31
0.0
  0
LINE
  8
0
 62
     254
 10
15.0564
 20
249.517
 30
0.0
 11
15.0592
 21
249.852
 31
0.0
  0
LINE
  8
0
 62
     254
 10
15.0592
 20
249.852
 30
0.0
 11
14.6017
 21
249.8
 31
0.0
  0
LINE
  8
0
 62
     254
 10
14.6017
 20
249.8
 30
0.0
 11
13.2292
 21
249.645
 31
0.0
  0
LINE
  8
0
 62
     254
 10
13.2292
 20
249.645
 30
0.0
 11
11.7547
 21
249.619
 31
0.0
  0
LINE
  8
0
 62
     254
 10
11.7547
 20
249.619
 30
0.0
 11
10.7115
 21
249.979
 31
0.0
  0
LINE
  8
0
 62
     254
 10
10.7115
 20
249.979
 30
0.0
 11
10.2264
 21
250.679
 31
0.0
  0
LINE
  8
0
 62
     254
 10
10.2264
 20
250.679
 30
0.0
 11
10.1782
 21
250.933
 31
0.0
  0
LINE
  8
0
 62
     254
 10
10.1782
 20
250.933
 30
0.0
 11
10.1506
 21
251.073
 31
0.0
  0
LINE
  8
0
 62
     254
 10
10.1506
 20
251.073
 30
0.0
 11
10.1727
 21
251.789
 31
0.0
  0
LINE
  8
0
 62
     254
 10
10.1727
 20
251.789
 30
0.0
 11
10.3904
 21
252.519
 31
0.0
  0
LINE
  8
0
 62
     254
 10
10.3904
 20
252.519
 30
0.0
 11
10.4621
 21
252.665
 31
0.0
  0
LINE
  8
0
 62
     254
 10
10.4621
 20
252.665
 30
0.0
 11
10.4579
 21
252.676
 31
0.0
  0
LINE
  8
0
 62
     254
 10
10.4579
 20
252.676
 30
0.0
 11
10.429
 21
252.78
 31
0.0
  0
LINE
  8
0
 62
     254
 10
10.429
 20
252.78
 30
0.0
 11
10.4262
 21
252.79
 31
0.0
  0
LINE
  8
0
 62
     254
 10
10.4262
 20
252.79
 30
0.0
 11
10.3188
 21
253.203
 31
0.0
  0
LINE
  8
0
 62
     254
 10
10.3188
 20
253.203
 30
0.0
 11
10.6426
 21
254.609
 31
0.0
  0
LINE
  8
0
 62
     254
 10
10.6426
 20
254.609
 30
0.0
 11
12.022
 21
256.468
 31
0.0
  0
LINE
  8
0
 62
     254
 10
12.022
 20
256.468
 30
0.0
 11
14.3233
 21
258.126
 31
0.0
  0
LINE
  8
0
 62
     254
 10
14.3233
 20
258.126
 30
0.0
 11
16.5378
 21
259.121
 31
0.0
  0
LINE
  8
0
 62
     254
 10
16.5378
 20
259.121
 30
0.0
 11
17.3095
 21
259.334
 31
0.0
  0
LINE
  8
0
 62
     254
 10
17.3095
 20
259.334
 30
0.0
 11
17.3413
 21
259.373
 31
0.0
  0
LINE
  8
0
 62
     254
 10
17.3413
 20
259.373
 30
0.0
 11
17.6582
 21
259.764
 31
0.0
  0
LINE
  8
0
 62
     254
 10
17.6582
 20
259.764
 30
0.0
 11
17.6899
 21
259.804
 31
0.0
  0
LINE
  8
0
 62
     254
 10
17.6899
 20
259.804
 30
0.0
 11
17.4115
 21
259.957
 31
0.0
  0
LINE
  8
0
 62
     254
 10
17.4115
 20
259.957
 30
0.0
 11
16.5751
 21
260.408
 31
0.0
  0
LINE
  8
0
 62
     254
 10
16.5751
 20
260.408
 30
0.0
 11
15.4947
 21
261.003
 31
0.0
  0
LINE
  8
0
 62
     254
 10
15.4947
 20
261.003
 30
0.0
 11
14.4928
 21
261.608
 31
0.0
  0
LINE
  8
0
 62
     254
 10
14.4928
 20
261.608
 30
0.0
 11
13.6219
 21
262.238
 31
0.0
  0
LINE
  8
0
 62
     254
 10
13.6219
 20
262.238
 30
0.0
 11
12.9246
 21
262.906
 31
0.0
  0
LINE
  8
0
 62
     254
 10
12.9246
 20
262.906
 30
0.0
 11
12.452
 21
263.63
 31
0.0
  0
LINE
  8
0
 62
     254
 10
12.452
 20
263.63
 30
0.0
 11
12.2508
 21
264.424
 31
0.0
  0
LINE
  8
0
 62
     254
 10
12.2508
 20
264.424
 30
0.0
 11
12.3031
 21
265.095
 31
0.0
  0
LINE
  8
0
 62
     254
 10
12.3031
 20
265.095
 30
0.0
 11
12.3693
 21
265.303
 31
0.0
  0
LINE
  8
0
 62
     254
 10
12.3693
 20
265.303
 30
0.0
 11
12.4864
 21
265.678
 31
0.0
  0
LINE
  8
0
 62
     254
 10
12.4864
 20
265.678
 30
0.0
 11
12.9287
 21
266.77
 31
0.0
  0
LINE
  8
0
 62
     254
 10
12.9287
 20
266.77
 30
0.0
 11
13.5158
 21
267.707
 31
0.0
  0
LINE
  8
0
 62
     254
 10
13.5158
 20
267.707
 30
0.0
 11
14.1525
 21
268.178
 31
0.0
  0
LINE
  8
0
 62
     254
 10
14.1525
 20
268.178
 30
0.0
 11
14.8594
 21
268.252
 31
0.0
  0
LINE
  8
0
 62
     254
 10
14.8594
 20
268.252
 30
0.0
 11
15.6573
 21
267.993
 31
0.0
  0
LINE
  8
0
 62
     254
 10
15.6573
 20
267.993
 30
0.0
 11
16.5681
 21
267.468
 31
0.0
  0
LINE
  8
0
 62
     254
 10
16.5681
 20
267.468
 30
0.0
 11
17.6127
 21
266.743
 31
0.0
  0
LINE
  8
0
 62
     254
 10
17.6127
 20
266.743
 30
0.0
 11
18.5112
 21
266.096
 31
0.0
  0
LINE
  8
0
 62
     254
 10
18.5112
 20
266.096
 30
0.0
 11
18.813
 21
265.884
 31
0.0
  0
LINE
  8
0
 62
     254
 10
18.813
 20
265.884
 30
0.0
 11
18.9039
 21
265.89
 31
0.0
  0
LINE
  8
0
 62
     254
 10
18.9039
 20
265.89
 30
0.0
 11
20.0532
 21
265.755
 31
0.0
  0
LINE
  8
0
 62
     254
 10
20.0532
 20
265.755
 30
0.0
 11
20.1924
 21
265.72
 31
0.0
  0
LINE
  8
0
 62
     254
 10
20.1924
 20
265.72
 30
0.0
 11
20.2144
 21
265.683
 31
0.0
  0
LINE
  8
0
 62
     254
 10
20.2144
 20
265.683
 30
0.0
 11
20.4887
 21
265.315
 31
0.0
  0
LINE
  8
0
 62
     254
 10
20.4887
 20
265.315
 30
0.0
 11
20.5218
 21
265.278
 31
0.0
  0
LINE
  8
0
 62
     254
 10
20.5218
 20
265.278
 30
0.0
 11
20.5493
 21
265.37
 31
0.0
  0
LINE
  8
0
 62
     254
 10
20.5493
 20
265.37
 30
0.0
 11
20.8111
 21
266.324
 31
0.0
  0
LINE
  8
0
 62
     254
 10
20.8111
 20
266.324
 30
0.0
 11
20.8359
 21
266.422
 31
0.0
  0
LINE
  8
0
 62
     254
 10
20.8359
 20
266.422
 30
0.0
 11
20.5093
 21
266.514
 31
0.0
  0
LINE
  8
0
 62
     254
 10
20.5093
 20
266.514
 30
0.0
 11
19.5337
 21
266.796
 31
0.0
  0
LINE
  8
0
 62
     254
 10
19.5337
 20
266.796
 30
0.0
 11
18.4092
 21
267.231
 31
0.0
  0
LINE
  8
0
 62
     254
 10
18.4092
 20
267.231
 30
0.0
 11
17.6334
 21
267.818
 31
0.0
  0
LINE
  8
0
 62
     254
 10
17.6334
 20
267.818
 30
0.0
 11
17.3661
 21
268.447
 31
0.0
  0
LINE
  8
0
 62
     254
 10
17.3661
 20
268.447
 30
0.0
 11
17.3798
 21
268.65
 31
0.0
  0
LINE
  8
0
 62
     254
 10
17.3798
 20
268.65
 30
0.0
 11
17.3936
 21
268.869
 31
0.0
  0
LINE
  8
0
 62
     254
 10
17.3936
 20
268.869
 30
0.0
 11
17.497
 21
269.522
 31
0.0
  0
LINE
  8
0
 62
     254
 10
17.497
 20
269.522
 30
0.0
 11
17.7161
 21
270.08
 31
0.0
  0
LINE
  8
0
 62
     254
 10
17.7161
 20
270.08
 30
0.0
 11
18.0399
 21
270.372
 31
0.0
  0
LINE
  8
0
 62
     254
 10
18.0399
 20
270.372
 30
0.0
 11
18.4712
 21
270.441
 31
0.0
  0
LINE
  8
0
 62
     254
 10
18.4712
 20
270.441
 30
0.0
 11
19.0142
 21
270.337
 31
0.0
  0
LINE
  8
0
 62
     254
 10
19.0142
 20
270.337
 30
0.0
 11
19.6729
 21
270.101
 31
0.0
  0
LINE
  8
0
 62
     254
 10
19.6729
 20
270.101
 30
0.0
 11
20.4487
 21
269.783
 31
0.0
  0
LINE
  8
0
 62
     254
 10
20.4487
 20
269.783
 30
0.0
 11
21.1198
 21
269.511
 31
0.0
  0
LINE
  8
0
 62
     254
 10
21.1198
 20
269.511
 30
0.0
 11
21.3458
 21
269.426
 31
0.0
  0
LINE
  8
0
 62
     254
 10
21.3458
 20
269.426
 30
0.0
 11
21.3582
 21
269.553
 31
0.0
  0
LINE
  8
0
 62
     254
 10
21.3582
 20
269.553
 30
0.0
 11
21.4533
 21
270.867
 31
0.0
  0
LINE
  8
0
 62
     254
 10
21.4533
 20
270.867
 30
0.0
 11
21.4602
 21
271.002
 31
0.0
  0
LINE
  8
0
 62
     254
 10
21.4602
 20
271.002
 30
0.0
 11
20.9572
 21
271.122
 31
0.0
  0
LINE
  8
0
 62
     254
 10
20.9572
 20
271.122
 30
0.0
 11
19.4014
 21
271.286
 31
0.0
  0
LINE
  8
0
 62
     254
 10
19.4014
 20
271.286
 30
0.0
 11
17.4501
 21
271.234
 31
0.0
  0
LINE
  8
0
 62
     254
 10
17.4501
 20
271.234
 30
0.0
 11
15.6435
 21
270.983
 31
0.0
  0
LINE
  8
0
 62
     254
 10
15.6435
 20
270.983
 30
0.0
 11
14.0229
 21
270.669
 31
0.0
  0
LINE
  8
0
 62
     254
 10
14.0229
 20
270.669
 30
0.0
 11
12.6284
 21
270.427
 31
0.0
  0
LINE
  8
0
 62
     254
 10
12.6284
 20
270.427
 30
0.0
 11
11.4997
 21
270.396
 31
0.0
  0
LINE
  8
0
 62
     254
 10
11.4997
 20
270.396
 30
0.0
 11
10.6757
 21
270.71
 31
0.0
  0
LINE
  8
0
 62
     254
 10
10.6757
 20
270.71
 30
0.0
 11
10.2567
 21
271.292
 31
0.0
  0
LINE
  8
0
 62
     254
 10
10.2567
 20
271.292
 30
0.0
 11
10.1989
 21
271.507
 31
0.0
  0
LINE
  8
0
 62
     254
 10
10.1989
 20
271.507
 30
0.0
 11
10.101
 21
271.869
 31
0.0
  0
LINE
  8
0
 62
     254
 10
10.101
 20
271.869
 30
0.0
 11
10.3146
 21
273.088
 31
0.0
  0
LINE
  8
0
 62
     254
 10
10.3146
 20
273.088
 30
0.0
 11
11.3578
 21
274.733
 31
0.0
  0
LINE
  8
0
 62
     254
 10
11.3578
 20
274.733
 30
0.0
 11
13.1603
 21
276.269
 31
0.0
  0
LINE
  8
0
 62
     254
 10
13.1603
 20
276.269
 30
0.0
 11
14.9324
 21
277.274
 31
0.0
  0
LINE
  8
0
 62
     254
 10
14.9324
 20
277.274
 30
0.0
 11
15.5581
 21
277.523
 31
0.0
  0
LINE
  8
0
 62
     254
 10
15.5581
 20
277.523
 30
0.0
 11
15.5581
 21
277.534
 31
0.0
  0
LINE
  8
0
 62
     254
 10
15.5581
 20
277.534
 30
0.0
 11
15.5732
 21
277.636
 31
0.0
  0
LINE
  8
0
 62
     254
 10
15.5732
 20
277.636
 30
0.0
 11
15.576
 21
277.646
 31
0.0
  0
LINE
  8
0
 62
     254
 10
15.576
 20
277.646
 30
0.0
 11
15.62
 21
277.902
 31
0.0
  0
LINE
  8
0
 62
     254
 10
15.62
 20
277.902
 30
0.0
 11
16.0789
 21
278.61
 31
0.0
  0
LINE
  8
0
 62
     254
 10
16.0789
 20
278.61
 30
0.0
 11
17.1387
 21
279.393
 31
0.0
  0
LINE
  8
0
 62
     254
 10
17.1387
 20
279.393
 30
0.0
 11
18.6256
 21
279.939
 31
0.0
  0
LINE
  8
0
 62
     254
 10
18.6256
 20
279.939
 30
0.0
 11
19.965
 21
280.174
 31
0.0
  0
LINE
  8
0
 62
     254
 10
19.965
 20
280.174
 30
0.0
 11
20.4156
 21
280.197
 31
0.0
  0
LINE
  8
0
 62
     254
 10
20.4156
 20
280.197
 30
0.0
 11
20.5025
 21
280.62
 31
0.0
  0
LINE
  8
0
 62
     254
 10
20.5025
 20
280.62
 30
0.0
 11
20.9421
 21
281.853
 31
0.0
  0
LINE
  8
0
 62
     254
 10
20.9421
 20
281.853
 30
0.0
 11
21.8584
 21
283.41
 31
0.0
  0
LINE
  8
0
 62
     254
 10
21.8584
 20
283.41
 30
0.0
 11
23.1883
 21
284.712
 31
0.0
  0
LINE
  8
0
 62
     254
 10
23.1883
 20
284.712
 30
0.0
 11
24.4919
 21
285.452
 31
0.0
  0
LINE
  8
0
 62
     254
 10
24.4919
 20
285.452
 30
0.0
 11
24.959
 21
285.598
 31
0.0
  0
LINE
  8
0
 62
     254
 10
24.959
 20
285.598
 30
0.0
 11
25.2305
 21
285.684
 31
0.0
  0
LINE
  8
0
 62
     254
 10
25.2305
 20
285.684
 30
0.0
 11
25.9623
 21
286.21
 31
0.0
  0
LINE
  8
0
 62
     254
 10
25.9623
 20
286.21
 30
0.0
 11
26.3329
 21
287.111
 31
0.0
  0
LINE
  8
0
 62
     254
 10
26.3329
 20
287.111
 30
0.0
 11
26.2544
 21
288.209
 31
0.0
  0
LINE
  8
0
 62
     254
 10
26.2544
 20
288.209
 30
0.0
 11
26.0146
 21
289.108
 31
0.0
  0
LINE
  8
0
 62
     254
 10
26.0146
 20
289.108
 30
0.0
 11
25.9167
 21
289.402
 31
0.0
  0
LINE
  8
0
 62
     254
 10
25.9167
 20
289.402
 30
0.0
 11
25.1961
 21
289.795
 31
0.0
  0
LINE
  8
0
 62
     254
 10
25.1961
 20
289.795
 30
0.0
 11
22.8217
 21
290.579
 31
0.0
  0
LINE
  8
0
 62
     254
 10
22.8217
 20
290.579
 30
0.0
 11
19.9857
 21
290.806
 31
0.0
  0
LINE
  8
0
 62
     254
 10
19.9857
 20
290.806
 30
0.0
 11
17.4294
 21
290.38
 31
0.0
  0
LINE
  8
0
 62
     254
 10
17.4294
 20
290.38
 30
0.0
 11
15.1708
 21
289.597
 31
0.0
  0
LINE
  8
0
 62
     254
 10
15.1708
 20
289.597
 30
0.0
 11
13.2319
 21
288.757
 31
0.0
  0
LINE
  8
0
 62
     254
 10
13.2319
 20
288.757
 30
0.0
 11
11.6307
 21
288.155
 31
0.0
  0
LINE
  8
0
 62
     254
 10
11.6307
 20
288.155
 30
0.0
 11
10.3876
 21
288.087
 31
0.0
  0
LINE
  8
0
 62
     254
 10
10.3876
 20
288.087
 30
0.0
 11
9.64766
 21
288.612
 31
0.0
  0
LINE
  8
0
 62
     254
 10
9.64766
 20
288.612
 30
0.0
 11
9.52362
 21
288.851
 31
0.0
  0
LINE
  8
0
 62
     254
 10
9.52362
 20
288.851
 30
0.0
 11
9.39546
 21
289.096
 31
0.0
  0
LINE
  8
0
 62
     254
 10
9.39546
 20
289.096
 30
0.0
 11
9.25904
 21
289.961
 31
0.0
  0
LINE
  8
0
 62
     254
 10
9.25904
 20
289.961
 30
0.0
 11
9.48503
 21
291.24
 31
0.0
  0
LINE
  8
0
 62
     254
 10
9.48503
 20
291.24
 30
0.0
 11
10.1506
 21
292.61
 31
0.0
  0
LINE
  8
0
 62
     254
 10
10.1506
 20
292.61
 30
0.0
 11
11.2117
 21
293.992
 31
0.0
  0
LINE
  8
0
 62
     254
 10
11.2117
 20
293.992
 30
0.0
 11
12.6173
 21
295.308
 31
0.0
  0
LINE
  8
0
 62
     254
 10
12.6173
 20
295.308
 30
0.0
 11
14.322
 21
296.481
 31
0.0
  0
LINE
  8
0
 62
     254
 10
14.322
 20
296.481
 30
0.0
 11
16.2774
 21
297.43
 31
0.0
  0
LINE
  8
0
 62
     254
 10
16.2774
 20
297.43
 30
0.0
 11
17.8869
 21
297.964
 31
0.0
  0
LINE
  8
0
 62
     254
 10
17.8869
 20
297.964
 30
0.0
 11
18.4368
 21
298.079
 31
0.0
  0
LINE
  8
0
 62
     254
 10
18.4368
 20
298.079
 30
0.0
 11
18.4974
 21
298.209
 31
0.0
  0
LINE
  8
0
 62
     254
 10
18.4974
 20
298.209
 30
0.0
 11
19.0927
 21
299.645
 31
0.0
  0
LINE
  8
0
 62
     254
 10
19.0927
 20
299.645
 30
0.0
 11
19.1478
 21
299.802
 31
0.0
  0
LINE
  8
0
 62
     254
 10
19.1478
 20
299.802
 30
0.0
 11
19.1409
 21
299.821
 31
0.0
  0
LINE
  8
0
 62
     254
 10
19.1409
 20
299.821
 30
0.0
 11
19.1134
 21
300.048
 31
0.0
  0
LINE
  8
0
 62
     254
 10
19.1134
 20
300.048
 30
0.0
 11
19.1148
 21
300.075
 31
0.0
  0
LINE
  8
0
 62
     254
 10
19.1148
 20
300.075
 30
0.0
 11
19.1175
 21
300.139
 31
0.0
  0
LINE
  8
0
 62
     254
 10
19.1175
 20
300.139
 30
0.0
 11
19.411
 21
300.78
 31
0.0
  0
LINE
  8
0
 62
     254
 10
19.411
 20
300.78
 30
0.0
 11
19.4634
 21
300.842
 31
0.0
  0
LINE
  8
0
 62
     254
 10
19.4634
 20
300.842
 30
0.0
 11
19.4965
 21
300.972
 31
0.0
  0
LINE
  8
0
 62
     254
 10
19.4965
 20
300.972
 30
0.0
 11
19.7583
 21
302.347
 31
0.0
  0
LINE
  8
0
 62
     254
 10
19.7583
 20
302.347
 30
0.0
 11
19.7762
 21
302.493
 31
0.0
  0
LINE
  8
0
 62
     254
 10
19.7762
 20
302.493
 30
0.0
 11
19.4758
 21
302.486
 31
0.0
  0
LINE
  8
0
 62
     254
 10
19.4758
 20
302.486
 30
0.0
 11
18.146
 21
302.835
 31
0.0
  0
LINE
  8
0
 62
     254
 10
18.146
 20
302.835
 30
0.0
 11
17.0408
 21
303.6
 31
0.0
  0
LINE
  8
0
 62
     254
 10
17.0408
 20
303.6
 30
0.0
 11
16.8548
 21
303.801
 31
0.0
  0
LINE
  8
0
 62
     254
 10
16.8548
 20
303.801
 30
0.0
 11
16.655
 21
303.801
 31
0.0
  0
LINE
  8
0
 62
     254
 10
16.655
 20
303.801
 30
0.0
 11
16.0583
 21
303.845
 31
0.0
  0
LINE
  8
0
 62
     254
 10
16.0583
 20
303.845
 30
0.0
 11
15.3886
 21
304.003
 31
0.0
  0
LINE
  8
0
 62
     254
 10
15.3886
 20
304.003
 30
0.0
 11
14.8869
 21
304.323
 31
0.0
  0
LINE
  8
0
 62
     254
 10
14.8869
 20
304.323
 30
0.0
 11
14.632
 21
304.708
 31
0.0
  0
LINE
  8
0
 62
     254
 10
14.632
 20
304.708
 30
0.0
 11
14.5948
 21
304.847
 31
0.0
  0
LINE
  8
0
 62
     254
 10
14.5948
 20
304.847
 30
0.0
 11
14.5328
 21
305.074
 31
0.0
  0
LINE
  8
0
 62
     254
 10
14.5328
 20
305.074
 30
0.0
 11
14.4184
 21
305.773
 31
0.0
  0
LINE
  8
0
 62
     254
 10
14.4184
 20
305.773
 30
0.0
 11
14.4804
 21
306.386
 31
0.0
  0
LINE
  8
0
 62
     254
 10
14.4804
 20
306.386
 30
0.0
 11
14.7629
 21
306.747
 31
0.0
  0
LINE
  8
0
 62
     254
 10
14.7629
 20
306.747
 30
0.0
 11
15.1253
 21
306.895
 31
0.0
  0
LINE
  8
0
 62
     254
 10
15.1253
 20
306.895
 30
0.0
 11
15.2508
 21
306.914
 31
0.0
  0
LINE
  8
0
 62
     254
 10
15.2508
 20
306.914
 30
0.0
 11
15.1915
 21
307.151
 31
0.0
  0
LINE
  8
0
 62
     254
 10
15.1915
 20
307.151
 30
0.0
 11
15.073
 21
307.874
 31
0.0
  0
LINE
  8
0
 62
     254
 10
15.073
 20
307.874
 30
0.0
 11
15.0317
 21
308.763
 31
0.0
  0
LINE
  8
0
 62
     254
 10
15.0317
 20
308.763
 30
0.0
 11
15.1267
 21
309.527
 31
0.0
  0
LINE
  8
0
 62
     254
 10
15.1267
 20
309.527
 30
0.0
 11
15.3583
 21
310.115
 31
0.0
  0
LINE
  8
0
 62
     254
 10
15.3583
 20
310.115
 30
0.0
 11
15.7275
 21
310.476
 31
0.0
  0
LINE
  8
0
 62
     254
 10
15.7275
 20
310.476
 30
0.0
 11
16.236
 21
310.559
 31
0.0
  0
LINE
  8
0
 62
     254
 10
16.236
 20
310.559
 30
0.0
 11
16.8851
 21
310.308
 31
0.0
  0
LINE
  8
0
 62
     254
 10
16.8851
 20
310.308
 30
0.0
 11
17.4942
 21
309.852
 31
0.0
  0
LINE
  8
0
 62
     254
 10
17.4942
 20
309.852
 30
0.0
 11
17.6747
 21
309.675
 31
0.0
  0
LINE
  8
0
 62
     254
 10
17.6747
 20
309.675
 30
0.0
 11
17.6747
 21
309.316
 31
0.0
  0
LINE
  8
0
 62
     254
 10
17.6747
 20
309.316
 30
0.0
 11
18.044
 21
308.234
 31
0.0
  0
LINE
  8
0
 62
     254
 10
18.044
 20
308.234
 30
0.0
 11
18.8075
 21
307.038
 31
0.0
  0
LINE
  8
0
 62
     254
 10
18.8075
 20
307.038
 30
0.0
 11
19.0045
 21
306.838
 31
0.0
  0
LINE
  8
0
 62
     254
 10
19.0045
 20
306.838
 30
0.0
 11
19.05
 21
306.839
 31
0.0
  0
LINE
  8
0
 62
     254
 10
19.05
 20
306.839
 30
0.0
 11
19.5241
 21
306.863
 31
0.0
  0
LINE
  8
0
 62
     254
 10
19.5241
 20
306.863
 30
0.0
 11
19.5737
 21
306.866
 31
0.0
  0
LINE
  8
0
 62
     254
 10
19.5737
 20
306.866
 30
0.0
 11
19.5213
 21
307.121
 31
0.0
  0
LINE
  8
0
 62
     254
 10
19.5213
 20
307.121
 30
0.0
 11
18.6848
 21
309.848
 31
0.0
  0
LINE
  8
0
 62
     254
 10
18.6848
 20
309.848
 30
0.0
 11
18.5663
 21
310.139
 31
0.0
  0
LINE
  8
0
 62
     254
 10
18.5663
 20
310.139
 30
0.0
 11
18.423
 21
310.592
 31
0.0
  0
LINE
  8
0
 62
     254
 10
18.423
 20
310.592
 30
0.0
 11
18.0647
 21
312.586
 31
0.0
  0
LINE
  8
0
 62
     254
 10
18.0647
 20
312.586
 30
0.0
 11
18.124
 21
314.242
 31
0.0
  0
LINE
  8
0
 62
     254
 10
18.124
 20
314.242
 30
0.0
 11
18.1915
 21
314.525
 31
0.0
  0
LINE
  8
0
 62
     254
 10
18.1915
 20
314.525
 30
0.0
 11
18.0992
 21
314.861
 31
0.0
  0
LINE
  8
0
 62
     254
 10
18.0992
 20
314.861
 30
0.0
 11
18.0096
 21
315.918
 31
0.0
  0
LINE
  8
0
 62
     254
 10
18.0096
 20
315.918
 30
0.0
 11
18.2356
 21
317.095
 31
0.0
  0
LINE
  8
0
 62
     254
 10
18.2356
 20
317.095
 30
0.0
 11
18.7909
 21
318.064
 31
0.0
  0
LINE
  8
0
 62
     254
 10
18.7909
 20
318.064
 30
0.0
 11
19.3766
 21
318.667
 31
0.0
  0
LINE
  8
0
 62
     254
 10
19.3766
 20
318.667
 30
0.0
 11
19.5998
 21
318.83
 31
0.0
  0
LINE
  8
0
 62
     254
 10
19.5998
 20
318.83
 30
0.0
 11
19.5158
 21
318.941
 31
0.0
  0
LINE
  8
0
 62
     254
 10
19.5158
 20
318.941
 30
0.0
 11
19.3132
 21
319.475
 31
0.0
  0
LINE
  8
0
 62
     254
 10
19.3132
 20
319.475
 30
0.0
 11
19.4689
 21
319.997
 31
0.0
  0
LINE
  8
0
 62
     254
 10
19.4689
 20
319.997
 30
0.0
 11
19.564
 21
320.102
 31
0.0
  0
LINE
  8
0
 62
     254
 10
19.564
 20
320.102
 30
0.0
 11
19.6977
 21
320.251
 31
0.0
  0
LINE
  8
0
 62
     254
 10
19.6977
 20
320.251
 30
0.0
 11
20.2709
 21
320.544
 31
0.0
  0
LINE
  8
0
 62
     254
 10
20.2709
 20
320.544
 30
0.0
 11
21.2576
 21
320.675
 31
0.0
  0
LINE
  8
0
 62
     254
 10
21.2576
 20
320.675
 30
0.0
 11
22.4345
 21
320.508
 31
0.0
  0
LINE
  8
0
 62
     254
 10
22.4345
 20
320.508
 30
0.0
 11
23.4046
 21
320.197
 31
0.0
  0
LINE
  8
0
 62
     254
 10
23.4046
 20
320.197
 30
0.0
 11
23.7133
 21
320.058
 31
0.0
  0
LINE
  8
0
 62
     254
 10
23.7133
 20
320.058
 30
0.0
 11
23.9682
 21
320.053
 31
0.0
  0
LINE
  8
0
 62
     254
 10
23.9682
 20
320.053
 30
0.0
 11
24.7358
 21
319.946
 31
0.0
  0
LINE
  8
0
 62
     254
 10
24.7358
 20
319.946
 30
0.0
 11
25.5213
 21
319.654
 31
0.0
  0
LINE
  8
0
 62
     254
 10
25.5213
 20
319.654
 30
0.0
 11
25.9733
 21
319.191
 31
0.0
  0
LINE
  8
0
 62
     254
 10
25.9733
 20
319.191
 30
0.0
 11
26.038
 21
318.706
 31
0.0
  0
LINE
  8
0
 62
     254
 10
26.038
 20
318.706
 30
0.0
 11
25.9926
 21
318.566
 31
0.0
  0
LINE
  8
0
 62
     254
 10
25.9926
 20
318.566
 30
0.0
 11
26.0656
 21
318.5
 31
0.0
  0
LINE
  8
0
 62
     254
 10
26.0656
 20
318.5
 30
0.0
 11
26.7656
 21
317.781
 31
0.0
  0
LINE
  8
0
 62
     254
 10
26.7656
 20
317.781
 30
0.0
 11
26.8318
 21
317.702
 31
0.0
  0
LINE
  8
0
 62
     254
 10
26.8318
 20
317.702
 30
0.0
 11
27.1666
 21
317.594
 31
0.0
  0
LINE
  8
0
 62
     254
 10
27.1666
 20
317.594
 30
0.0
 11
28.1271
 21
317.118
 31
0.0
  0
LINE
  8
0
 62
     254
 10
28.1271
 20
317.118
 30
0.0
 11
28.9305
 21
316.38
 31
0.0
  0
LINE
  8
0
 62
     254
 10
28.9305
 20
316.38
 30
0.0
 11
29.0739
 21
315.553
 31
0.0
  0
LINE
  8
0
 62
     254
 10
29.0739
 20
315.553
 30
0.0
 11
28.6012
 21
314.858
 31
0.0
  0
LINE
  8
0
 62
     254
 10
28.6012
 20
314.858
 30
0.0
 11
28.389
 21
314.702
 31
0.0
  0
LINE
  8
0
 62
     254
 10
28.389
 20
314.702
 30
0.0
 11
28.422
 21
314.568
 31
0.0
  0
LINE
  8
0
 62
     254
 10
28.422
 20
314.568
 30
0.0
 11
28.597
 21
313.377
 31
0.0
  0
LINE
  8
0
 62
     254
 10
28.597
 20
313.377
 30
0.0
 11
28.597
 21
312.98
 31
0.0
  0
LINE
  8
0
 62
     254
 10
28.597
 20
312.98
 30
0.0
 11
28.597
 21
312.8
 31
0.0
  0
LINE
  8
0
 62
     254
 10
28.597
 20
312.8
 30
0.0
 11
28.677
 21
312.258
 31
0.0
  0
LINE
  8
0
 62
     254
 10
28.677
 20
312.258
 30
0.0
 11
28.8548
 21
311.781
 31
0.0
  0
LINE
  8
0
 62
     254
 10
28.8548
 20
311.781
 30
0.0
 11
28.9044
 21
311.7
 31
0.0
  0
LINE
  8
0
 62
     254
 10
28.9044
 20
311.7
 30
0.0
 11
29.1207
 21
311.85
 31
0.0
  0
LINE
  8
0
 62
     254
 10
29.1207
 20
311.85
 30
0.0
 11
30.1597
 21
312.416
 31
0.0
  0
LINE
  8
0
 62
     254
 10
30.1597
 20
312.416
 30
0.0
 11
31.134
 21
312.76
 31
0.0
  0
LINE
  8
0
 62
     254
 10
31.134
 20
312.76
 30
0.0
 11
31.3187
 21
312.797
 31
0.0
  0
LINE
  8
0
 62
     254
 10
31.3187
 20
312.797
 30
0.0
 11
31.5847
 21
313.009
 31
0.0
  0
LINE
  8
0
 62
     254
 10
31.5847
 20
313.009
 30
0.0
 11
32.3605
 21
313.68
 31
0.0
  0
LINE
  8
0
 62
     254
 10
32.3605
 20
313.68
 30
0.0
 11
33.2273
 21
314.376
 31
0.0
  0
LINE
  8
0
 62
     254
 10
33.2273
 20
314.376
 30
0.0
 11
33.9549
 21
314.674
 31
0.0
  0
LINE
  8
0
 62
     254
 10
33.9549
 20
314.674
 30
0.0
 11
34.4758
 21
314.485
 31
0.0
  0
LINE
  8
0
 62
     254
 10
34.4758
 20
314.485
 30
0.0
 11
34.5819
 21
314.362
 31
0.0
  0
LINE
  8
0
 62
     254
 10
34.5819
 20
314.362
 30
0.0
 11
34.6949
 21
314.23
 31
0.0
  0
LINE
  8
0
 62
     254
 10
34.6949
 20
314.23
 30
0.0
 11
34.9512
 21
313.318
 31
0.0
  0
LINE
  8
0
 62
     254
 10
34.9512
 20
313.318
 30
0.0
 11
34.8216
 21
312.16
 31
0.0
  0
LINE
  8
0
 62
     254
 10
34.8216
 20
312.16
 30
0.0
 11
34.7417
 21
311.905
 31
0.0
  0
LINE
  8
0
 62
     254
 10
34.7417
 20
311.905
 30
0.0
 11
34.9595
 21
311.72
 31
0.0
  0
LINE
  8
0
 62
     254
 10
34.9595
 20
311.72
 30
0.0
 11
35.5353
 21
311.07
 31
0.0
  0
LINE
  8
0
 62
     254
 10
35.5353
 20
311.07
 30
0.0
 11
36.1749
 21
310.079
 31
0.0
  0
LINE
  8
0
 62
     254
 10
36.1749
 20
310.079
 30
0.0
 11
36.6571
 21
309.002
 31
0.0
  0
LINE
  8
0
 62
     254
 10
36.6571
 20
309.002
 30
0.0
 11
36.9189
 21
308.18
 31
0.0
  0
LINE
  8
0
 62
     254
 10
36.9189
 20
308.18
 30
0.0
 11
36.981
 21
307.901
 31
0.0
  0
LINE
  8
0
 62
     254
 10
36.981
 20
307.901
 30
0.0
 11
37.1105
 21
307.92
 31
0.0
  0
LINE
  8
0
 62
     254
 10
37.1105
 20
307.92
 30
0.0
 11
37.6633
 21
307.828
 31
0.0
  0
LINE
  8
0
 62
     254
 10
37.6633
 20
307.828
 30
0.0
 11
38.0877
 21
307.439
 31
0.0
  0
LINE
  8
0
 62
     254
 10
38.0877
 20
307.439
 30
0.0
 11
38.1536
 21
307.308
 31
0.0
  0
LINE
  8
0
 62
     254
 10
38.1536
 20
307.308
 30
0.0
 11
38.2379
 21
307.139
 31
0.0
  0
LINE
  8
0
 62
     254
 10
38.2379
 20
307.139
 30
0.0
 11
38.3124
 21
306.142
 31
0.0
  0
LINE
  8
0
 62
     254
 10
38.3124
 20
306.142
 30
0.0
 11
37.9621
 21
305.01
 31
0.0
  0
LINE
  8
0
 62
     254
 10
37.9621
 20
305.01
 30
0.0
 11
37.8354
 21
304.772
 31
0.0
  0
LINE
  8
0
 62
     254
 10
37.8354
 20
304.772
 30
0.0
 11
37.8121
 21
304.482
 31
0.0
  0
LINE
  8
0
 62
     254
 10
37.8121
 20
304.482
 30
0.0
 11
37.495
 21
303.627
 31
0.0
  0
LINE
  8
0
 62
     254
 10
37.495
 20
303.627
 30
0.0
 11
36.7728
 21
302.165
 31
0.0
  0
LINE
  8
0
 62
     254
 10
36.7728
 20
302.165
 30
0.0
 11
35.8771
 21
300.352
 31
0.0
  0
LINE
  8
0
 62
     254
 10
35.8771
 20
300.352
 30
0.0
 11
35.0187
 21
298.152
 31
0.0
  0
LINE
  8
0
 62
     254
 10
35.0187
 20
298.152
 30
0.0
 11
34.4027
 21
295.533
 31
0.0
  0
LINE
  8
0
 62
     254
 10
34.4027
 20
295.533
 30
0.0
 11
34.2401
 21
292.461
 31
0.0
  0
LINE
  8
0
 62
     254
 10
34.2401
 20
292.461
 30
0.0
 11
34.7404
 21
288.9
 31
0.0
  0
LINE
  8
0
 62
     254
 10
34.7404
 20
288.9
 30
0.0
 11
35.6856
 21
285.804
 31
0.0
  0
LINE
  8
0
 62
     254
 10
35.6856
 20
285.804
 30
0.0
 11
36.11
 21
284.818
 31
0.0
  0
LINE
  8
0
 62
     254
 10
36.11
 20
284.818
 30
0.0
 11
36.1763
 21
284.62
 31
0.0
  0
LINE
  8
0
 62
     254
 10
36.1763
 20
284.62
 30
0.0
 11
36.6656
 21
282.76
 31
0.0
  0
LINE
  8
0
 62
     254
 10
36.6656
 20
282.76
 30
0.0
 11
36.697
 21
282.586
 31
0.0
  0
LINE
  8
0
 62
     254
 10
36.697
 20
282.586
 30
0.0
 11
36.8625
 21
282.732
 31
0.0
  0
LINE
  8
0
 62
     254
 10
36.8625
 20
282.732
 30
0.0
 11
37.7321
 21
283.184
 31
0.0
  0
LINE
  8
0
 62
     254
 10
37.7321
 20
283.184
 30
0.0
 11
38.6803
 21
283.185
 31
0.0
  0
LINE
  8
0
 62
     254
 10
38.6803
 20
283.185
 30
0.0
 11
38.8856
 21
283.104
 31
0.0
  0
LINE
  8
0
 62
     254
 10
38.8856
 20
283.104
 30
0.0
 11
39.1859
 21
282.987
 31
0.0
  0
LINE
  8
0
 62
     254
 10
39.1859
 20
282.987
 30
0.0
 11
40.0597
 21
282.553
 31
0.0
  0
LINE
  8
0
 62
     254
 10
40.0597
 20
282.553
 30
0.0
 11
40.7705
 21
282.007
 31
0.0
  0
LINE
  8
0
 62
     254
 10
40.7705
 20
282.007
 30
0.0
 11
41.0767
 21
281.441
 31
0.0
  0
LINE
  8
0
 62
     254
 10
41.0767
 20
281.441
 30
0.0
 11
41.0365
 21
280.833
 31
0.0
  0
LINE
  8
0
 62
     254
 10
41.0365
 20
280.833
 30
0.0
 11
40.7088
 21
280.158
 31
0.0
  0
LINE
  8
0
 62
     254
 10
40.7088
 20
280.158
 30
0.0
 11
40.1546
 21
279.393
 31
0.0
  0
LINE
  8
0
 62
     254
 10
40.1546
 20
279.393
 30
0.0
 11
39.431
 21
278.515
 31
0.0
  0
LINE
  8
0
 62
     254
 10
39.431
 20
278.515
 30
0.0
 11
38.8027
 21
277.756
 31
0.0
  0
LINE
  8
0
 62
     254
 10
38.8027
 20
277.756
 30
0.0
 11
38.5988
 21
277.498
 31
0.0
  0
LINE
  8
0
 62
     254
 10
38.5988
 20
277.498
 30
0.0
 11
38.6415
 21
277.483
 31
0.0
  0
LINE
  8
0
 62
     254
 10
38.6415
 20
277.483
 30
0.0
 11
39.0469
 21
277.216
 31
0.0
  0
LINE
  8
0
 62
     254
 10
39.0469
 20
277.216
 30
0.0
 11
39.0853
 21
277.177
 31
0.0
  0
LINE
  8
0
 62
     254
 10
39.0853
 20
277.177
 30
0.0
 11
39.2395
 21
277.022
 31
0.0
  0
LINE
  8
0
 62
     254
 10
39.2395
 20
277.022
 30
0.0
 11
39.6709
 21
276.516
 31
0.0
  0
LINE
  8
0
 62
     254
 10
39.6709
 20
276.516
 30
0.0
 11
39.9948
 21
275.971
 31
0.0
  0
LINE
  8
0
 62
     254
 10
39.9948
 20
275.971
 30
0.0
 11
40.0801
 21
275.518
 31
0.0
  0
LINE
  8
0
 62
     254
 10
40.0801
 20
275.518
 30
0.0
 11
39.9535
 21
275.134
 31
0.0
  0
LINE
  8
0
 62
     254
 10
39.9535
 20
275.134
 30
0.0
 11
39.6378
 21
274.791
 31
0.0
  0
LINE
  8
0
 62
     254
 10
39.6378
 20
274.791
 30
0.0
 11
39.1583
 21
274.464
 31
0.0
  0
LINE
  8
0
 62
     254
 10
39.1583
 20
274.464
 30
0.0
 11
38.5367
 21
274.132
 31
0.0
  0
LINE
  8
0
 62
     254
 10
38.5367
 20
274.132
 30
0.0
 11
37.9843
 21
273.858
 31
0.0
  0
LINE
  8
0
 62
     254
 10
37.9843
 20
273.858
 30
0.0
 11
37.8008
 21
273.766
 31
0.0
  0
LINE
  8
0
 62
     254
 10
37.8008
 20
273.766
 30
0.0
 11
37.8672
 21
273.567
 31
0.0
  0
LINE
  8
0
 62
     254
 10
37.8672
 20
273.567
 30
0.0
 11
37.9056
 21
272.908
 31
0.0
  0
LINE
  8
0
 62
     254
 10
37.9056
 20
272.908
 30
0.0
 11
37.568
 21
272.211
 31
0.0
  0
LINE
  8
0
 62
     254
 10
37.568
 20
272.211
 30
0.0
 11
36.733
 21
271.734
 31
0.0
  0
LINE
  8
0
 62
     254
 10
36.733
 20
271.734
 30
0.0
 11
35.6912
 21
271.544
 31
0.0
  0
LINE
  8
0
 62
     254
 10
35.6912
 20
271.544
 30
0.0
 11
35.3441
 21
271.534
 31
0.0
  0
LINE
  8
0
 62
     254
 10
35.3441
 20
271.534
 30
0.0
 11
35.3261
 21
271.478
 31
0.0
  0
LINE
  8
0
 62
     254
 10
35.3261
 20
271.478
 30
0.0
 11
35.1607
 21
270.886
 31
0.0
  0
LINE
  8
0
 62
     254
 10
35.1607
 20
270.886
 30
0.0
 11
35.1455
 21
270.826
 31
0.0
  0
LINE
  8
0
 62
     254
 10
35.1455
 20
270.826
 30
0.0
 11
35.7382
 21
270.845
 31
0.0
  0
LINE
  8
0
 62
     254
 10
35.7382
 20
270.845
 30
0.0
 11
37.5363
 21
270.275
 31
0.0
  0
LINE
  8
0
 62
     254
 10
37.5363
 20
270.275
 30
0.0
 11
39.0275
 21
268.726
 31
0.0
  0
LINE
  8
0
 62
     254
 10
39.0275
 20
268.726
 30
0.0
 11
39.7454
 21
266.619
 31
0.0
  0
LINE
  8
0
 62
     254
 10
39.7454
 20
266.619
 30
0.0
 11
39.8734
 21
264.938
 31
0.0
  0
LINE
  8
0
 62
     254
 10
39.8734
 20
264.938
 30
0.0
 11
39.8226
 21
264.386
 31
0.0
  0
LINE
  8
0
 62
     254
 10
39.8226
 20
264.386
 30
0.0
 11
39.8336
 21
264.384
 31
0.0
  0
LINE
  8
0
 62
     254
 10
39.8336
 20
264.384
 30
0.0
 11
39.9478
 21
264.341
 31
0.0
  0
LINE
  8
0
 62
     254
 10
39.9478
 20
264.341
 30
0.0
 11
39.9602
 21
264.335
 31
0.0
  0
LINE
  8
0
 62
     254
 10
39.9602
 20
264.335
 30
0.0
 11
40.2223
 21
264.229
 31
0.0
  0
LINE
  8
0
 62
     254
 10
40.2223
 20
264.229
 30
0.0
 11
41.2351
 21
263.711
 31
0.0
  0
LINE
  8
0
 62
     254
 10
41.2351
 20
263.711
 30
0.0
 11
41.8814
 21
263.198
 31
0.0
  0
LINE
  8
0
 62
     254
 10
41.8814
 20
263.198
 30
0.0
 11
41.9612
 21
263.094
 31
0.0
  0
LINE
  8
0
 62
     254
 10
41.9612
 20
263.094
 30
0.0
 11
42.9094
 21
263.122
 31
0.0
  0
LINE
  8
0
 62
     254
 10
42.9094
 20
263.122
 30
0.0
 11
45.7757
 21
262.596
 31
0.0
  0
LINE
  8
0
 62
     254
 10
45.7757
 20
262.596
 30
0.0
 11
48.3665
 21
261.025
 31
0.0
  0
LINE
  8
0
 62
     254
 10
48.3665
 20
261.025
 30
0.0
 11
49.8934
 21
258.67
 31
0.0
  0
LINE
  8
0
 62
     254
 10
49.8934
 20
258.67
 30
0.0
 11
50.5217
 21
255.816
 31
0.0
  0
LINE
  8
0
 62
     254
 10
50.5217
 20
255.816
 30
0.0
 11
50.4102
 21
252.754
 31
0.0
  0
LINE
  8
0
 62
     254
 10
50.4102
 20
252.754
 30
0.0
 11
49.7223
 21
249.768
 31
0.0
  0
LINE
  8
0
 62
     254
 10
49.7223
 20
249.768
 30
0.0
 11
48.6212
 21
247.147
 31
0.0
  0
LINE
  8
0
 62
     254
 10
48.6212
 20
247.147
 30
0.0
 11
47.6677
 21
245.613
 31
0.0
  0
LINE
  8
0
 62
     254
 10
47.6677
 20
245.613
 30
0.0
 11
47.268
 21
245.178
 31
0.0
  0
LINE
  8
0
 62
     254
 10
47.268
 20
245.178
 30
0.0
 11
47.4278
 21
245.182
 31
0.0
  0
LINE
  8
0
 62
     254
 10
47.4278
 20
245.182
 30
0.0
 11
48.7659
 21
245.203
 31
0.0
  0
LINE
  8
0
 62
     254
 10
48.7659
 20
245.203
 30
0.0
 11
49.2125
 21
245.203
 31
0.0
  0
LINE
  8
0
 62
     254
 10
49.2125
 20
245.203
 30
0.0
 11
50.5051
 21
245.203
 31
0.0
  0
LINE
  8
0
 62
     254
 10
50.5051
 20
245.203
 30
0.0
 11
53.9708
 21
245.047
 31
0.0
  0
LINE
  8
0
 62
     254
 10
53.9708
 20
245.047
 30
0.0
 11
54.387
 21
245.015
 31
0.0
  0
LINE
  8
0
 62
     254
 10
54.387
 20
245.015
 30
0.0
 11
54.4491
 21
245.36
 31
0.0
  0
LINE
  8
0
 62
     254
 10
54.4491
 20
245.36
 30
0.0
 11
54.7123
 21
246.378
 31
0.0
  0
LINE
  8
0
 62
     254
 10
54.7123
 20
246.378
 30
0.0
 11
55.1575
 21
247.622
 31
0.0
  0
LINE
  8
0
 62
     254
 10
55.1575
 20
247.622
 30
0.0
 11
55.6976
 21
248.695
 31
0.0
  0
LINE
  8
0
 62
     254
 10
55.6976
 20
248.695
 30
0.0
 11
56.1344
 21
249.348
 31
0.0
  0
LINE
  8
0
 62
     254
 10
56.1344
 20
249.348
 30
0.0
 11
56.3065
 21
249.542
 31
0.0
  0
LINE
  8
0
 62
     254
 10
56.3065
 20
249.542
 30
0.0
 11
56.472
 21
249.932
 31
0.0
  0
LINE
  8
0
 62
     254
 10
56.472
 20
249.932
 30
0.0
 11
57.5691
 21
251.875
 31
0.0
  0
LINE
  8
0
 62
     254
 10
57.5691
 20
251.875
 30
0.0
 11
59.0173
 21
253.734
 31
0.0
  0
LINE
  8
0
 62
     254
 10
59.0173
 20
253.734
 30
0.0
 11
59.3591
 21
254.081
 31
0.0
  0
LINE
  8
0
 62
     254
 10
59.3591
 20
254.081
 30
0.0
 11
59.0338
 21
254.45
 31
0.0
  0
LINE
  8
0
 62
     254
 10
59.0338
 20
254.45
 30
0.0
 11
58.1671
 21
255.652
 31
0.0
  0
LINE
  8
0
 62
     254
 10
58.1671
 20
255.652
 30
0.0
 11
57.252
 21
257.298
 31
0.0
  0
LINE
  8
0
 62
     254
 10
57.252
 20
257.298
 30
0.0
 11
56.6568
 21
258.887
 31
0.0
  0
LINE
  8
0
 62
     254
 10
56.6568
 20
258.887
 30
0.0
 11
56.4293
 21
260.291
 31
0.0
  0
LINE
  8
0
 62
     254
 10
56.4293
 20
260.291
 30
0.0
 11
56.6127
 21
261.377
 31
0.0
  0
LINE
  8
0
 62
     254
 10
56.6127
 20
261.377
 30
0.0
 11
57.252
 21
262.013
 31
0.0
  0
LINE
  8
0
 62
     254
 10
57.252
 20
262.013
 30
0.0
 11
58.3918
 21
262.073
 31
0.0
  0
LINE
  8
0
 62
     254
 10
58.3918
 20
262.073
 30
0.0
 11
59.6815
 21
261.63
 31
0.0
  0
LINE
  8
0
 62
     254
 10
59.6815
 20
261.63
 30
0.0
 11
60.0784
 21
261.419
 31
0.0
  0
LINE
  8
0
 62
     254
 10
60.0784
 20
261.419
 30
0.0
 11
60.1624
 21
261.159
 31
0.0
  0
LINE
  8
0
 62
     254
 10
60.1624
 20
261.159
 30
0.0
 11
60.9794
 21
259.801
 31
0.0
  0
LINE
  8
0
 62
     254
 10
60.9794
 20
259.801
 30
0.0
 11
62.1979
 21
258.527
 31
0.0
  0
LINE
  8
0
 62
     254
 10
62.1979
 20
258.527
 30
0.0
 11
62.4815
 21
258.308
 31
0.0
  0
LINE
  8
0
 62
     254
 10
62.4815
 20
258.308
 30
0.0
 11
62.5948
 21
258.429
 31
0.0
  0
LINE
  8
0
 62
     254
 10
62.5948
 20
258.429
 30
0.0
 11
63.912
 21
259.544
 31
0.0
  0
LINE
  8
0
 62
     254
 10
63.912
 20
259.544
 30
0.0
 11
64.0609
 21
259.643
 31
0.0
  0
LINE
  8
0
 62
     254
 10
64.0609
 20
259.643
 30
0.0
 11
63.6764
 21
259.892
 31
0.0
  0
LINE
  8
0
 62
     254
 10
63.6764
 20
259.892
 30
0.0
 11
61.4938
 21
261.053
 31
0.0
  0
LINE
  8
0
 62
     254
 10
61.4938
 20
261.053
 30
0.0
 11
58.9305
 21
262.081
 31
0.0
  0
LINE
  8
0
 62
     254
 10
58.9305
 20
262.081
 30
0.0
 11
58.3572
 21
262.263
 31
0.0
  0
LINE
  8
0
 62
     254
 10
58.3572
 20
262.263
 30
0.0
 11
57.6199
 21
262.566
 31
0.0
  0
LINE
  8
0
 62
     254
 10
57.6199
 20
262.566
 30
0.0
 11
55.5255
 21
263.756
 31
0.0
  0
LINE
  8
0
 62
     254
 10
55.5255
 20
263.756
 30
0.0
 11
53.6663
 21
265.438
 31
0.0
  0
LINE
  8
0
 62
     254
 10
53.6663
 20
265.438
 30
0.0
 11
52.6577
 21
267.244
 31
0.0
  0
LINE
  8
0
 62
     254
 10
52.6577
 20
267.244
 30
0.0
 11
52.3752
 21
269.112
 31
0.0
  0
LINE
  8
0
 62
     254
 10
52.3752
 20
269.112
 30
0.0
 11
52.699
 21
270.973
 31
0.0
  0
LINE
  8
0
 62
     254
 10
52.699
 20
270.973
 30
0.0
 11
53.5051
 21
272.765
 31
0.0
  0
LINE
  8
0
 62
     254
 10
53.5051
 20
272.765
 30
0.0
 11
54.6735
 21
274.421
 31
0.0
  0
LINE
  8
0
 62
     254
 10
54.6735
 20
274.421
 30
0.0
 11
55.7057
 21
275.542
 31
0.0
  0
LINE
  8
0
 62
     254
 10
55.7057
 20
275.542
 30
0.0
 11
56.0821
 21
275.879
 31
0.0
  0
LINE
  8
0
 62
     254
 10
56.0821
 20
275.879
 30
0.0
 11
55.9978
 21
276.083
 31
0.0
  0
LINE
  8
0
 62
     254
 10
55.9978
 20
276.083
 30
0.0
 11
55.3847
 21
278.132
 31
0.0
  0
LINE
  8
0
 62
     254
 10
55.3847
 20
278.132
 30
0.0
 11
55.3462
 21
278.334
 31
0.0
  0
LINE
  8
0
 62
     254
 10
55.3462
 20
278.334
 30
0.0
 11
55.1586
 21
278.269
 31
0.0
  0
LINE
  8
0
 62
     254
 10
55.1586
 20
278.269
 30
0.0
 11
54.2396
 21
278.186
 31
0.0
  0
LINE
  8
0
 62
     254
 10
54.2396
 20
278.186
 30
0.0
 11
53.3439
 21
278.485
 31
0.0
  0
LINE
  8
0
 62
     254
 10
53.3439
 20
278.485
 30
0.0
 11
53.1689
 21
278.61
 31
0.0
  0
LINE
  8
0
 62
     254
 10
53.1689
 20
278.61
 30
0.0
 11
52.783
 21
278.886
 31
0.0
  0
LINE
  8
0
 62
     254
 10
52.783
 20
278.886
 30
0.0
 11
51.7179
 21
279.841
 31
0.0
  0
LINE
  8
0
 62
     254
 10
51.7179
 20
279.841
 30
0.0
 11
51.1044
 21
280.861
 31
0.0
  0
LINE
  8
0
 62
     254
 10
51.1044
 20
280.861
 30
0.0
 11
51.2025
 21
281.759
 31
0.0
  0
LINE
  8
0
 62
     254
 10
51.2025
 20
281.759
 30
0.0
 11
51.8844
 21
282.63
 31
0.0
  0
LINE
  8
0
 62
     254
 10
51.8844
 20
282.63
 30
0.0
 11
53.0271
 21
283.563
 31
0.0
  0
LINE
  8
0
 62
     254
 10
53.0271
 20
283.563
 30
0.0
 11
54.5028
 21
284.65
 31
0.0
  0
LINE
  8
0
 62
     254
 10
54.5028
 20
284.65
 30
0.0
 11
56.1841
 21
285.981
 31
0.0
  0
LINE
  8
0
 62
     254
 10
56.1841
 20
285.981
 30
0.0
 11
57.5317
 21
287.209
 31
0.0
  0
LINE
  8
0
 62
     254
 10
57.5317
 20
287.209
 30
0.0
 11
57.948
 21
287.649
 31
0.0
  0
LINE
  8
0
 62
     254
 10
57.948
 20
287.649
 30
0.0
 11
57.8418
 21
287.85
 31
0.0
  0
LINE
  8
0
 62
     254
 10
57.8418
 20
287.85
 30
0.0
 11
57.1045
 21
289.727
 31
0.0
  0
LINE
  8
0
 62
     254
 10
57.1045
 20
289.727
 30
0.0
 11
57.0618
 21
289.902
 31
0.0
  0
LINE
  8
0
 62
     254
 10
57.0618
 20
289.902
 30
0.0
 11
56.6085
 21
289.941
 31
0.0
  0
LINE
  8
0
 62
     254
 10
56.6085
 20
289.941
 30
0.0
 11
55.2538
 21
290.116
 31
0.0
  0
LINE
  8
0
 62
     254
 10
55.2538
 20
290.116
 30
0.0
 11
53.7256
 21
290.52
 31
0.0
  0
LINE
  8
0
 62
     254
 10
53.7256
 20
290.52
 30
0.0
 11
52.6288
 21
291.251
 31
0.0
  0
LINE
  8
0
 62
     254
 10
52.6288
 20
291.251
 30
0.0
 11
52.1533
 21
292.137
 31
0.0
  0
LINE
  8
0
 62
     254
 10
52.1533
 20
292.137
 30
0.0
 11
52.1187
 21
292.446
 31
0.0
  0
LINE
  8
0
 62
     254
 10
52.1187
 20
292.446
 30
0.0
 11
52.0746
 21
292.83
 31
0.0
  0
LINE
  8
0
 62
     254
 10
52.0746
 20
292.83
 30
0.0
 11
52.0442
 21
293.995
 31
0.0
  0
LINE
  8
0
 62
     254
 10
52.0442
 20
293.995
 30
0.0
 11
52.2305
 21
295.038
 31
0.0
  0
LINE
  8
0
 62
     254
 10
52.2305
 20
295.038
 30
0.0
 11
52.6658
 21
295.658
 31
0.0
  0
LINE
  8
0
 62
     254
 10
52.6658
 20
295.658
 30
0.0
 11
53.3439
 21
295.934
 31
0.0
  0
LINE
  8
0
 62
     254
 10
53.3439
 20
295.934
 30
0.0
 11
54.2533
 21
295.945
 31
0.0
  0
LINE
  8
0
 62
     254
 10
54.2533
 20
295.945
 30
0.0
 11
55.3875
 21
295.771
 31
0.0
  0
LINE
  8
0
 62
     254
 10
55.3875
 20
295.771
 30
0.0
 11
56.7394
 21
295.493
 31
0.0
  0
LINE
  8
0
 62
     254
 10
56.7394
 20
295.493
 30
0.0
 11
57.9067
 21
295.258
 31
0.0
  0
LINE
  8
0
 62
     254
 10
57.9067
 20
295.258
 30
0.0
 11
58.2979
 21
295.19
 31
0.0
  0
LINE
  8
0
 62
     254
 10
58.2979
 20
295.19
 30
0.0
 11
58.3269
 21
295.223
 31
0.0
  0
LINE
  8
0
 62
     254
 10
58.3269
 20
295.223
 30
0.0
 11
58.637
 21
295.534
 31
0.0
  0
LINE
  8
0
 62
     254
 10
58.637
 20
295.534
 30
0.0
 11
58.6701
 21
295.564
 31
0.0
  0
LINE
  8
0
 62
     254
 10
58.6701
 20
295.564
 30
0.0
 11
58.251
 21
295.637
 31
0.0
  0
LINE
  8
0
 62
     254
 10
58.251
 20
295.637
 30
0.0
 11
57.041
 21
296.117
 31
0.0
  0
LINE
  8
0
 62
     254
 10
57.041
 20
296.117
 30
0.0
 11
55.8214
 21
297.071
 31
0.0
  0
LINE
  8
0
 62
     254
 10
55.8214
 20
297.071
 30
0.0
 11
54.9727
 21
298.333
 31
0.0
  0
LINE
  8
0
 62
     254
 10
54.9727
 20
298.333
 30
0.0
 11
54.4558
 21
299.811
 31
0.0
  0
LINE
  8
0
 62
     254
 10
54.4558
 20
299.811
 30
0.0
 11
54.2315
 21
301.412
 31
0.0
  0
LINE
  8
0
 62
     254
 10
54.2315
 20
301.412
 30
0.0
 11
54.2629
 21
303.043
 31
0.0
  0
LINE
  8
0
 62
     254
 10
54.2629
 20
303.043
 30
0.0
 11
54.5112
 21
304.61
 31
0.0
  0
LINE
  8
0
 62
     254
 10
54.5112
 20
304.61
 30
0.0
 11
54.8058
 21
305.679
 31
0.0
  0
LINE
  8
0
 62
     254
 10
54.8058
 20
305.679
 30
0.0
 11
54.9381
 21
306.021
 31
0.0
  0
LINE
  8
0
 62
     254
 10
54.9381
 20
306.021
 30
0.0
 11
54.9921
 21
306.532
 31
0.0
  0
LINE
  8
0
 62
     254
 10
54.9921
 20
306.532
 30
0.0
 11
55.5142
 21
308.027
 31
0.0
  0
LINE
  8
0
 62
     254
 10
55.5142
 20
308.027
 30
0.0
 11
56.6579
 21
309.875
 31
0.0
  0
LINE
  8
0
 62
     254
 10
56.6579
 20
309.875
 30
0.0
 11
58.141
 21
311.433
 31
0.0
  0
LINE
  8
0
 62
     254
 10
58.141
 20
311.433
 30
0.0
 11
59.7366
 21
312.569
 31
0.0
  0
LINE
  8
0
 62
     254
 10
59.7366
 20
312.569
 30
0.0
 11
61.2165
 21
313.152
 31
0.0
  0
LINE
  8
0
 62
     254
 10
61.2165
 20
313.152
 30
0.0
 11
62.3563
 21
313.052
 31
0.0
  0
LINE
  8
0
 62
     254
 10
62.3563
 20
313.052
 30
0.0
 11
62.9281
 21
312.134
 31
0.0
  0
LINE
  8
0
 62
     254
 10
62.9281
 20
312.134
 30
0.0
 11
62.8357
 21
310.712
 31
0.0
  0
LINE
  8
0
 62
     254
 10
62.8357
 20
310.712
 30
0.0
 11
62.7063
 21
310.267
 31
0.0
  0
LINE
  8
0
 62
     254
 10
62.7063
 20
310.267
 30
0.0
 11
62.6043
 21
310.21
 31
0.0
  0
LINE
  8
0
 62
     254
 10
62.6043
 20
310.21
 30
0.0
 11
61.6066
 21
309.352
 31
0.0
  0
LINE
  8
0
 62
     254
 10
61.6066
 20
309.352
 30
0.0
 11
61.5128
 21
309.241
 31
0.0
  0
LINE
  8
0
 62
     254
 10
61.5128
 20
309.241
 30
0.0
 11
61.5446
 21
309.217
 31
0.0
  0
LINE
  8
0
 62
     254
 10
61.5446
 20
309.217
 30
0.0
 11
61.8793
 21
308.916
 31
0.0
  0
LINE
  8
0
 62
     254
 10
61.8793
 20
308.916
 30
0.0
 11
61.9153
 21
308.882
 31
0.0
  0
LINE
  8
0
 62
     254
 10
61.9153
 20
308.882
 30
0.0
 11
61.9153
 21
308.642
 31
0.0
  0
LINE
  8
0
 62
     254
 10
61.9153
 20
308.642
 30
0.0
 11
62.0931
 21
307.92
 31
0.0
  0
LINE
  8
0
 62
     254
 10
62.0931
 20
307.92
 30
0.0
 11
62.5782
 21
306.9
 31
0.0
  0
LINE
  8
0
 62
     254
 10
62.5782
 20
306.9
 30
0.0
 11
63.2975
 21
305.992
 31
0.0
  0
LINE
  8
0
 62
     254
 10
63.2975
 20
305.992
 30
0.0
 11
63.9382
 21
305.477
 31
0.0
  0
LINE
  8
0
 62
     254
 10
63.9382
 20
305.477
 30
0.0
 11
64.1809
 21
305.365
 31
0.0
  0
LINE
  8
0
 62
     254
 10
64.1809
 20
305.365
 30
0.0
 11
64.3283
 21
305.839
 31
0.0
  0
LINE
  8
0
 62
     254
 10
64.3283
 20
305.839
 30
0.0
 11
64.9249
 21
307.213
 31
0.0
  0
LINE
  8
0
 62
     254
 10
64.9249
 20
307.213
 30
0.0
 11
65.8509
 21
308.664
 31
0.0
  0
LINE
  8
0
 62
     254
 10
65.8509
 20
308.664
 30
0.0
 11
66.9301
 21
309.75
 31
0.0
  0
LINE
  8
0
 62
     254
 10
66.9301
 20
309.75
 30
0.0
 11
67.8173
 21
310.349
 31
0.0
  0
LINE
  8
0
 62
     254
 10
67.8173
 20
310.349
 30
0.0
 11
68.1373
 21
310.499
 31
0.0
  0
LINE
  8
0
 62
     254
 10
68.1373
 20
310.499
 30
0.0
 11
68.1743
 21
310.976
 31
0.0
  0
LINE
  8
0
 62
     254
 10
68.1743
 20
310.976
 30
0.0
 11
68.0145
 21
312.429
 31
0.0
  0
LINE
  8
0
 62
     254
 10
68.0145
 20
312.429
 30
0.0
 11
67.4275
 21
314.013
 31
0.0
  0
LINE
  8
0
 62
     254
 10
67.4275
 20
314.013
 30
0.0
 11
66.5469
 21
315.307
 31
0.0
  0
LINE
  8
0
 62
     254
 10
66.5469
 20
315.307
 30
0.0
 11
65.5479
 21
316.364
 31
0.0
  0
LINE
  8
0
 62
     254
 10
65.5479
 20
316.364
 30
0.0
 11
64.601
 21
317.24
 31
0.0
  0
LINE
  8
0
 62
     254
 10
64.601
 20
317.24
 30
0.0
 11
63.8803
 21
317.986
 31
0.0
  0
LINE
  8
0
 62
     254
 10
63.8803
 20
317.986
 30
0.0
 11
63.5564
 21
318.657
 31
0.0
  0
LINE
  8
0
 62
     254
 10
63.5564
 20
318.657
 30
0.0
 11
63.6958
 21
319.188
 31
0.0
  0
LINE
  8
0
 62
     254
 10
63.6958
 20
319.188
 30
0.0
 11
63.8044
 21
319.308
 31
0.0
  0
LINE
  8
0
 62
     254
 10
63.8044
 20
319.308
 30
0.0
 11
63.9547
 21
319.476
 31
0.0
  0
LINE
  8
0
 62
     254
 10
63.9547
 20
319.476
 30
0.0
 11
64.6218
 21
319.784
 31
0.0
  0
LINE
  8
0
 62
     254
 10
64.6218
 20
319.784
 30
0.0
 11
65.7793
 21
319.867
 31
0.0
  0
LINE
  8
0
 62
     254
 10
65.7793
 20
319.867
 30
0.0
 11
67.1477
 21
319.578
 31
0.0
  0
LINE
  8
0
 62
     254
 10
67.1477
 20
319.578
 30
0.0
 11
68.2569
 21
319.129
 31
0.0
  0
LINE
  8
0
 62
     254
 10
68.2569
 20
319.129
 30
0.0
 11
68.6029
 21
318.936
 31
0.0
  0
LINE
  8
0
 62
     254
 10
68.6029
 20
318.936
 30
0.0
 11
69.0051
 21
318.867
 31
0.0
  0
LINE
  8
0
 62
     254
 10
69.0051
 20
318.867
 30
0.0
 11
70.1601
 21
318.328
 31
0.0
  0
LINE
  8
0
 62
     254
 10
70.1601
 20
318.328
 30
0.0
 11
71.7585
 21
317.084
 31
0.0
  0
LINE
  8
0
 62
     254
 10
71.7585
 20
317.084
 30
0.0
 11
73.2289
 21
315.31
 31
0.0
  0
LINE
  8
0
 62
     254
 10
73.2289
 20
315.31
 30
0.0
 11
74.1729
 21
313.687
 31
0.0
  0
LINE
  8
0
 62
     254
 10
74.1729
 20
313.687
 30
0.0
 11
74.41
 21
313.112
 31
0.0
  0
LINE
  8
0
 62
     254
 10
74.41
 20
313.112
 30
0.0
 11
74.4721
 21
313.33
 31
0.0
  0
LINE
  8
0
 62
     254
 10
74.4721
 20
313.33
 30
0.0
 11
74.7021
 21
313.971
 31
0.0
  0
LINE
  8
0
 62
     254
 10
74.7021
 20
313.971
 30
0.0
 11
75.0686
 21
314.601
 31
0.0
  0
LINE
  8
0
 62
     254
 10
75.0686
 20
314.601
 30
0.0
 11
75.5608
 21
314.949
 31
0.0
  0
LINE
  8
0
 62
     254
 10
75.5608
 20
314.949
 30
0.0
 11
76.0748
 21
315.002
 31
0.0
  0
LINE
  8
0
 62
     254
 10
76.0748
 20
315.002
 30
0.0
 11
76.236
 21
314.967
 31
0.0
  0
LINE
  8
0
 62
     254
 10
76.236
 20
314.967
 30
0.0
 11
76.5044
 21
314.912
 31
0.0
  0
LINE
  8
0
 62
     254
 10
76.5044
 20
314.912
 30
0.0
 11
77.2432
 21
314.417
 31
0.0
  0
LINE
  8
0
 62
     254
 10
77.2432
 20
314.417
 30
0.0
 11
78.0426
 21
313.307
 31
0.0
  0
LINE
  8
0
 62
     254
 10
78.0426
 20
313.307
 30
0.0
 11
78.5883
 21
311.759
 31
0.0
  0
LINE
  8
0
 62
     254
 10
78.5883
 20
311.759
 30
0.0
 11
78.8169
 21
310.366
 31
0.0
  0
LINE
  8
0
 62
     254
 10
78.8169
 20
310.366
 30
0.0
 11
78.8363
 21
309.899
 31
0.0
  0
LINE
  8
0
 62
     254
 10
78.8363
 20
309.899
 30
0.0
 11
78.9919
 21
309.888
 31
0.0
  0
LINE
  8
0
 62
     254
 10
78.9919
 20
309.888
 30
0.0
 11
79.459
 21
309.815
 31
0.0
  0
LINE
  8
0
 62
     254
 10
79.459
 20
309.815
 30
0.0
 11
79.9772
 21
309.636
 31
0.0
  0
LINE
  8
0
 62
     254
 10
79.9772
 20
309.636
 30
0.0
 11
80.3617
 21
309.335
 31
0.0
  0
LINE
  8
0
 62
     254
 10
80.3617
 20
309.335
 30
0.0
 11
80.5561
 21
309.002
 31
0.0
  0
LINE
  8
0
 62
     254
 10
80.5561
 20
309.002
 30
0.0
 11
80.5864
 21
308.882
 31
0.0
  0
LINE
  8
0
 62
     254
 10
80.5864
 20
308.882
 30
0.0
 11
80.6319
 21
308.696
 31
0.0
  0
LINE
  8
0
 62
     254
 10
80.6319
 20
308.696
 30
0.0
 11
80.7226
 21
308.121
 31
0.0
  0
LINE
  8
0
 62
     254
 10
80.7226
 20
308.121
 30
0.0
 11
80.7036
 21
307.58
 31
0.0
  0
LINE
  8
0
 62
     254
 10
80.7036
 20
307.58
 30
0.0
 11
80.5353
 21
307.225
 31
0.0
  0
LINE
  8
0
 62
     254
 10
80.5353
 20
307.225
 30
0.0
 11
80.3106
 21
307.053
 31
0.0
  0
LINE
  8
0
 62
     254
 10
80.3106
 20
307.053
 30
0.0
 11
80.2266
 21
307.021
 31
0.0
  0
LINE
  8
0
 62
     254
 10
80.2266
 20
307.021
 30
0.0
 11
80.5187
 21
306.748
 31
0.0
  0
LINE
  8
0
 62
     254
 10
80.5187
 20
306.748
 30
0.0
 11
81.3319
 21
305.853
 31
0.0
  0
LINE
  8
0
 62
     254
 10
81.3319
 20
305.853
 30
0.0
 11
82.138
 21
304.702
 31
0.0
  0
LINE
  8
0
 62
     254
 10
82.138
 20
304.702
 30
0.0
 11
82.5885
 21
303.627
 31
0.0
  0
LINE
  8
0
 62
     254
 10
82.5885
 20
303.627
 30
0.0
 11
82.6795
 21
302.912
 31
0.0
  0
LINE
  8
0
 62
     254
 10
82.6795
 20
302.912
 30
0.0
 11
82.6325
 21
302.689
 31
0.0
  0
LINE
  8
0
 62
     254
 10
82.6325
 20
302.689
 30
0.0
 11
83.0545
 21
302.67
 31
0.0
  0
LINE
  8
0
 62
     254
 10
83.0545
 20
302.67
 30
0.0
 11
84.3111
 21
302.377
 31
0.0
  0
LINE
  8
0
 62
     254
 10
84.3111
 20
302.377
 30
0.0
 11
85.7582
 21
301.657
 31
0.0
  0
LINE
  8
0
 62
     254
 10
85.7582
 20
301.657
 30
0.0
 11
86.9819
 21
300.596
 31
0.0
  0
LINE
  8
0
 62
     254
 10
86.9819
 20
300.596
 30
0.0
 11
87.9891
 21
299.266
 31
0.0
  0
LINE
  8
0
 62
     254
 10
87.9891
 20
299.266
 30
0.0
 11
88.7857
 21
297.736
 31
0.0
  0
LINE
  8
0
 62
     254
 10
88.7857
 20
297.736
 30
0.0
 11
89.3794
 21
296.078
 31
0.0
  0
LINE
  8
0
 62
     254
 10
89.3794
 20
296.078
 30
0.0
 11
89.7763
 21
294.363
 31
0.0
  0
LINE
  8
0
 62
     254
 10
89.7763
 20
294.363
 30
0.0
 11
89.9844
 21
292.66
 31
0.0
  0
LINE
  8
0
 62
     254
 10
89.9844
 20
292.66
 30
0.0
 11
90.0095
 21
291.039
 31
0.0
  0
LINE
  8
0
 62
     254
 10
90.0095
 20
291.039
 30
0.0
 11
89.8578
 21
289.571
 31
0.0
  0
LINE
  8
0
 62
     254
 10
89.8578
 20
289.571
 30
0.0
 11
89.5382
 21
288.326
 31
0.0
  0
LINE
  8
0
 62
     254
 10
89.5382
 20
288.326
 30
0.0
 11
89.0556
 21
287.375
 31
0.0
  0
LINE
  8
0
 62
     254
 10
89.0556
 20
287.375
 30
0.0
 11
88.4192
 21
286.788
 31
0.0
  0
LINE
  8
0
 62
     254
 10
88.4192
 20
286.788
 30
0.0
 11
87.6335
 21
286.633
 31
0.0
  0
LINE
  8
0
 62
     254
 10
87.6335
 20
286.633
 30
0.0
 11
86.7061
 21
286.985
 31
0.0
  0
LINE
  8
0
 62
     254
 10
86.7061
 20
286.985
 30
0.0
 11
85.8795
 21
287.653
 31
0.0
  0
LINE
  8
0
 62
     254
 10
85.8795
 20
287.653
 30
0.0
 11
85.6449
 21
287.911
 31
0.0
  0
LINE
  8
0
 62
     254
 10
85.6449
 20
287.911
 30
0.0
 11
85.659
 21
287.748
 31
0.0
  0
LINE
  8
0
 62
     254
 10
85.659
 20
287.748
 30
0.0
 11
85.6149
 21
286.865
 31
0.0
  0
LINE
  8
0
 62
     254
 10
85.6149
 20
286.865
 30
0.0
 11
85.4244
 21
285.913
 31
0.0
  0
LINE
  8
0
 62
     254
 10
85.4244
 20
285.913
 30
0.0
 11
85.3652
 21
285.714
 31
0.0
  0
LINE
  8
0
 62
     254
 10
85.3652
 20
285.714
 30
0.0
 11
85.8203
 21
285.691
 31
0.0
  0
LINE
  8
0
 62
     254
 10
85.8203
 20
285.691
 30
0.0
 11
87.1844
 21
285.586
 31
0.0
  0
LINE
  8
0
 62
     254
 10
87.1844
 20
285.586
 30
0.0
 11
88.6146
 21
285.298
 31
0.0
  0
LINE
  8
0
 62
     254
 10
88.6146
 20
285.298
 30
0.0
 11
89.5615
 21
284.684
 31
0.0
  0
LINE
  8
0
 62
     254
 10
89.5615
 20
284.684
 30
0.0
 11
89.9185
 21
283.857
 31
0.0
  0
LINE
  8
0
 62
     254
 10
89.9185
 20
283.857
 30
0.0
 11
89.9266
 21
283.577
 31
0.0
  0
LINE
  8
0
 62
     254
 10
89.9266
 20
283.577
 30
0.0
 11
89.9403
 21
283.114
 31
0.0
  0
LINE
  8
0
 62
     254
 10
89.9403
 20
283.114
 30
0.0
 11
89.3078
 21
281.704
 31
0.0
  0
LINE
  8
0
 62
     254
 10
89.3078
 20
281.704
 30
0.0
 11
87.5192
 21
280.054
 31
0.0
  0
LINE
  8
0
 62
     254
 10
87.5192
 20
280.054
 30
0.0
 11
84.8279
 21
278.796
 31
0.0
  0
LINE
  8
0
 62
     254
 10
84.8279
 20
278.796
 30
0.0
 11
82.3419
 21
278.183
 31
0.0
  0
LINE
  8
0
 62
     254
 10
82.3419
 20
278.183
 30
0.0
 11
81.5026
 21
278.098
 31
0.0
  0
LINE
  8
0
 62
     254
 10
81.5026
 20
278.098
 30
0.0
 11
81.6349
 21
277.814
 31
0.0
  0
LINE
  8
0
 62
     254
 10
81.6349
 20
277.814
 30
0.0
 11
82.1076
 21
276.144
 31
0.0
  0
LINE
  8
0
 62
     254
 10
82.1076
 20
276.144
 30
0.0
 11
82.3076
 21
274.21
 31
0.0
  0
LINE
  8
0
 62
     254
 10
82.3076
 20
274.21
 30
0.0
 11
82.3034
 21
273.795
 31
0.0
  0
LINE
  8
0
 62
     254
 10
82.3034
 20
273.795
 30
0.0
 11
82.4011
 21
273.592
 31
0.0
  0
LINE
  8
0
 62
     254
 10
82.4011
 20
273.592
 30
0.0
 11
82.6548
 21
272.329
 31
0.0
  0
LINE
  8
0
 62
     254
 10
82.6548
 20
272.329
 30
0.0
 11
82.5885
 21
270.826
 31
0.0
  0
LINE
  8
0
 62
     254
 10
82.5885
 20
270.826
 30
0.0
 11
82.5281
 21
270.499
 31
0.0
  0
LINE
  8
0
 62
     254
 10
82.5281
 20
270.499
 30
0.0
 11
82.532
 21
270.495
 31
0.0
  0
LINE
  8
0
 62
     254
 10
82.532
 20
270.495
 30
0.0
 11
82.5817
 21
270.451
 31
0.0
  0
LINE
  8
0
 62
     254
 10
82.5817
 20
270.451
 30
0.0
 11
82.587
 21
270.445
 31
0.0
  0
LINE
  8
0
 62
     254
 10
82.587
 20
270.445
 30
0.0
 11
82.9455
 21
270.572
 31
0.0
  0
LINE
  8
0
 62
     254
 10
82.9455
 20
270.572
 30
0.0
 11
84.0398
 21
270.904
 31
0.0
  0
LINE
  8
0
 62
     254
 10
84.0398
 20
270.904
 30
0.0
 11
85.3447
 21
271.115
 31
0.0
  0
LINE
  8
0
 62
     254
 10
85.3447
 20
271.115
 30
0.0
 11
86.432
 21
270.931
 31
0.0
  0
LINE
  8
0
 62
     254
 10
86.432
 20
270.931
 30
0.0
 11
87.0991
 21
270.422
 31
0.0
  0
LINE
  8
0
 62
     254
 10
87.0991
 20
270.422
 30
0.0
 11
87.2338
 21
270.199
 31
0.0
  0
LINE
  8
0
 62
     254
 10
87.2338
 20
270.199
 30
0.0
 11
87.3827
 21
269.952
 31
0.0
  0
LINE
  8
0
 62
     254
 10
87.3827
 20
269.952
 30
0.0
 11
87.7757
 21
269.179
 31
0.0
  0
LINE
  8
0
 62
     254
 10
87.7757
 20
269.179
 30
0.0
 11
88.0332
 21
268.384
 31
0.0
  0
LINE
  8
0
 62
     254
 10
88.0332
 20
268.384
 30
0.0
 11
88.0304
 21
267.775
 31
0.0
  0
LINE
  8
0
 62
     254
 10
88.0304
 20
267.775
 30
0.0
 11
87.7866
 21
267.316
 31
0.0
  0
LINE
  8
0
 62
     254
 10
87.7866
 20
267.316
 30
0.0
 11
87.3263
 21
266.972
 31
0.0
  0
LINE
  8
0
 62
     254
 10
87.3263
 20
266.972
 30
0.0
 11
86.6704
 21
266.703
 31
0.0
  0
LINE
  8
0
 62
     254
 10
86.6704
 20
266.703
 30
0.0
 11
85.8407
 21
266.474
 31
0.0
  0
LINE
  8
0
 62
     254
 10
85.8407
 20
266.474
 30
0.0
 11
85.1048
 21
266.303
 31
0.0
  0
LINE
  8
0
 62
     254
 10
85.1048
 20
266.303
 30
0.0
 11
84.8596
 21
266.247
 31
0.0
  0
LINE
  8
0
 62
     254
 10
84.8596
 20
266.247
 30
0.0
 11
84.9753
 21
265.77
 31
0.0
  0
LINE
  8
0
 62
     254
 10
84.9753
 20
265.77
 30
0.0
 11
85.1546
 21
264.293
 31
0.0
  0
LINE
  8
0
 62
     254
 10
85.1546
 20
264.293
 30
0.0
 11
85.0731
 21
262.567
 31
0.0
  0
LINE
  8
0
 62
     254
 10
85.0731
 20
262.567
 30
0.0
 11
84.6268
 21
261.304
 31
0.0
  0
LINE
  8
0
 62
     254
 10
84.6268
 20
261.304
 30
0.0
 11
84.0422
 21
260.766
 31
0.0
  0
LINE
  8
0
 62
     254
 10
84.0422
 20
260.766
 30
0.0
 11
83.8274
 21
260.733
 31
0.0
  0
LINE
  8
0
 62
     254
 10
83.8274
 20
260.733
 30
0.0
 11
83.6207
 21
260.478
 31
0.0
  0
LINE
  8
0
 62
     254
 10
83.6207
 20
260.478
 30
0.0
 11
82.3627
 21
259.366
 31
0.0
  0
LINE
  8
0
 62
     254
 10
82.3627
 20
259.366
 30
0.0
 11
80.8729
 21
258.475
 31
0.0
  0
LINE
  8
0
 62
     254
 10
80.8729
 20
258.475
 30
0.0
 11
80.5519
 21
258.329
 31
0.0
  0
LINE
  8
0
 62
     254
 10
80.5519
 20
258.329
 30
0.0
 11
80.4693
 21
258.224
 31
0.0
  0
LINE
  8
0
 62
     254
 10
80.4693
 20
258.224
 30
0.0
 11
79.8985
 21
257.774
 31
0.0
  0
LINE
  8
0
 62
     254
 10
79.8985
 20
257.774
 30
0.0
 11
79.1422
 21
257.437
 31
0.0
  0
LINE
  8
0
 62
     254
 10
79.1422
 20
257.437
 30
0.0
 11
78.9672
 21
257.386
 31
0.0
  0
LINE
  8
0
 62
     254
 10
78.9672
 20
257.386
 30
0.0
 11
79.2289
 21
256.84
 31
0.0
  0
LINE
  8
0
 62
     254
 10
79.2289
 20
256.84
 30
0.0
 11
81.0398
 21
254.017
 31
0.0
  0
LINE
  8
0
 62
     254
 10
81.0398
 20
254.017
 30
0.0
 11
83.6277
 21
251.098
 31
0.0
  0
LINE
  8
0
 62
     254
 10
83.6277
 20
251.098
 30
0.0
 11
84.2793
 21
250.504
 31
0.0
  0
LINE
  8
0
 62
     254
 10
84.2793
 20
250.504
 30
0.0
 11
84.7686
 21
249.978
 31
0.0
  0
LINE
  8
0
 62
     254
 10
84.7686
 20
249.978
 30
0.0
 11
86.0683
 21
248.238
 31
0.0
  0
LINE
  8
0
 62
     254
 10
86.0683
 20
248.238
 30
0.0
 11
87.1153
 21
246.149
 31
0.0
  0
LINE
  8
0
 62
     254
 10
87.1153
 20
246.149
 30
0.0
 11
87.5083
 21
244.244
 31
0.0
  0
LINE
  8
0
 62
     254
 10
87.5083
 20
244.244
 30
0.0
 11
87.3372
 21
242.524
 31
0.0
  0
LINE
  8
0
 62
     254
 10
87.3372
 20
242.524
 30
0.0
 11
86.6909
 21
240.997
 31
0.0
  0
LINE
  8
0
 62
     254
 10
86.6909
 20
240.997
 30
0.0
 11
85.6576
 21
239.666
 31
0.0
  0
LINE
  8
0
 62
     254
 10
85.6576
 20
239.666
 30
0.0
 11
84.3248
 21
238.536
 31
0.0
  0
LINE
  8
0
 62
     254
 10
84.3248
 20
238.536
 30
0.0
 11
83.1825
 21
237.815
 31
0.0
  0
LINE
  8
0
 62
     254
 10
83.1825
 20
237.815
 30
0.0
 11
82.7842
 21
237.612
 31
0.0
  0
LINE
  8
0
 62
     254
 10
82.7842
 20
237.612
 30
0.0
 11
82.973
 21
237.466
 31
0.0
  0
LINE
  8
0
 62
     254
 10
82.973
 20
237.466
 30
0.0
 11
83.633
 21
236.649
 31
0.0
  0
LINE
  8
0
 62
     254
 10
83.633
 20
236.649
 30
0.0
 11
83.8013
 21
235.683
 31
0.0
  0
LINE
  8
0
 62
     254
 10
83.8013
 20
235.683
 30
0.0
 11
83.7463
 21
235.461
 31
0.0
  0
LINE
  8
0
 62
     254
 10
83.7463
 20
235.461
 30
0.0
 11
83.6662
 21
235.146
 31
0.0
  0
LINE
  8
0
 62
     254
 10
83.6662
 20
235.146
 30
0.0
 11
83.3381
 21
234.221
 31
0.0
  0
LINE
  8
0
 62
     254
 10
83.3381
 20
234.221
 30
0.0
 11
82.8668
 21
233.488
 31
0.0
  0
LINE
  8
0
 62
     254
 10
82.8668
 20
233.488
 30
0.0
 11
82.3129
 21
233.189
 31
0.0
  0
LINE
  8
0
 62
     254
 10
82.3129
 20
233.189
 30
0.0
 11
81.8113
 21
233.2
 31
0.0
  0
LINE
  8
0
 62
     254
 10
81.8113
 20
233.2
 30
0.0
 11
81.6585
 21
233.245
 31
0.0
  0
LINE
  8
0
 62
     254
 10
81.6585
 20
233.245
 30
0.0
 11
82.9208
 21
231.925
 31
0.0
  0
LINE
  8
0
 62
     254
 10
82.9208
 20
231.925
 30
0.0
 11
86.2087
 21
227.481
 31
0.0
  0
LINE
  8
0
 62
     254
 10
86.2087
 20
227.481
 30
0.0
 11
89.9061
 21
220.687
 31
0.0
  0
LINE
  8
0
 62
     254
 10
89.9061
 20
220.687
 30
0.0
 11
92.8261
 21
212.914
 31
0.0
  0
LINE
  8
0
 62
     254
 10
92.8261
 20
212.914
 30
0.0
 11
95.0447
 21
204.207
 31
0.0
  0
LINE
  8
0
 62
     254
 10
95.0447
 20
204.207
 30
0.0
 11
96.6378
 21
194.615
 31
0.0
  0
LINE
  8
0
 62
     254
 10
96.6378
 20
194.615
 30
0.0
 11
97.681
 21
184.185
 31
0.0
  0
LINE
  8
0
 62
     254
 10
97.681
 20
184.185
 30
0.0
 11
98.2514
 21
172.964
 31
0.0
  0
LINE
  8
0
 62
     254
 10
98.2514
 20
172.964
 30
0.0
 11
98.425
 21
163.991
 31
0.0
  0
LINE
  8
0
 62
     254
 10
98.425
 20
163.991
 30
0.0
 11
98.425
 21
160.999
 31
0.0
  0
LINE
  8
0
 62
     254
 10
98.425
 20
160.999
 30
0.0
 11
98.425
 21
159.378
 31
0.0
  0
LINE
  8
0
 62
     254
 10
98.425
 20
159.378
 30
0.0
 11
98.4194
 21
154.515
 31
0.0
  0
LINE
  8
0
 62
     254
 10
98.4194
 20
154.515
 30
0.0
 11
98.3809
 21
148.001
 31
0.0
  0
LINE
  8
0
 62
     254
 10
98.3809
 20
148.001
 30
0.0
 11
98.2775
 21
141.49
 31
0.0
  0
LINE
  8
0
 62
     254
 10
98.2775
 20
141.49
 30
0.0
 11
98.0779
 21
135.015
 31
0.0
  0
LINE
  8
0
 62
     254
 10
98.0779
 20
135.015
 30
0.0
 11
97.747
 21
128.608
 31
0.0
  0
LINE
  8
0
 62
     254
 10
97.747
 20
128.608
 30
0.0
 11
97.2538
 21
122.304
 31
0.0
  0
LINE
  8
0
 62
     254
 10
97.2538
 20
122.304
 30
0.0
 11
96.5648
 21
116.134
 31
0.0
  0
LINE
  8
0
 62
     254
 10
96.5648
 20
116.134
 30
0.0
 11
95.6483
 21
110.134
 31
0.0
  0
LINE
  8
0
 62
     254
 10
95.6483
 20
110.134
 30
0.0
 11
94.4714
 21
104.337
 31
0.0
  0
LINE
  8
0
 62
     254
 10
94.4714
 20
104.337
 30
0.0
 11
93.0025
 21
98.7721
 31
0.0
  0
LINE
  8
0
 62
     254
 10
93.0025
 20
98.7721
 30
0.0
 11
91.2082
 21
93.478
 31
0.0
  0
LINE
  8
0
 62
     254
 10
91.2082
 20
93.478
 30
0.0
 11
89.0556
 21
88.4837
 31
0.0
  0
LINE
  8
0
 62
     254
 10
89.0556
 20
88.4837
 30
0.0
 11
86.5131
 21
83.8246
 31
0.0
  0
LINE
  8
0
 62
     254
 10
86.5131
 20
83.8246
 30
0.0
 11
83.5477
 21
79.5334
 31
0.0
  0
LINE
  8
0
 62
     254
 10
83.5477
 20
79.5334
 30
0.0
 11
80.1261
 21
75.6433
 31
0.0
  0
LINE
  8
0
 62
     254
 10
80.1261
 20
75.6433
 30
0.0
 11
77.246
 21
72.9837
 31
0.0
  0
LINE
  8
0
 62
     254
 10
77.246
 20
72.9837
 30
0.0
 11
76.218
 21
72.1857
 31
0.0
  0
LINE
  8
0
 62
     254
 10
76.218
 20
72.1857
 30
0.0
 11
76.9553
 21
72.4726
 31
0.0
  0
LINE
  8
0
 62
     254
 10
76.9553
 20
72.4726
 30
0.0
 11
79.3157
 21
72.9492
 31
0.0
  0
LINE
  8
0
 62
     254
 10
79.3157
 20
72.9492
 30
0.0
 11
82.3419
 21
72.9396
 31
0.0
  0
LINE
  8
0
 62
     254
 10
82.3419
 20
72.9396
 30
0.0
 11
85.1697
 21
72.3071
 31
0.0
  0
LINE
  8
0
 62
     254
 10
85.1697
 20
72.3071
 30
0.0
 11
87.6748
 21
71.2004
 31
0.0
  0
LINE
  8
0
 62
     254
 10
87.6748
 20
71.2004
 30
0.0
 11
89.7322
 21
69.7699
 31
0.0
  0
LINE
  8
0
 62
     254
 10
89.7322
 20
69.7699
 30
0.0
 11
91.2192
 21
68.1662
 31
0.0
  0
LINE
  8
0
 62
     254
 10
91.2192
 20
68.1662
 30
0.0
 11
92.009
 21
66.5346
 31
0.0
  0
LINE
  8
0
 62
     254
 10
92.009
 20
66.5346
 30
0.0
 11
92.0944
 21
65.3673
 31
0.0
  0
LINE
  8
0
 62
     254
 10
92.0944
 20
65.3673
 30
0.0
 11
91.9773
 21
65.0282
 31
0.0
  0
LINE
  8
0
 62
     254
 10
91.9773
 20
65.0282
 30
0.0
 11
91.882
 21
64.7555
 31
0.0
  0
LINE
  8
0
 62
     254
 10
91.882
 20
64.7555
 30
0.0
 11
91.1408
 21
64.0913
 31
0.0
  0
LINE
  8
0
 62
     254
 10
91.1408
 20
64.0913
 30
0.0
 11
89.7269
 21
64.0292
 31
0.0
  0
LINE
  8
0
 62
     254
 10
89.7269
 20
64.0292
 30
0.0
 11
87.8141
 21
64.4772
 31
0.0
  0
LINE
  8
0
 62
     254
 10
87.8141
 20
64.4772
 30
0.0
 11
85.4826
 21
65.0681
 31
0.0
  0
LINE
  8
0
 62
     254
 10
85.4826
 20
65.0681
 30
0.0
 11
82.8118
 21
65.4403
 31
0.0
  0
LINE
  8
0
 62
     254
 10
82.8118
 20
65.4403
 30
0.0
 11
79.8823
 21
65.2268
 31
0.0
  0
LINE
  8
0
 62
     254
 10
79.8823
 20
65.2268
 30
0.0
 11
76.7719
 21
64.0623
 31
0.0
  0
LINE
  8
0
 62
     254
 10
76.7719
 20
64.0623
 30
0.0
 11
74.2692
 21
62.2942
 31
0.0
  0
LINE
  8
0
 62
     254
 10
74.2692
 20
62.2942
 30
0.0
 11
73.5623
 21
61.5805
 31
0.0
  0
LINE
  8
0
 62
     254
 10
73.5623
 20
61.5805
 30
0.0
 11
73.473
 21
61.4909
 31
0.0
  0
LINE
  8
0
 62
     254
 10
73.473
 20
61.4909
 30
0.0
 11
72.6571
 21
60.6199
 31
0.0
  0
LINE
  8
0
 62
     254
 10
72.6571
 20
60.6199
 30
0.0
 11
72.584
 21
60.536
 31
0.0
  0
LINE
  8
0
 62
     254
 10
72.584
 20
60.536
 30
0.0
 11
72.6504
 21
60.573
 31
0.0
  0
LINE
  8
0
 62
     254
 10
72.6504
 20
60.573
 30
0.0
 11
73.3379
 21
61.0196
 31
0.0
  0
LINE
  8
0
 62
     254
 10
73.3379
 20
61.0196
 30
0.0
 11
73.4095
 21
61.0718
 31
0.0
  0
LINE
  8
0
 62
     254
 10
73.4095
 20
61.0718
 30
0.0
 11
74.2322
 21
61.6906
 31
0.0
  0
LINE
  8
0
 62
     254
 10
74.2322
 20
61.6906
 30
0.0
 11
77.046
 21
63.0837
 31
0.0
  0
LINE
  8
0
 62
     254
 10
77.046
 20
63.0837
 30
0.0
 11
80.7932
 21
63.9657
 31
0.0
  0
LINE
  8
0
 62
     254
 10
80.7932
 20
63.9657
 30
0.0
 11
84.4476
 21
63.912
 31
0.0
  0
LINE
  8
0
 62
     254
 10
84.4476
 20
63.912
 30
0.0
 11
87.8113
 21
63.1141
 31
0.0
  0
LINE
  8
0
 62
     254
 10
87.8113
 20
63.1141
 30
0.0
 11
90.6833
 21
61.7636
 31
0.0
  0
LINE
  8
0
 62
     254
 10
90.6833
 20
61.7636
 30
0.0
 11
92.8631
 21
60.0523
 31
0.0
  0
LINE
  8
0
 62
     254
 10
92.8631
 20
60.0523
 30
0.0
 11
94.149
 21
58.1738
 31
0.0
  0
LINE
  8
0
 62
     254
 10
94.149
 20
58.1738
 30
0.0
 11
94.4439
 21
56.7475
 31
0.0
  0
LINE
  8
0
 62
     254
 10
94.4439
 20
56.7475
 30
0.0
 11
94.3434
 21
56.3192
 31
0.0
  0
LINE
  8
0
 62
     254
 10
94.3434
 20
56.3192
 30
0.0
 11
94.2605
 21
55.9745
 31
0.0
  0
LINE
  8
0
 62
     254
 10
94.2605
 20
55.9745
 30
0.0
 11
93.3771
 21
55.087
 31
0.0
  0
LINE
  8
0
 62
     254
 10
93.3771
 20
55.087
 30
0.0
 11
91.5141
 21
54.9067
 31
0.0
  0
LINE
  8
0
 62
     254
 10
91.5141
 20
54.9067
 30
0.0
 11
88.9261
 21
55.251
 31
0.0
  0
LINE
  8
0
 62
     254
 10
88.9261
 20
55.251
 30
0.0
 11
86.578
 21
55.553
 31
0.0
  0
LINE
  8
0
 62
     254
 10
86.578
 20
55.553
 30
0.0
 11
85.7924
 21
55.59
 31
0.0
  0
LINE
  8
0
 62
     254
 10
85.7924
 20
55.59
 30
0.0
 11
85.8203
 21
55.4563
 31
0.0
  0
LINE
  8
0
 62
     254
 10
85.8203
 20
55.4563
 30
0.0
 11
85.8393
 21
54.0964
 31
0.0
  0
LINE
  8
0
 62
     254
 10
85.8393
 20
54.0964
 30
0.0
 11
85.8118
 21
53.9598
 31
0.0
  0
LINE
  8
0
 62
     254
 10
85.8118
 20
53.9598
 30
0.0
 11
86.323
 21
53.9171
 31
0.0
  0
LINE
  8
0
 62
     254
 10
86.323
 20
53.9171
 30
0.0
 11
87.8664
 21
53.873
 31
0.0
  0
LINE
  8
0
 62
     254
 10
87.8664
 20
53.873
 30
0.0
 11
89.6744
 21
53.8949
 31
0.0
  0
LINE
  8
0
 62
     254
 10
89.6744
 20
53.8949
 30
0.0
 11
91.2026
 21
53.9115
 31
0.0
  0
LINE
  8
0
 62
     254
 10
91.2026
 20
53.9115
 30
0.0
 11
92.4168
 21
53.811
 31
0.0
  0
LINE
  8
0
 62
     254
 10
92.4168
 20
53.811
 30
0.0
 11
93.2822
 21
53.4762
 31
0.0
  0
LINE
  8
0
 62
     254
 10
93.2822
 20
53.4762
 30
0.0
 11
93.7645
 21
52.7939
 31
0.0
  0
LINE
  8
0
 62
     254
 10
93.7645
 20
52.7939
 30
0.0
 11
93.8294
 21
51.6502
 31
0.0
  0
LINE
  8
0
 62
     254
 10
93.8294
 20
51.6502
 30
0.0
 11
93.5701
 21
50.3495
 31
0.0
  0
LINE
  8
0
 62
     254
 10
93.5701
 20
50.3495
 30
0.0
 11
93.4434
 21
49.9276
 31
0.0
  0
LINE
  8
0
 62
     254
 10
93.4434
 20
49.9276
 30
0.0
 11
93.3305
 21
49.5558
 31
0.0
  0
LINE
  8
0
 62
     254
 10
93.3305
 20
49.5558
 30
0.0
 11
92.4059
 21
48.6174
 31
0.0
  0
LINE
  8
0
 62
     254
 10
92.4059
 20
48.6174
 30
0.0
 11
90.6089
 21
48.1722
 31
0.0
  0
LINE
  8
0
 62
     254
 10
90.6089
 20
48.1722
 30
0.0
 11
88.3186
 21
48.2505
 31
0.0
  0
LINE
  8
0
 62
     254
 10
88.3186
 20
48.2505
 30
0.0
 11
86.4348
 21
48.4491
 31
0.0
  0
LINE
  8
0
 62
     254
 10
86.4348
 20
48.4491
 30
0.0
 11
85.8061
 21
48.5041
 31
0.0
  0
LINE
  8
0
 62
     254
 10
85.8061
 20
48.5041
 30
0.0
 11
85.8075
 21
48.2078
 31
0.0
  0
LINE
  8
0
 62
     254
 10
85.8075
 20
48.2078
 30
0.0
 11
85.4908
 21
46.5776
 31
0.0
  0
LINE
  8
0
 62
     254
 10
85.4908
 20
46.5776
 30
0.0
 11
84.6875
 21
44.753
 31
0.0
  0
LINE
  8
0
 62
     254
 10
84.6875
 20
44.753
 30
0.0
 11
84.4476
 21
44.3576
 31
0.0
  0
LINE
  8
0
 62
     254
 10
84.4476
 20
44.3576
 30
0.0
 11
84.5714
 21
44.1508
 31
0.0
  0
LINE
  8
0
 62
     254
 10
84.5714
 20
44.1508
 30
0.0
 11
84.9327
 21
43.1518
 31
0.0
  0
LINE
  8
0
 62
     254
 10
84.9327
 20
43.1518
 30
0.0
 11
84.9119
 21
42.2617
 31
0.0
  0
LINE
  8
0
 62
     254
 10
84.9119
 20
42.2617
 30
0.0
 11
84.8459
 21
42.1086
 31
0.0
  0
LINE
  8
0
 62
     254
 10
84.8459
 20
42.1086
 30
0.0
 11
84.7919
 21
41.9876
 31
0.0
  0
LINE
  8
0
 62
     254
 10
84.7919
 20
41.9876
 30
0.0
 11
84.5026
 21
41.6789
 31
0.0
  0
LINE
  8
0
 62
     254
 10
84.5026
 20
41.6789
 30
0.0
 11
84.0204
 21
41.5548
 31
0.0
  0
LINE
  8
0
 62
     254
 10
84.0204
 20
41.5548
 30
0.0
 11
83.4058
 21
41.6648
 31
0.0
  0
LINE
  8
0
 62
     254
 10
83.4058
 20
41.6648
 30
0.0
 11
82.8477
 21
41.8648
 31
0.0
  0
LINE
  8
0
 62
     254
 10
82.8477
 20
41.8648
 30
0.0
 11
82.6671
 21
41.9393
 31
0.0
  0
LINE
  8
0
 62
     254
 10
82.6671
 20
41.9393
 30
0.0
 11
82.6079
 21
41.8578
 31
0.0
  0
LINE
  8
0
 62
     254
 10
82.6079
 20
41.8578
 30
0.0
 11
82.0607
 21
41.0436
 31
0.0
  0
LINE
  8
0
 62
     254
 10
82.0607
 20
41.0436
 30
0.0
 11
82.0113
 21
40.9621
 31
0.0
  0
LINE
  8
0
 62
     254
 10
82.0113
 20
40.9621
 30
0.0
 11
82.4054
 21
40.8146
 31
0.0
  0
LINE
  8
0
 62
     254
 10
82.4054
 20
40.8146
 30
0.0
 11
83.403
 21
39.8653
 31
0.0
  0
LINE
  8
0
 62
     254
 10
83.403
 20
39.8653
 30
0.0
 11
83.2873
 21
38.4016
 31
0.0
  0
LINE
  8
0
 62
     254
 10
83.2873
 20
38.4016
 30
0.0
 11
81.9711
 21
36.7951
 31
0.0
  0
LINE
  8
0
 62
     254
 10
81.9711
 20
36.7951
 30
0.0
 11
80.3494
 21
35.5935
 31
0.0
  0
LINE
  8
0
 62
     254
 10
80.3494
 20
35.5935
 30
0.0
 11
79.7662
 21
35.2709
 31
0.0
  0
LINE
  8
0
 62
     254
 10
79.7662
 20
35.2709
 30
0.0
 11
79.7348
 21
35.0862
 31
0.0
  0
LINE
  8
0
 62
     254
 10
79.7348
 20
35.0862
 30
0.0
 11
79.5694
 21
33.3223
 31
0.0
  0
LINE
  8
0
 62
     254
 10
79.5694
 20
33.3223
 30
0.0
 11
79.5666
 21
33.1542
 31
0.0
  0
LINE
  8
0
 62
     254
 10
79.5666
 20
33.1542
 30
0.0
 11
79.7278
 21
32.9833
 31
0.0
  0
LINE
  8
0
 62
     254
 10
79.7278
 20
32.9833
 30
0.0
 11
80.1303
 21
32.3894
 31
0.0
  0
LINE
  8
0
 62
     254
 10
80.1303
 20
32.3894
 30
0.0
 11
80.4513
 21
31.4965
 31
0.0
  0
LINE
  8
0
 62
     254
 10
80.4513
 20
31.4965
 30
0.0
 11
80.4429
 21
30.5001
 31
0.0
  0
LINE
  8
0
 62
     254
 10
80.4429
 20
30.5001
 30
0.0
 11
80.1645
 21
29.6664
 31
0.0
  0
LINE
  8
0
 62
     254
 10
80.1645
 20
29.6664
 30
0.0
 11
80.0185
 21
29.4197
 31
0.0
  0
LINE
  8
0
 62
     254
 10
80.0185
 20
29.4197
 30
0.0
 11
80.1758
 21
29.3067
 31
0.0
  0
LINE
  8
0
 62
     254
 10
80.1758
 20
29.3067
 30
0.0
 11
80.5889
 21
28.8809
 31
0.0
  0
LINE
  8
0
 62
     254
 10
80.5889
 20
28.8809
 30
0.0
 11
81.1018
 21
28.1423
 31
0.0
  0
LINE
  8
0
 62
     254
 10
81.1018
 20
28.1423
 30
0.0
 11
81.4846
 21
27.2659
 31
0.0
  0
LINE
  8
0
 62
     254
 10
81.4846
 20
27.2659
 30
0.0
 11
81.6571
 21
26.5562
 31
0.0
  0
LINE
  8
0
 62
     254
 10
81.6571
 20
26.5562
 30
0.0
 11
81.6737
 21
26.3164
 31
0.0
  0
LINE
  8
0
 62
     254
 10
81.6737
 20
26.3164
 30
0.0
 11
82.1351
 21
26.3812
 31
0.0
  0
LINE
  8
0
 62
     254
 10
82.1351
 20
26.3812
 30
0.0
 11
83.5106
 21
26.6554
 31
0.0
  0
LINE
  8
0
 62
     254
 10
83.5106
 20
26.6554
 30
0.0
 11
85.1076
 21
27.055
 31
0.0
  0
LINE
  8
0
 62
     254
 10
85.1076
 20
27.055
 30
0.0
 11
86.4581
 21
27.405
 31
0.0
  0
LINE
  8
0
 62
     254
 10
86.4581
 20
27.405
 30
0.0
 11
87.5563
 21
27.5952
 31
0.0
  0
LINE
  8
0
 62
     254
 10
87.5563
 20
27.5952
 30
0.0
 11
88.3955
 21
27.5167
 31
0.0
  0
LINE
  8
0
 62
     254
 10
88.3955
 20
27.5167
 30
0.0
 11
88.9702
 21
27.0605
 31
0.0
  0
LINE
  8
0
 62
     254
 10
88.9702
 20
27.0605
 30
0.0
 11
89.275
 21
26.1138
 31
0.0
  0
LINE
  8
0
 62
     254
 10
89.275
 20
26.1138
 30
0.0
 11
89.3258
 21
24.9549
 31
0.0
  0
LINE
  8
0
 62
     254
 10
89.3258
 20
24.9549
 30
0.0
 11
89.3039
 21
24.5704
 31
0.0
  0
LINE
  8
0
 62
     254
 10
89.3039
 20
24.5704
 30
0.0
 11
89.2926
 21
24.4009
 31
0.0
  0
LINE
  8
0
 62
     254
 10
89.2926
 20
24.4009
 30
0.0
 11
89.1494
 21
23.8966
 31
0.0
  0
LINE
  8
0
 62
     254
 10
89.1494
 20
23.8966
 30
0.0
 11
88.7952
 21
23.3633
 31
0.0
  0
LINE
  8
0
 62
     254
 10
88.7952
 20
23.3633
 30
0.0
 11
88.2689
 21
22.9499
 31
0.0
  0
LINE
  8
0
 62
     254
 10
88.2689
 20
22.9499
 30
0.0
 11
87.5979
 21
22.6357
 31
0.0
  0
LINE
  8
0
 62
     254
 10
87.5979
 20
22.6357
 30
0.0
 11
86.808
 21
22.3986
 31
0.0
  0
LINE
  8
0
 62
     254
 10
86.808
 20
22.3986
 30
0.0
 11
85.9275
 21
22.2167
 31
0.0
  0
LINE
  8
0
 62
     254
 10
85.9275
 20
22.2167
 30
0.0
 11
84.9824
 21
22.0707
 31
0.0
  0
LINE
  8
0
 62
     254
 10
84.9824
 20
22.0707
 30
0.0
 11
84.2465
 21
21.97
 31
0.0
  0
LINE
  8
0
 62
     254
 10
84.2465
 20
21.97
 30
0.0
 11
84.0024
 21
21.937
 31
0.0
  0
LINE
  8
0
 62
     254
 10
84.0024
 20
21.937
 30
0.0
 11
84.5083
 21
21.3417
 31
0.0
  0
LINE
  8
0
 62
     254
 10
84.5083
 20
21.3417
 30
0.0
 11
85.7345
 21
19.3036
 31
0.0
  0
LINE
  8
0
 62
     254
 10
85.7345
 20
19.3036
 30
0.0
 11
86.6525
 21
16.6605
 31
0.0
  0
LINE
  8
0
 62
     254
 10
86.6525
 20
16.6605
 30
0.0
 11
86.7061
 21
14.3798
 31
0.0
  0
LINE
  8
0
 62
     254
 10
86.7061
 20
14.3798
 30
0.0
 11
86.1688
 21
13.0859
 31
0.0
  0
LINE
  8
0
 62
     254
 10
86.1688
 20
13.0859
 30
0.0
 11
85.8502
 21
12.8309
 31
0.0
  0
LINE
  8
0
 62
     254
 10
85.8502
 20
12.8309
 30
0.0
 11
85.689
 21
12.7041
 31
0.0
  0
LINE
  8
0
 62
     254
 10
85.689
 20
12.7041
 30
0.0
 11
84.9147
 21
12.5057
 31
0.0
  0
LINE
  8
0
 62
     254
 10
84.9147
 20
12.5057
 30
0.0
 11
84.1417
 21
12.8034
 31
0.0
  0
LINE
  8
0
 62
     254
 10
84.1417
 20
12.8034
 30
0.0
 11
83.9819
 21
12.9232
 31
0.0
  0
LINE
  8
0
 62
     254
 10
83.9819
 20
12.9232
 30
0.0
 11
84.0024
 21
12.8488
 31
0.0
  0
LINE
  8
0
 62
     254
 10
84.0024
 20
12.8488
 30
0.0
 11
84.019
 21
12.3665
 31
0.0
  0
LINE
  8
0
 62
     254
 10
84.019
 20
12.3665
 30
0.0
 11
83.917
 21
11.7174
 31
0.0
  0
LINE
  8
0
 62
     254
 10
83.917
 20
11.7174
 30
0.0
 11
83.8786
 21
11.559
 31
0.0
  0
LINE
  8
0
 62
     254
 10
83.8786
 20
11.559
 30
0.0
 11
83.8137
 21
11.3013
 31
0.0
  0
LINE
  8
0
 62
     254
 10
83.8137
 20
11.3013
 30
0.0
 11
82.973
 21
10.6853
 31
0.0
  0
LINE
  8
0
 62
     254
 10
82.973
 20
10.6853
 30
0.0
 11
81.274
 21
10.5254
 31
0.0
  0
LINE
  8
0
 62
     254
 10
81.274
 20
10.5254
 30
0.0
 11
79.2716
 21
10.5723
 31
0.0
  0
LINE
  8
0
 62
     254
 10
79.2716
 20
10.5723
 30
0.0
 11
77.8729
 21
10.4731
 31
0.0
  0
LINE
  8
0
 62
     254
 10
77.8729
 20
10.4731
 30
0.0
 11
77.4513
 21
10.3188
 31
0.0
  0
LINE
  8
0
 62
     254
 10
77.4513
 20
10.3188
 30
0.0
 11
77.3617
 21
10.0858
 31
0.0
  0
LINE
  8
0
 62
     254
 10
77.3617
 20
10.0858
 30
0.0
 11
76.2427
 21
7.9072
 31
0.0
  0
LINE
  8
0
 62
     254
 10
76.2427
 20
7.9072
 30
0.0
 11
76.1118
 21
7.70601
 31
0.0
  0
LINE
  8
0
 62
     254
 10
76.1118
 20
7.70601
 30
0.0
 11
76.0554
 21
6.97149
 31
0.0
  0
LINE
  8
0
 62
     254
 10
76.0554
 20
6.97149
 30
0.0
 11
75.2479
 21
4.81485
 31
0.0
  0
LINE
  8
0
 62
     254
 10
75.2479
 20
4.81485
 30
0.0
 11
73.4632
 21
2.61276
 31
0.0
  0
LINE
  8
0
 62
     254
 10
73.4632
 20
2.61276
 30
0.0
 11
71.2392
 21
1.17409
 31
0.0
  0
LINE
  8
0
 62
     254
 10
71.2392
 20
1.17409
 30
0.0
 11
69.6101
 21
0.617361
 31
0.0
  0
LINE
  8
0
 62
     254
 10
69.6101
 20
0.617361
 30
0.0
 11
69.0563
 21
0.573264
 31
0.0
  0
LINE
  8
0
 62
     254
 10
69.0563
 20
0.573264
 30
0.0
 11
69.0563
 21
0
 31
0.0
  0
LINE
  8
0
 62
     254
 10
69.8087
 20
17.9586
 30
0.0
 11
69.814
 21
17.9917
 31
0.0
  0
LINE
  8
0
 62
     254
 10
69.814
 20
17.9917
 30
0.0
 11
69.868
 21
18.31
 31
0.0
  0
LINE
  8
0
 62
     254
 10
69.868
 20
18.31
 30
0.0
 11
69.8733
 21
18.3403
 31
0.0
  0
LINE
  8
0
 62
     254
 10
69.8733
 20
18.3403
 30
0.0
 11
69.8609
 21
18.3569
 31
0.0
  0
LINE
  8
0
 62
     254
 10
69.8609
 20
18.3569
 30
0.0
 11
69.7385
 21
18.5346
 31
0.0
  0
LINE
  8
0
 62
     254
 10
69.7385
 20
18.5346
 30
0.0
 11
69.7258
 21
18.5539
 31
0.0
  0
LINE
  8
0
 62
     254
 10
69.7258
 20
18.5539
 30
0.0
 11
69.7054
 21
18.5842
 31
0.0
  0
LINE
  8
0
 62
     254
 10
69.7054
 20
18.5842
 30
0.0
 11
69.6115
 21
18.8461
 31
0.0
  0
LINE
  8
0
 62
     254
 10
69.6115
 20
18.8461
 30
0.0
 11
69.6115
 21
18.9329
 31
0.0
  0
LINE
  8
0
 62
     254
 10
69.6115
 20
18.9329
 30
0.0
 11
69.5635
 21
18.9205
 31
0.0
  0
LINE
  8
0
 62
     254
 10
69.5635
 20
18.9205
 30
0.0
 11
69.1003
 21
18.7882
 31
0.0
  0
LINE
  8
0
 62
     254
 10
69.1003
 20
18.7882
 30
0.0
 11
69.0563
 21
18.7744
 31
0.0
  0
LINE
  8
0
 62
     254
 10
69.0563
 20
18.7744
 30
0.0
 11
69.0563
 21
18.3362
 31
0.0
  0
LINE
  8
0
 62
     254
 10
69.0563
 20
18.3362
 30
0.0
 11
69.1169
 21
18.31
 31
0.0
  0
LINE
  8
0
 62
     254
 10
69.1169
 20
18.31
 30
0.0
 11
69.7438
 21
17.9958
 31
0.0
  0
LINE
  8
0
 62
     254
 10
69.7438
 20
17.9958
 30
0.0
 11
69.8087
 21
17.9586
 31
0.0
  0
LINE
  8
0
 62
     254
 10
43.8397
 20
245
 30
0.0
 11
43.7501
 21
245.134
 31
0.0
  0
LINE
  8
0
 62
     254
 10
43.7501
 20
245.134
 30
0.0
 11
43.3419
 21
245.981
 31
0.0
  0
LINE
  8
0
 62
     254
 10
43.3419
 20
245.981
 30
0.0
 11
42.992
 21
247.089
 31
0.0
  0
LINE
  8
0
 62
     254
 10
42.992
 20
247.089
 30
0.0
 11
42.9313
 21
247.351
 31
0.0
  0
LINE
  8
0
 62
     254
 10
42.9313
 20
247.351
 30
0.0
 11
43.1313
 21
247.693
 31
0.0
  0
LINE
  8
0
 62
     254
 10
43.1313
 20
247.693
 30
0.0
 11
43.5391
 21
248.834
 31
0.0
  0
LINE
  8
0
 62
     254
 10
43.5391
 20
248.834
 30
0.0
 11
43.8616
 21
250.624
 31
0.0
  0
LINE
  8
0
 62
     254
 10
43.8616
 20
250.624
 30
0.0
 11
43.8672
 21
252.524
 31
0.0
  0
LINE
  8
0
 62
     254
 10
43.8672
 20
252.524
 30
0.0
 11
43.6605
 21
253.898
 31
0.0
  0
LINE
  8
0
 62
     254
 10
43.6605
 20
253.898
 30
0.0
 11
43.5254
 21
254.335
 31
0.0
  0
LINE
  8
0
 62
     254
 10
43.5254
 20
254.335
 30
0.0
 11
43.2925
 21
254.103
 31
0.0
  0
LINE
  8
0
 62
     254
 10
43.2925
 20
254.103
 30
0.0
 11
42.496
 21
253.501
 31
0.0
  0
LINE
  8
0
 62
     254
 10
42.496
 20
253.501
 30
0.0
 11
41.2006
 21
252.776
 31
0.0
  0
LINE
  8
0
 62
     254
 10
41.2006
 20
252.776
 30
0.0
 11
39.6861
 21
252.191
 31
0.0
  0
LINE
  8
0
 62
     254
 10
39.6861
 20
252.191
 30
0.0
 11
38.4253
 21
251.856
 31
0.0
  0
LINE
  8
0
 62
     254
 10
38.4253
 20
251.856
 30
0.0
 11
37.9995
 21
251.779
 31
0.0
  0
LINE
  8
0
 62
     254
 10
37.9995
 20
251.779
 30
0.0
 11
37.889
 21
251.605
 31
0.0
  0
LINE
  8
0
 62
     254
 10
37.889
 20
251.605
 30
0.0
 11
36.8723
 21
249.681
 31
0.0
  0
LINE
  8
0
 62
     254
 10
36.8723
 20
249.681
 30
0.0
 11
36.7813
 21
249.468
 31
0.0
  0
LINE
  8
0
 62
     254
 10
36.7813
 20
249.468
 30
0.0
 11
37.1588
 21
249.604
 31
0.0
  0
LINE
  8
0
 62
     254
 10
37.1588
 20
249.604
 30
0.0
 11
38.2958
 21
250.005
 31
0.0
  0
LINE
  8
0
 62
     254
 10
38.2958
 20
250.005
 30
0.0
 11
39.6804
 21
250.358
 31
0.0
  0
LINE
  8
0
 62
     254
 10
39.6804
 20
250.358
 30
0.0
 11
40.8369
 21
250.317
 31
0.0
  0
LINE
  8
0
 62
     254
 10
40.8369
 20
250.317
 30
0.0
 11
41.5339
 21
249.876
 31
0.0
  0
LINE
  8
0
 62
     254
 10
41.5339
 20
249.876
 30
0.0
 11
41.6624
 21
249.665
 31
0.0
  0
LINE
  8
0
 62
     254
 10
41.6624
 20
249.665
 30
0.0
 11
41.8303
 21
249.389
 31
0.0
  0
LINE
  8
0
 62
     254
 10
41.8303
 20
249.389
 30
0.0
 11
42.2356
 21
248.499
 31
0.0
  0
LINE
  8
0
 62
     254
 10
42.2356
 20
248.499
 30
0.0
 11
42.3086
 21
247.702
 31
0.0
  0
LINE
  8
0
 62
     254
 10
42.3086
 20
247.702
 30
0.0
 11
41.9379
 21
247.177
 31
0.0
  0
LINE
  8
0
 62
     254
 10
41.9379
 20
247.177
 30
0.0
 11
41.184
 21
246.823
 31
0.0
  0
LINE
  8
0
 62
     254
 10
41.184
 20
246.823
 30
0.0
 11
40.1091
 21
246.541
 31
0.0
  0
LINE
  8
0
 62
     254
 10
40.1091
 20
246.541
 30
0.0
 11
38.7724
 21
246.229
 31
0.0
  0
LINE
  8
0
 62
     254
 10
38.7724
 20
246.229
 30
0.0
 11
37.2332
 21
245.788
 31
0.0
  0
LINE
  8
0
 62
     254
 10
37.2332
 20
245.788
 30
0.0
 11
35.9615
 21
245.311
 31
0.0
  0
LINE
  8
0
 62
     254
 10
35.9615
 20
245.311
 30
0.0
 11
35.5533
 21
245.118
 31
0.0
  0
LINE
  8
0
 62
     254
 10
35.5533
 20
245.118
 30
0.0
 11
35.5505
 21
245.1
 31
0.0
  0
LINE
  8
0
 62
     254
 10
35.5505
 20
245.1
 30
0.0
 11
35.523
 21
244.913
 31
0.0
  0
LINE
  8
0
 62
     254
 10
35.523
 20
244.913
 30
0.0
 11
35.5205
 21
244.894
 31
0.0
  0
LINE
  8
0
 62
     254
 10
35.5205
 20
244.894
 30
0.0
 11
35.5286
 21
244.802
 31
0.0
  0
LINE
  8
0
 62
     254
 10
35.5286
 20
244.802
 30
0.0
 11
35.6387
 21
243.852
 31
0.0
  0
LINE
  8
0
 62
     254
 10
35.6387
 20
243.852
 30
0.0
 11
35.6528
 21
243.754
 31
0.0
  0
LINE
  8
0
 62
     254
 10
35.6528
 20
243.754
 30
0.0
 11
36.2906
 21
243.905
 31
0.0
  0
LINE
  8
0
 62
     254
 10
36.2906
 20
243.905
 30
0.0
 11
43.1119
 21
244.943
 31
0.0
  0
LINE
  8
0
 62
     254
 10
43.1119
 20
244.943
 30
0.0
 11
43.8397
 21
245
 31
0.0
  0
LINE
  8
0
 62
     254
 10
60.143
 20
244.297
 30
0.0
 11
60.6707
 21
244.203
 31
0.0
  0
LINE
  8
0
 62
     254
 10
60.6707
 20
244.203
 30
0.0
 11
65.6731
 21
242.971
 31
0.0
  0
LINE
  8
0
 62
     254
 10
65.6731
 20
242.971
 30
0.0
 11
66.1472
 21
242.82
 31
0.0
  0
LINE
  8
0
 62
     254
 10
66.1472
 20
242.82
 30
0.0
 11
66.2383
 21
242.907
 31
0.0
  0
LINE
  8
0
 62
     254
 10
66.2383
 20
242.907
 30
0.0
 11
67.1918
 21
243.885
 31
0.0
  0
LINE
  8
0
 62
     254
 10
67.1918
 20
243.885
 30
0.0
 11
67.2924
 21
243.994
 31
0.0
  0
LINE
  8
0
 62
     254
 10
67.2924
 20
243.994
 30
0.0
 11
67.5337
 21
244.262
 31
0.0
  0
LINE
  8
0
 62
     254
 10
67.5337
 20
244.262
 30
0.0
 11
68.5437
 21
245.584
 31
0.0
  0
LINE
  8
0
 62
     254
 10
68.5437
 20
245.584
 30
0.0
 11
69.3113
 21
246.885
 31
0.0
  0
LINE
  8
0
 62
     254
 10
69.3113
 20
246.885
 30
0.0
 11
69.4313
 21
247.14
 31
0.0
  0
LINE
  8
0
 62
     254
 10
69.4313
 20
247.14
 30
0.0
 11
69.3953
 21
247.234
 31
0.0
  0
LINE
  8
0
 62
     254
 10
69.3953
 20
247.234
 30
0.0
 11
69.4337
 21
247.741
 31
0.0
  0
LINE
  8
0
 62
     254
 10
69.4337
 20
247.741
 30
0.0
 11
69.795
 21
248.288
 31
0.0
  0
LINE
  8
0
 62
     254
 10
69.795
 20
248.288
 30
0.0
 11
69.9216
 21
248.402
 31
0.0
  0
LINE
  8
0
 62
     254
 10
69.9216
 20
248.402
 30
0.0
 11
69.9781
 21
248.584
 31
0.0
  0
LINE
  8
0
 62
     254
 10
69.9781
 20
248.584
 30
0.0
 11
70.3185
 21
250.348
 31
0.0
  0
LINE
  8
0
 62
     254
 10
70.3185
 20
250.348
 30
0.0
 11
70.3322
 21
250.519
 31
0.0
  0
LINE
  8
0
 62
     254
 10
70.3322
 20
250.519
 30
0.0
 11
70.3213
 21
250.519
 31
0.0
  0
LINE
  8
0
 62
     254
 10
70.3213
 20
250.519
 30
0.0
 11
70.2123
 21
250.509
 31
0.0
  0
LINE
  8
0
 62
     254
 10
70.2123
 20
250.509
 30
0.0
 11
70.2014
 21
250.508
 31
0.0
  0
LINE
  8
0
 62
     254
 10
70.2014
 20
250.508
 30
0.0
 11
70.1657
 21
250.412
 31
0.0
  0
LINE
  8
0
 62
     254
 10
70.1657
 20
250.412
 30
0.0
 11
69.9671
 21
250.026
 31
0.0
  0
LINE
  8
0
 62
     254
 10
69.9671
 20
250.026
 30
0.0
 11
69.7177
 21
249.832
 31
0.0
  0
LINE
  8
0
 62
     254
 10
69.7177
 20
249.832
 30
0.0
 11
69.6584
 21
249.83
 31
0.0
  0
LINE
  8
0
 62
     254
 10
69.6584
 20
249.83
 30
0.0
 11
69.5494
 21
249.83
 31
0.0
  0
LINE
  8
0
 62
     254
 10
69.5494
 20
249.83
 30
0.0
 11
69.2245
 21
249.968
 31
0.0
  0
LINE
  8
0
 62
     254
 10
69.2245
 20
249.968
 30
0.0
 11
69.2161
 21
250.297
 31
0.0
  0
LINE
  8
0
 62
     254
 10
69.2161
 20
250.297
 30
0.0
 11
69.2464
 21
250.391
 31
0.0
  0
LINE
  8
0
 62
     254
 10
69.2464
 20
250.391
 30
0.0
 11
68.4555
 21
250.263
 31
0.0
  0
LINE
  8
0
 62
     254
 10
68.4555
 20
250.263
 30
0.0
 11
66.161
 21
249.418
 31
0.0
  0
LINE
  8
0
 62
     254
 10
66.161
 20
249.418
 30
0.0
 11
63.6997
 21
247.851
 31
0.0
  0
LINE
  8
0
 62
     254
 10
63.6997
 20
247.851
 30
0.0
 11
61.7361
 21
246.031
 31
0.0
  0
LINE
  8
0
 62
     254
 10
61.7361
 20
246.031
 30
0.0
 11
60.5413
 21
244.73
 31
0.0
  0
LINE
  8
0
 62
     254
 10
60.5413
 20
244.73
 30
0.0
 11
60.143
 21
244.297
 31
0.0
  0
LINE
  8
0
 62
     254
 10
67.4688
 20
1.5875
 30
0.0
 11
67.4688
 21
68.7243
 31
0.0
  0
LINE
  8
0
 62
     254
 10
67.4688
 20
68.7243
 30
0.0
 11
68.3578
 21
69.1596
 31
0.0
  0
LINE
  8
0
 62
     254
 10
68.3578
 20
69.1596
 30
0.0
 11
69.5607
 21
69.7495
 31
0.0
  0
LINE
  8
0
 62
     254
 10
69.5607
 20
69.7495
 30
0.0
 11
73.0194
 21
71.8358
 31
0.0
  0
LINE
  8
0
 62
     254
 10
73.0194
 20
71.8358
 30
0.0
 11
77.2019
 21
75.0549
 31
0.0
  0
LINE
  8
0
 62
     254
 10
77.2019
 20
75.0549
 30
0.0
 11
80.9226
 21
78.8211
 31
0.0
  0
LINE
  8
0
 62
     254
 10
80.9226
 20
78.8211
 30
0.0
 11
84.1982
 21
83.1342
 31
0.0
  0
LINE
  8
0
 62
     254
 10
84.1982
 20
83.1342
 30
0.0
 11
87.0465
 21
88.0001
 31
0.0
  0
LINE
  8
0
 62
     254
 10
87.0465
 20
88.0001
 30
0.0
 11
89.4856
 21
93.4187
 31
0.0
  0
LINE
  8
0
 62
     254
 10
89.4856
 20
93.4187
 30
0.0
 11
91.5321
 21
99.3923
 31
0.0
  0
LINE
  8
0
 62
     254
 10
91.5321
 20
99.3923
 30
0.0
 11
92.8441
 21
104.279
 31
0.0
  0
LINE
  8
0
 62
     254
 10
92.8441
 20
104.279
 30
0.0
 11
93.2035
 21
105.924
 31
0.0
  0
LINE
  8
0
 62
     254
 10
93.2035
 20
105.924
 30
0.0
 11
93.526
 21
107.406
 31
0.0
  0
LINE
  8
0
 62
     254
 10
93.526
 20
107.406
 30
0.0
 11
94.3363
 21
111.884
 31
0.0
  0
LINE
  8
0
 62
     254
 10
94.3363
 20
111.884
 30
0.0
 11
95.232
 21
118.276
 31
0.0
  0
LINE
  8
0
 62
     254
 10
95.232
 20
118.276
 30
0.0
 11
95.9072
 21
125.155
 31
0.0
  0
LINE
  8
0
 62
     254
 10
95.9072
 20
125.155
 30
0.0
 11
96.2889
 21
130.722
 31
0.0
  0
LINE
  8
0
 62
     254
 10
96.2889
 20
130.722
 30
0.0
 11
96.3799
 21
132.578
 31
0.0
  0
LINE
  8
0
 62
     254
 10
96.3799
 20
132.578
 30
0.0
 11
96.4145
 21
133.296
 31
0.0
  0
LINE
  8
0
 62
     254
 10
96.4145
 20
133.296
 30
0.0
 11
96.508
 21
135.449
 31
0.0
  0
LINE
  8
0
 62
     254
 10
96.508
 20
135.449
 30
0.0
 11
96.6114
 21
138.297
 31
0.0
  0
LINE
  8
0
 62
     254
 10
96.6114
 20
138.297
 30
0.0
 11
96.6914
 21
141.232
 31
0.0
  0
LINE
  8
0
 62
     254
 10
96.6914
 20
141.232
 30
0.0
 11
96.7507
 21
144.362
 31
0.0
  0
LINE
  8
0
 62
     254
 10
96.7507
 20
144.362
 30
0.0
 11
96.792
 21
147.794
 31
0.0
  0
LINE
  8
0
 62
     254
 10
96.792
 20
147.794
 30
0.0
 11
96.8181
 21
151.641
 31
0.0
  0
LINE
  8
0
 62
     254
 10
96.8181
 20
151.641
 30
0.0
 11
96.8333
 21
156.005
 31
0.0
  0
LINE
  8
0
 62
     254
 10
96.8333
 20
156.005
 30
0.0
 11
96.8375
 21
159.75
 31
0.0
  0
LINE
  8
0
 62
     254
 10
96.8375
 20
159.75
 30
0.0
 11
96.8375
 21
160.999
 31
0.0
  0
LINE
  8
0
 62
     254
 10
96.8375
 20
160.999
 30
0.0
 11
96.8375
 21
163.547
 31
0.0
  0
LINE
  8
0
 62
     254
 10
96.8375
 20
163.547
 30
0.0
 11
96.7123
 21
171.19
 31
0.0
  0
LINE
  8
0
 62
     254
 10
96.7123
 20
171.19
 30
0.0
 11
96.3263
 21
180.549
 31
0.0
  0
LINE
  8
0
 62
     254
 10
96.3263
 20
180.549
 30
0.0
 11
95.6677
 21
189.119
 31
0.0
  0
LINE
  8
0
 62
     254
 10
95.6677
 20
189.119
 30
0.0
 11
94.7194
 21
196.94
 31
0.0
  0
LINE
  8
0
 62
     254
 10
94.7194
 20
196.94
 30
0.0
 11
93.4667
 21
204.053
 31
0.0
  0
LINE
  8
0
 62
     254
 10
93.4667
 20
204.053
 30
0.0
 11
91.8958
 21
210.498
 31
0.0
  0
LINE
  8
0
 62
     254
 10
91.8958
 20
210.498
 30
0.0
 11
89.9929
 21
216.319
 31
0.0
  0
LINE
  8
0
 62
     254
 10
89.9929
 20
216.319
 30
0.0
 11
88.3694
 21
220.277
 31
0.0
  0
LINE
  8
0
 62
     254
 10
88.3694
 20
220.277
 30
0.0
 11
87.744
 21
221.554
 31
0.0
  0
LINE
  8
0
 62
     254
 10
87.744
 20
221.554
 30
0.0
 11
87.0878
 21
222.892
 31
0.0
  0
LINE
  8
0
 62
     254
 10
87.0878
 20
222.892
 30
0.0
 11
84.7933
 21
226.744
 31
0.0
  0
LINE
  8
0
 62
     254
 10
84.7933
 20
226.744
 30
0.0
 11
81.3551
 21
231.233
 31
0.0
  0
LINE
  8
0
 62
     254
 10
81.3551
 20
231.233
 30
0.0
 11
77.4072
 21
235.026
 31
0.0
  0
LINE
  8
0
 62
     254
 10
77.4072
 20
235.026
 30
0.0
 11
72.9245
 21
238.124
 31
0.0
  0
LINE
  8
0
 62
     254
 10
72.9245
 20
238.124
 30
0.0
 11
67.8864
 21
240.53
 31
0.0
  0
LINE
  8
0
 62
     254
 10
67.8864
 20
240.53
 30
0.0
 11
62.2709
 21
242.245
 31
0.0
  0
LINE
  8
0
 62
     254
 10
62.2709
 20
242.245
 30
0.0
 11
56.0532
 21
243.273
 31
0.0
  0
LINE
  8
0
 62
     254
 10
56.0532
 20
243.273
 30
0.0
 11
50.9228
 21
243.615
 31
0.0
  0
LINE
  8
0
 62
     254
 10
50.9228
 20
243.615
 30
0.0
 11
49.2125
 21
243.615
 31
0.0
  0
LINE
  8
0
 62
     254
 10
49.2125
 20
243.615
 30
0.0
 11
47.5008
 21
243.615
 31
0.0
  0
LINE
  8
0
 62
     254
 10
47.5008
 20
243.615
 30
0.0
 11
42.3704
 21
243.273
 31
0.0
  0
LINE
  8
0
 62
     254
 10
42.3704
 20
243.273
 30
0.0
 11
36.1527
 21
242.245
 31
0.0
  0
LINE
  8
0
 62
     254
 10
36.1527
 20
242.245
 30
0.0
 11
30.5373
 21
240.53
 31
0.0
  0
LINE
  8
0
 62
     254
 10
30.5373
 20
240.53
 30
0.0
 11
25.4992
 21
238.124
 31
0.0
  0
LINE
  8
0
 62
     254
 10
25.4992
 20
238.124
 30
0.0
 11
21.0165
 21
235.026
 31
0.0
  0
LINE
  8
0
 62
     254
 10
21.0165
 20
235.026
 30
0.0
 11
17.0684
 21
231.233
 31
0.0
  0
LINE
  8
0
 62
     254
 10
17.0684
 20
231.233
 30
0.0
 11
13.6302
 21
226.744
 31
0.0
  0
LINE
  8
0
 62
     254
 10
13.6302
 20
226.744
 30
0.0
 11
11.3357
 21
222.892
 31
0.0
  0
LINE
  8
0
 62
     254
 10
11.3357
 20
222.892
 30
0.0
 11
10.6812
 21
221.554
 31
0.0
  0
LINE
  8
0
 62
     254
 10
10.6812
 20
221.554
 30
0.0
 11
10.0542
 21
220.277
 31
0.0
  0
LINE
  8
0
 62
     254
 10
10.0542
 20
220.277
 30
0.0
 11
8.43082
 21
216.319
 31
0.0
  0
LINE
  8
0
 62
     254
 10
8.43082
 20
216.319
 30
0.0
 11
6.52776
 21
210.498
 31
0.0
  0
LINE
  8
0
 62
     254
 10
6.52776
 20
210.498
 30
0.0
 11
4.95681
 21
204.053
 31
0.0
  0
LINE
  8
0
 62
     254
 10
4.95681
 20
204.053
 30
0.0
 11
3.70554
 21
196.94
 31
0.0
  0
LINE
  8
0
 62
     254
 10
3.70554
 20
196.94
 30
0.0
 11
2.75608
 21
189.119
 31
0.0
  0
LINE
  8
0
 62
     254
 10
2.75608
 20
189.119
 30
0.0
 11
2.09737
 21
180.549
 31
0.0
  0
LINE
  8
0
 62
     254
 10
2.09737
 20
180.549
 30
0.0
 11
1.71152
 21
171.19
 31
0.0
  0
LINE
  8
0
 62
     254
 10
1.71152
 20
171.19
 30
0.0
 11
1.5875
 21
163.547
 31
0.0
  0
LINE
  8
0
 62
     254
 10
1.5875
 20
163.547
 30
0.0
 11
1.5875
 21
160.999
 31
0.0
  0
LINE
  8
0
 62
     254
 10
1.5875
 20
160.999
 30
0.0
 11
1.5875
 21
159.756
 31
0.0
  0
LINE
  8
0
 62
     254
 10
1.5875
 20
159.756
 30
0.0
 11
1.59026
 21
156.023
 31
0.0
  0
LINE
  8
0
 62
     254
 10
1.59026
 20
156.023
 30
0.0
 11
1.60404
 21
151.671
 31
0.0
  0
LINE
  8
0
 62
     254
 10
1.60404
 20
151.671
 30
0.0
 11
1.63022
 21
147.836
 31
0.0
  0
LINE
  8
0
 62
     254
 10
1.63022
 20
147.836
 30
0.0
 11
1.67156
 21
144.409
 31
0.0
  0
LINE
  8
0
 62
     254
 10
1.67156
 20
144.409
 30
0.0
 11
1.73082
 21
141.283
 31
0.0
  0
LINE
  8
0
 62
     254
 10
1.73082
 20
141.283
 30
0.0
 11
1.81074
 21
138.35
 31
0.0
  0
LINE
  8
0
 62
     254
 10
1.81074
 20
138.35
 30
0.0
 11
1.91272
 21
135.501
 31
0.0
  0
LINE
  8
0
 62
     254
 10
1.91272
 20
135.501
 30
0.0
 11
2.00504
 21
133.346
 31
0.0
  0
LINE
  8
0
 62
     254
 10
2.00504
 20
133.346
 30
0.0
 11
2.04088
 21
132.628
 31
0.0
  0
LINE
  8
0
 62
     254
 10
2.04088
 20
132.628
 30
0.0
 11
2.13045
 21
130.768
 31
0.0
  0
LINE
  8
0
 62
     254
 10
2.13045
 20
130.768
 30
0.0
 11
2.50803
 21
125.191
 31
0.0
  0
LINE
  8
0
 62
     254
 10
2.50803
 20
125.191
 30
0.0
 11
3.17638
 21
118.295
 31
0.0
  0
LINE
  8
0
 62
     254
 10
3.17638
 20
118.295
 30
0.0
 11
4.0652
 21
111.887
 31
0.0
  0
LINE
  8
0
 62
     254
 10
4.0652
 20
111.887
 30
0.0
 11
4.86862
 21
107.396
 31
0.0
  0
LINE
  8
0
 62
     254
 10
4.86862
 20
107.396
 30
0.0
 11
5.18968
 21
105.909
 31
0.0
  0
LINE
  8
0
 62
     254
 10
5.18968
 20
105.909
 30
0.0
 11
5.54524
 21
104.258
 31
0.0
  0
LINE
  8
0
 62
     254
 10
5.54524
 20
104.258
 30
0.0
 11
6.84611
 21
99.351
 31
0.0
  0
LINE
  8
0
 62
     254
 10
6.84611
 20
99.351
 30
0.0
 11
8.87596
 21
93.3581
 31
0.0
  0
LINE
  8
0
 62
     254
 10
8.87596
 20
93.3581
 30
0.0
 11
11.293
 21
87.927
 31
0.0
  0
LINE
  8
0
 62
     254
 10
11.293
 20
87.927
 30
0.0
 11
14.1152
 21
83.0584
 31
0.0
  0
LINE
  8
0
 62
     254
 10
14.1152
 20
83.0584
 30
0.0
 11
17.3605
 21
78.7481
 31
0.0
  0
LINE
  8
0
 62
     254
 10
17.3605
 20
78.7481
 30
0.0
 11
21.044
 21
74.997
 31
0.0
  0
LINE
  8
0
 62
     254
 10
21.044
 20
74.997
 30
0.0
 11
25.185
 21
71.8012
 31
0.0
  0
LINE
  8
0
 62
     254
 10
25.185
 20
71.8012
 30
0.0
 11
28.6067
 21
69.741
 31
0.0
  0
LINE
  8
0
 62
     254
 10
28.6067
 20
69.741
 30
0.0
 11
29.7987
 21
69.161
 31
0.0
  0
LINE
  8
0
 62
     254
 10
29.7987
 20
69.161
 30
0.0
 11
30.6917
 21
68.7268
 31
0.0
  0
LINE
  8
0
 62
     254
 10
30.6917
 20
68.7268
 30
0.0
 11
30.6917
 21
1.5875
 31
0.0
  0
LINE
  8
0
 62
     254
 10
30.6917
 20
1.5875
 30
0.0
 11
67.4688
 21
1.5875
 31
0.0
  0
LINE
  8
0
 62
     254
 10
78.4394
 20
301.748
 30
0.0
 11
78.3248
 21
301.85
 31
0.0
  0
LINE
  8
0
 62
     254
 10
78.3248
 20
301.85
 30
0.0
 11
76.9511
 21
302.77
 31
0.0
  0
LINE
  8
0
 62
     254
 10
76.9511
 20
302.77
 30
0.0
 11
76.7941
 21
302.85
 31
0.0
  0
LINE
  8
0
 62
     254
 10
76.7941
 20
302.85
 30
0.0
 11
76.678
 21
302.69
 31
0.0
  0
LINE
  8
0
 62
     254
 10
76.678
 20
302.69
 30
0.0
 11
75.3015
 21
301.198
 31
0.0
  0
LINE
  8
0
 62
     254
 10
75.3015
 20
301.198
 30
0.0
 11
75.1417
 21
301.061
 31
0.0
  0
LINE
  8
0
 62
     254
 10
75.1417
 20
301.061
 30
0.0
 11
75.2105
 21
301.003
 31
0.0
  0
LINE
  8
0
 62
     254
 10
75.2105
 20
301.003
 30
0.0
 11
76.0042
 21
300.476
 31
0.0
  0
LINE
  8
0
 62
     254
 10
76.0042
 20
300.476
 30
0.0
 11
76.0924
 21
300.427
 31
0.0
  0
LINE
  8
0
 62
     254
 10
76.0924
 20
300.427
 30
0.0
 11
76.2977
 21
300.564
 31
0.0
  0
LINE
  8
0
 62
     254
 10
76.2977
 20
300.564
 30
0.0
 11
78.2532
 21
301.663
 31
0.0
  0
LINE
  8
0
 62
     254
 10
78.2532
 20
301.663
 30
0.0
 11
78.4394
 21
301.748
 31
0.0
  0
LINE
  8
0
 62
     254
 10
75.4172
 20
291.784
 30
0.0
 11
75.7163
 21
291.877
 31
0.0
  0
LINE
  8
0
 62
     254
 10
75.7163
 20
291.877
 30
0.0
 11
76.6519
 21
292.044
 31
0.0
  0
LINE
  8
0
 62
     254
 10
76.6519
 20
292.044
 30
0.0
 11
77.7201
 21
292.027
 31
0.0
  0
LINE
  8
0
 62
     254
 10
77.7201
 20
292.027
 30
0.0
 11
78.6296
 21
291.773
 31
0.0
  0
LINE
  8
0
 62
     254
 10
78.6296
 20
291.773
 30
0.0
 11
79.3859
 21
291.321
 31
0.0
  0
LINE
  8
0
 62
     254
 10
79.3859
 20
291.321
 30
0.0
 11
79.998
 21
290.707
 31
0.0
  0
LINE
  8
0
 62
     254
 10
79.998
 20
290.707
 30
0.0
 11
80.4732
 21
289.97
 31
0.0
  0
LINE
  8
0
 62
     254
 10
80.4732
 20
289.97
 30
0.0
 11
80.8207
 21
289.147
 31
0.0
  0
LINE
  8
0
 62
     254
 10
80.8207
 20
289.147
 30
0.0
 11
81.0052
 21
288.496
 31
0.0
  0
LINE
  8
0
 62
     254
 10
81.0052
 20
288.496
 30
0.0
 11
81.0479
 21
288.274
 31
0.0
  0
LINE
  8
0
 62
     254
 10
81.0479
 20
288.274
 30
0.0
 11
81.3319
 21
288.52
 31
0.0
  0
LINE
  8
0
 62
     254
 10
81.3319
 20
288.52
 30
0.0
 11
82.2043
 21
289.237
 31
0.0
  0
LINE
  8
0
 62
     254
 10
82.2043
 20
289.237
 30
0.0
 11
83.2171
 21
289.88
 31
0.0
  0
LINE
  8
0
 62
     254
 10
83.2171
 20
289.88
 30
0.0
 11
84.1223
 21
290.05
 31
0.0
  0
LINE
  8
0
 62
     254
 10
84.1223
 20
290.05
 30
0.0
 11
84.7947
 21
289.752
 31
0.0
  0
LINE
  8
0
 62
     254
 10
84.7947
 20
289.752
 30
0.0
 11
84.9535
 21
289.589
 31
0.0
  0
LINE
  8
0
 62
     254
 10
84.9535
 20
289.589
 30
0.0
 11
84.963
 21
289.579
 31
0.0
  0
LINE
  8
0
 62
     254
 10
84.963
 20
289.579
 30
0.0
 11
85.0565
 21
289.476
 31
0.0
  0
LINE
  8
0
 62
     254
 10
85.0565
 20
289.476
 30
0.0
 11
85.0664
 21
289.465
 31
0.0
  0
LINE
  8
0
 62
     254
 10
85.0664
 20
289.465
 30
0.0
 11
85.047
 21
289.884
 31
0.0
  0
LINE
  8
0
 62
     254
 10
85.047
 20
289.884
 30
0.0
 11
84.7947
 21
291.13
 31
0.0
  0
LINE
  8
0
 62
     254
 10
84.7947
 20
291.13
 30
0.0
 11
84.165
 21
292.842
 31
0.0
  0
LINE
  8
0
 62
     254
 10
84.165
 20
292.842
 30
0.0
 11
83.2323
 21
294.399
 31
0.0
  0
LINE
  8
0
 62
     254
 10
83.2323
 20
294.399
 30
0.0
 11
82.386
 21
295.352
 31
0.0
  0
LINE
  8
0
 62
     254
 10
82.386
 20
295.352
 30
0.0
 11
82.0526
 21
295.599
 31
0.0
  0
LINE
  8
0
 62
     254
 10
82.0526
 20
295.599
 30
0.0
 11
82.0014
 21
295.396
 31
0.0
  0
LINE
  8
0
 62
     254
 10
82.0014
 20
295.396
 30
0.0
 11
81.7866
 21
294.799
 31
0.0
  0
LINE
  8
0
 62
     254
 10
81.7866
 20
294.799
 30
0.0
 11
81.4585
 21
294.291
 31
0.0
  0
LINE
  8
0
 62
     254
 10
81.4585
 20
294.291
 30
0.0
 11
81.0616
 21
294.035
 31
0.0
  0
LINE
  8
0
 62
     254
 10
81.0616
 20
294.035
 30
0.0
 11
80.5903
 21
293.995
 31
0.0
  0
LINE
  8
0
 62
     254
 10
80.5903
 20
293.995
 30
0.0
 11
80.035
 21
294.137
 31
0.0
  0
LINE
  8
0
 62
     254
 10
80.035
 20
294.137
 30
0.0
 11
79.3902
 21
294.419
 31
0.0
  0
LINE
  8
0
 62
     254
 10
79.3902
 20
294.419
 30
0.0
 11
78.65
 21
294.809
 31
0.0
  0
LINE
  8
0
 62
     254
 10
78.65
 20
294.809
 30
0.0
 11
78.0175
 21
295.155
 31
0.0
  0
LINE
  8
0
 62
     254
 10
78.0175
 20
295.155
 30
0.0
 11
77.8069
 21
295.268
 31
0.0
  0
LINE
  8
0
 62
     254
 10
77.8069
 20
295.268
 30
0.0
 11
77.6083
 21
295.089
 31
0.0
  0
LINE
  8
0
 62
     254
 10
77.6083
 20
295.089
 30
0.0
 11
76.6106
 21
293.873
 31
0.0
  0
LINE
  8
0
 62
     254
 10
76.6106
 20
293.873
 30
0.0
 11
75.6144
 21
292.195
 31
0.0
  0
LINE
  8
0
 62
     254
 10
75.6144
 20
292.195
 30
0.0
 11
75.4172
 21
291.784
 31
0.0
  0
LINE
  8
0
 62
     254
 10
59.3866
 20
279.856
 30
0.0
 11
59.5986
 21
279.942
 31
0.0
  0
LINE
  8
0
 62
     254
 10
59.5986
 20
279.942
 30
0.0
 11
60.8224
 21
280.228
 31
0.0
  0
LINE
  8
0
 62
     254
 10
60.8224
 20
280.228
 30
0.0
 11
62.2184
 21
280.326
 31
0.0
  0
LINE
  8
0
 62
     254
 10
62.2184
 20
280.326
 30
0.0
 11
62.5189
 21
280.315
 31
0.0
  0
LINE
  8
0
 62
     254
 10
62.5189
 20
280.315
 30
0.0
 11
62.4265
 21
280.534
 31
0.0
  0
LINE
  8
0
 62
     254
 10
62.4265
 20
280.534
 30
0.0
 11
61.2634
 21
282.788
 31
0.0
  0
LINE
  8
0
 62
     254
 10
61.2634
 20
282.788
 30
0.0
 11
61.1202
 21
283.02
 31
0.0
  0
LINE
  8
0
 62
     254
 10
61.1202
 20
283.02
 30
0.0
 11
60.9395
 21
282.871
 31
0.0
  0
LINE
  8
0
 62
     254
 10
60.9395
 20
282.871
 30
0.0
 11
59.1704
 21
281.244
 31
0.0
  0
LINE
  8
0
 62
     254
 10
59.1704
 20
281.244
 30
0.0
 11
58.9979
 21
281.079
 31
0.0
  0
LINE
  8
0
 62
     254
 10
58.9979
 20
281.079
 30
0.0
 11
59.0173
 21
280.98
 31
0.0
  0
LINE
  8
0
 62
     254
 10
59.0173
 20
280.98
 30
0.0
 11
59.3411
 21
279.961
 31
0.0
  0
LINE
  8
0
 62
     254
 10
59.3411
 20
279.961
 30
0.0
 11
59.3866
 21
279.856
 31
0.0
  0
LINE
  8
0
 62
     254
 10
78.238
 20
286.923
 30
0.0
 11
78.19
 21
287.07
 31
0.0
  0
LINE
  8
0
 62
     254
 10
78.19
 20
287.07
 30
0.0
 11
77.8619
 21
287.774
 31
0.0
  0
LINE
  8
0
 62
     254
 10
77.8619
 20
287.774
 30
0.0
 11
77.4277
 21
288.392
 31
0.0
  0
LINE
  8
0
 62
     254
 10
77.4277
 20
288.392
 30
0.0
 11
77.3271
 21
288.494
 31
0.0
  0
LINE
  8
0
 62
     254
 10
77.3271
 20
288.494
 30
0.0
 11
77.337
 21
288.411
 31
0.0
  0
LINE
  8
0
 62
     254
 10
77.337
 20
288.411
 30
0.0
 11
77.3299
 21
287.43
 31
0.0
  0
LINE
  8
0
 62
     254
 10
77.3299
 20
287.43
 30
0.0
 11
77.3218
 21
287.316
 31
0.0
  0
LINE
  8
0
 62
     254
 10
77.3218
 20
287.316
 30
0.0
 11
77.3977
 21
287.28
 31
0.0
  0
LINE
  8
0
 62
     254
 10
77.3977
 20
287.28
 30
0.0
 11
78.1611
 21
286.953
 31
0.0
  0
LINE
  8
0
 62
     254
 10
78.1611
 20
286.953
 30
0.0
 11
78.238
 21
286.923
 31
0.0
  0
LINE
  8
0
 62
     254
 10
79.0014
 20
264.189
 30
0.0
 11
78.9862
 21
264.182
 31
0.0
  0
LINE
  8
0
 62
     254
 10
78.9862
 20
264.182
 30
0.0
 11
78.8444
 21
264.101
 31
0.0
  0
LINE
  8
0
 62
     254
 10
78.8444
 20
264.101
 30
0.0
 11
78.8307
 21
264.093
 31
0.0
  0
LINE
  8
0
 62
     254
 10
78.8307
 20
264.093
 30
0.0
 11
78.7178
 21
263.995
 31
0.0
  0
LINE
  8
0
 62
     254
 10
78.7178
 20
263.995
 30
0.0
 11
77.4982
 21
263.095
 31
0.0
  0
LINE
  8
0
 62
     254
 10
77.4982
 20
263.095
 30
0.0
 11
77.3673
 21
263.015
 31
0.0
  0
LINE
  8
0
 62
     254
 10
77.3673
 20
263.015
 30
0.0
 11
77.3698
 21
262.982
 31
0.0
  0
LINE
  8
0
 62
     254
 10
77.3698
 20
262.982
 30
0.0
 11
77.41
 21
262.65
 31
0.0
  0
LINE
  8
0
 62
     254
 10
77.41
 20
262.65
 30
0.0
 11
77.4153
 21
262.616
 31
0.0
  0
LINE
  8
0
 62
     254
 10
77.4153
 20
262.616
 30
0.0
 11
77.5751
 21
262.728
 31
0.0
  0
LINE
  8
0
 62
     254
 10
77.5751
 20
262.728
 30
0.0
 11
78.3071
 21
263.351
 31
0.0
  0
LINE
  8
0
 62
     254
 10
78.3071
 20
263.351
 30
0.0
 11
78.9065
 21
264.043
 31
0.0
  0
LINE
  8
0
 62
     254
 10
78.9065
 20
264.043
 30
0.0
 11
79.0014
 21
264.189
 31
0.0
  0
LINE
  8
0
 62
     254
 10
60.9769
 20
266.441
 30
0.0
 11
60.9618
 21
266.426
 31
0.0
  0
LINE
  8
0
 62
     254
 10
60.9618
 20
266.426
 30
0.0
 11
60.8087
 21
266.277
 31
0.0
  0
LINE
  8
0
 62
     254
 10
60.8087
 20
266.277
 30
0.0
 11
60.7949
 21
266.262
 31
0.0
  0
LINE
  8
0
 62
     254
 10
60.7949
 20
266.262
 30
0.0
 11
60.839
 21
266.248
 31
0.0
  0
LINE
  8
0
 62
     254
 10
60.839
 20
266.248
 30
0.0
 11
61.3117
 21
266.13
 31
0.0
  0
LINE
  8
0
 62
     254
 10
61.3117
 20
266.13
 30
0.0
 11
61.3625
 21
266.12
 31
0.0
  0
LINE
  8
0
 62
     254
 10
61.3625
 20
266.12
 30
0.0
 11
61.3311
 21
266.148
 31
0.0
  0
LINE
  8
0
 62
     254
 10
61.3311
 20
266.148
 30
0.0
 11
61.0097
 21
266.415
 31
0.0
  0
LINE
  8
0
 62
     254
 10
61.0097
 20
266.415
 30
0.0
 11
60.9769
 21
266.441
 31
0.0
  0
LINE
  8
0
 62
     254
 10
76.7457
 20
246.717
 30
0.0
 11
76.7002
 21
246.585
 31
0.0
  0
LINE
  8
0
 62
     254
 10
76.7002
 20
246.585
 30
0.0
 11
76.134
 21
245.263
 31
0.0
  0
LINE
  8
0
 62
     254
 10
76.134
 20
245.263
 30
0.0
 11
76.0663
 21
245.131
 31
0.0
  0
LINE
  8
0
 62
     254
 10
76.0663
 20
245.131
 30
0.0
 11
75.9008
 21
244.814
 31
0.0
  0
LINE
  8
0
 62
     254
 10
75.9008
 20
244.814
 30
0.0
 11
75.5936
 21
243.765
 31
0.0
  0
LINE
  8
0
 62
     254
 10
75.5936
 20
243.765
 30
0.0
 11
75.6528
 21
242.619
 31
0.0
  0
LINE
  8
0
 62
     254
 10
75.6528
 20
242.619
 30
0.0
 11
76.1478
 21
241.656
 31
0.0
  0
LINE
  8
0
 62
     254
 10
76.1478
 20
241.656
 30
0.0
 11
76.7486
 21
241.019
 31
0.0
  0
LINE
  8
0
 62
     254
 10
76.7486
 20
241.019
 30
0.0
 11
76.9758
 21
240.841
 31
0.0
  0
LINE
  8
0
 62
     254
 10
76.9758
 20
240.841
 30
0.0
 11
77.301
 21
240.972
 31
0.0
  0
LINE
  8
0
 62
     254
 10
77.301
 20
240.972
 30
0.0
 11
78.2366
 21
241.468
 31
0.0
  0
LINE
  8
0
 62
     254
 10
78.2366
 20
241.468
 30
0.0
 11
79.4096
 21
242.296
 31
0.0
  0
LINE
  8
0
 62
     254
 10
79.4096
 20
242.296
 30
0.0
 11
80.385
 21
243.279
 31
0.0
  0
LINE
  8
0
 62
     254
 10
80.385
 20
243.279
 30
0.0
 11
81.0602
 21
244.367
 31
0.0
  0
LINE
  8
0
 62
     254
 10
81.0602
 20
244.367
 30
0.0
 11
81.3276
 21
245.517
 31
0.0
  0
LINE
  8
0
 62
     254
 10
81.3276
 20
245.517
 30
0.0
 11
81.081
 21
246.678
 31
0.0
  0
LINE
  8
0
 62
     254
 10
81.081
 20
246.678
 30
0.0
 11
80.2128
 21
247.806
 31
0.0
  0
LINE
  8
0
 62
     254
 10
80.2128
 20
247.806
 30
0.0
 11
79.043
 21
248.641
 31
0.0
  0
LINE
  8
0
 62
     254
 10
79.043
 20
248.641
 30
0.0
 11
78.6197
 21
248.85
 31
0.0
  0
LINE
  8
0
 62
     254
 10
78.6197
 20
248.85
 30
0.0
 11
78.6045
 21
248.815
 31
0.0
  0
LINE
  8
0
 62
     254
 10
78.6045
 20
248.815
 30
0.0
 11
78.3579
 21
248.463
 31
0.0
  0
LINE
  8
0
 62
     254
 10
78.3579
 20
248.463
 30
0.0
 11
78.3237
 21
248.427
 31
0.0
  0
LINE
  8
0
 62
     254
 10
78.3237
 20
248.427
 30
0.0
 11
78.3153
 21
248.42
 31
0.0
  0
LINE
  8
0
 62
     254
 10
78.3153
 20
248.42
 30
0.0
 11
78.2327
 21
248.345
 31
0.0
  0
LINE
  8
0
 62
     254
 10
78.2327
 20
248.345
 30
0.0
 11
78.2242
 21
248.336
 31
0.0
  0
LINE
  8
0
 62
     254
 10
78.2242
 20
248.336
 30
0.0
 11
78.1417
 21
248.164
 31
0.0
  0
LINE
  8
0
 62
     254
 10
78.1417
 20
248.164
 30
0.0
 11
77.5959
 21
247.417
 31
0.0
  0
LINE
  8
0
 62
     254
 10
77.5959
 20
247.417
 30
0.0
 11
76.9013
 21
246.816
 31
0.0
  0
LINE
  8
0
 62
     254
 10
76.9013
 20
246.816
 30
0.0
 11
76.7457
 21
246.717
 31
0.0
  0
LINE
  8
0
 62
     254
 10
23.9186
 20
311.887
 30
0.0
 11
23.9172
 21
312.082
 31
0.0
  0
LINE
  8
0
 62
     254
 10
23.9172
 20
312.082
 30
0.0
 11
23.6141
 21
313.812
 31
0.0
  0
LINE
  8
0
 62
     254
 10
23.6141
 20
313.812
 30
0.0
 11
23.559
 21
313.967
 31
0.0
  0
LINE
  8
0
 62
     254
 10
23.559
 20
313.967
 30
0.0
 11
23.4129
 21
313.909
 31
0.0
  0
LINE
  8
0
 62
     254
 10
23.4129
 20
313.909
 30
0.0
 11
22.7514
 21
313.541
 31
0.0
  0
LINE
  8
0
 62
     254
 10
22.7514
 20
313.541
 30
0.0
 11
22.2112
 21
313.078
 31
0.0
  0
LINE
  8
0
 62
     254
 10
22.2112
 20
313.078
 30
0.0
 11
22.1272
 21
312.97
 31
0.0
  0
LINE
  8
0
 62
     254
 10
22.1272
 20
312.97
 30
0.0
 11
22.2333
 21
312.879
 31
0.0
  0
LINE
  8
0
 62
     254
 10
22.2333
 20
312.879
 30
0.0
 11
23.7229
 21
311.977
 31
0.0
  0
LINE
  8
0
 62
     254
 10
23.7229
 20
311.977
 30
0.0
 11
23.9186
 21
311.887
 31
0.0
  0
LINE
  8
0
 62
     254
 10
31.7472
 20
307.89
 30
0.0
 11
31.5171
 21
307.724
 31
0.0
  0
LINE
  8
0
 62
     254
 10
31.5171
 20
307.724
 30
0.0
 11
30.2479
 21
307.042
 31
0.0
  0
LINE
  8
0
 62
     254
 10
30.2479
 20
307.042
 30
0.0
 11
28.8355
 21
306.612
 31
0.0
  0
LINE
  8
0
 62
     254
 10
28.8355
 20
306.612
 30
0.0
 11
28.5337
 21
306.571
 31
0.0
  0
LINE
  8
0
 62
     254
 10
28.5337
 20
306.571
 30
0.0
 11
28.513
 21
306.518
 31
0.0
  0
LINE
  8
0
 62
     254
 10
28.513
 20
306.518
 30
0.0
 11
28.32
 21
305.949
 31
0.0
  0
LINE
  8
0
 62
     254
 10
28.32
 20
305.949
 30
0.0
 11
28.3022
 21
305.889
 31
0.0
  0
LINE
  8
0
 62
     254
 10
28.3022
 20
305.889
 30
0.0
 11
28.8534
 21
305.769
 31
0.0
  0
LINE
  8
0
 62
     254
 10
28.8534
 20
305.769
 30
0.0
 11
31.3945
 21
305.865
 31
0.0
  0
LINE
  8
0
 62
     254
 10
31.3945
 20
305.865
 30
0.0
 11
33.6186
 21
306.539
 31
0.0
  0
LINE
  8
0
 62
     254
 10
33.6186
 20
306.539
 30
0.0
 11
34.0114
 21
306.709
 31
0.0
  0
LINE
  8
0
 62
     254
 10
34.0114
 20
306.709
 30
0.0
 11
33.9645
 21
306.809
 31
0.0
  0
LINE
  8
0
 62
     254
 10
33.9645
 20
306.809
 30
0.0
 11
33.3637
 21
307.771
 31
0.0
  0
LINE
  8
0
 62
     254
 10
33.3637
 20
307.771
 30
0.0
 11
33.292
 21
307.859
 31
0.0
  0
LINE
  8
0
 62
     254
 10
33.292
 20
307.859
 30
0.0
 11
33.1735
 21
307.867
 31
0.0
  0
LINE
  8
0
 62
     254
 10
33.1735
 20
307.867
 30
0.0
 11
31.885
 21
307.895
 31
0.0
  0
LINE
  8
0
 62
     254
 10
31.885
 20
307.895
 30
0.0
 11
31.7472
 21
307.89
 31
0.0
  0
LINE
  8
0
 62
     254
 10
22.6577
 20
299.314
 30
0.0
 11
22.6536
 21
299.309
 31
0.0
  0
LINE
  8
0
 62
     254
 10
22.6536
 20
299.309
 30
0.0
 11
22.6233
 21
299.252
 31
0.0
  0
LINE
  8
0
 62
     254
 10
22.6233
 20
299.252
 30
0.0
 11
22.6205
 21
299.247
 31
0.0
  0
LINE
  8
0
 62
     254
 10
22.6205
 20
299.247
 30
0.0
 11
22.6481
 21
299.193
 31
0.0
  0
LINE
  8
0
 62
     254
 10
22.6481
 20
299.193
 30
0.0
 11
22.728
 21
298.835
 31
0.0
  0
LINE
  8
0
 62
     254
 10
22.728
 20
298.835
 30
0.0
 11
22.7128
 21
298.355
 31
0.0
  0
LINE
  8
0
 62
     254
 10
22.7128
 20
298.355
 30
0.0
 11
22.6949
 21
298.239
 31
0.0
  0
LINE
  8
0
 62
     254
 10
22.6949
 20
298.239
 30
0.0
 11
22.7886
 21
298.227
 31
0.0
  0
LINE
  8
0
 62
     254
 10
22.7886
 20
298.227
 30
0.0
 11
23.7381
 21
298.049
 31
0.0
  0
LINE
  8
0
 62
     254
 10
23.7381
 20
298.049
 30
0.0
 11
23.8345
 21
298.026
 31
0.0
  0
LINE
  8
0
 62
     254
 10
23.8345
 20
298.026
 30
0.0
 11
23.7849
 21
298.115
 31
0.0
  0
LINE
  8
0
 62
     254
 10
23.7849
 20
298.115
 30
0.0
 11
23.3577
 21
299.056
 31
0.0
  0
LINE
  8
0
 62
     254
 10
23.3577
 20
299.056
 30
0.0
 11
23.3233
 21
299.154
 31
0.0
  0
LINE
  8
0
 62
     254
 10
23.3233
 20
299.154
 30
0.0
 11
23.2682
 21
299.172
 31
0.0
  0
LINE
  8
0
 62
     254
 10
23.2682
 20
299.172
 30
0.0
 11
22.7128
 21
299.304
 31
0.0
  0
LINE
  8
0
 62
     254
 10
22.7128
 20
299.304
 30
0.0
 11
22.6577
 21
299.314
 31
0.0
  0
LINE
  8
0
 62
     254
 10
28.7776
 20
279.631
 30
0.0
 11
29.0256
 21
279.702
 31
0.0
  0
LINE
  8
0
 62
     254
 10
29.0256
 20
279.702
 30
0.0
 11
29.7505
 21
279.983
 31
0.0
  0
LINE
  8
0
 62
     254
 10
29.7505
 20
279.983
 30
0.0
 11
30.6048
 21
280.463
 31
0.0
  0
LINE
  8
0
 62
     254
 10
30.6048
 20
280.463
 30
0.0
 11
31.2856
 21
281.073
 31
0.0
  0
LINE
  8
0
 62
     254
 10
31.2856
 20
281.073
 30
0.0
 11
31.6604
 21
281.614
 31
0.0
  0
LINE
  8
0
 62
     254
 10
31.6604
 20
281.614
 30
0.0
 11
31.7404
 21
281.813
 31
0.0
  0
LINE
  8
0
 62
     254
 10
31.7404
 20
281.813
 30
0.0
 11
31.586
 21
281.869
 31
0.0
  0
LINE
  8
0
 62
     254
 10
31.586
 20
281.869
 30
0.0
 11
30.6296
 21
282.068
 31
0.0
  0
LINE
  8
0
 62
     254
 10
30.6296
 20
282.068
 30
0.0
 11
29.4087
 21
282.137
 31
0.0
  0
LINE
  8
0
 62
     254
 10
29.4087
 20
282.137
 30
0.0
 11
29.1221
 21
282.128
 31
0.0
  0
LINE
  8
0
 62
     254
 10
29.1221
 20
282.128
 30
0.0
 11
28.699
 21
282.117
 31
0.0
  0
LINE
  8
0
 62
     254
 10
28.699
 20
282.117
 30
0.0
 11
27.4354
 21
281.897
 31
0.0
  0
LINE
  8
0
 62
     254
 10
27.4354
 20
281.897
 30
0.0
 11
26.1056
 21
281.355
 31
0.0
  0
LINE
  8
0
 62
     254
 10
26.1056
 20
281.355
 30
0.0
 11
25.0762
 21
280.589
 31
0.0
  0
LINE
  8
0
 62
     254
 10
25.0762
 20
280.589
 30
0.0
 11
24.4643
 21
279.921
 31
0.0
  0
LINE
  8
0
 62
     254
 10
24.4643
 20
279.921
 30
0.0
 11
24.2907
 21
279.677
 31
0.0
  0
LINE
  8
0
 62
     254
 10
24.2907
 20
279.677
 30
0.0
 11
24.2948
 21
279.676
 31
0.0
  0
LINE
  8
0
 62
     254
 10
24.2948
 20
279.676
 30
0.0
 11
24.3003
 21
279.678
 31
0.0
  0
LINE
  8
0
 62
     254
 10
24.3003
 20
279.678
 30
0.0
 11
24.3072
 21
279.676
 31
0.0
  0
LINE
  8
0
 62
     254
 10
24.3072
 20
279.676
 30
0.0
 11
24.3748
 21
279.649
 31
0.0
  0
LINE
  8
0
 62
     254
 10
24.3748
 20
279.649
 30
0.0
 11
24.3816
 21
279.647
 31
0.0
  0
LINE
  8
0
 62
     254
 10
24.3816
 20
279.647
 30
0.0
 11
24.3954
 21
279.643
 31
0.0
  0
LINE
  8
0
 62
     254
 10
24.3954
 20
279.643
 30
0.0
 11
24.5346
 21
279.593
 31
0.0
  0
LINE
  8
0
 62
     254
 10
24.5346
 20
279.593
 30
0.0
 11
24.5484
 21
279.587
 31
0.0
  0
LINE
  8
0
 62
     254
 10
24.5484
 20
279.587
 30
0.0
 11
24.5677
 21
279.582
 31
0.0
  0
LINE
  8
0
 62
     254
 10
24.5677
 20
279.582
 30
0.0
 11
24.7702
 21
279.521
 31
0.0
  0
LINE
  8
0
 62
     254
 10
24.7702
 20
279.521
 30
0.0
 11
24.7909
 21
279.516
 31
0.0
  0
LINE
  8
0
 62
     254
 10
24.7909
 20
279.516
 30
0.0
 11
24.8019
 21
279.523
 31
0.0
  0
LINE
  8
0
 62
     254
 10
24.8019
 20
279.523
 30
0.0
 11
24.9163
 21
279.583
 31
0.0
  0
LINE
  8
0
 62
     254
 10
24.9163
 20
279.583
 30
0.0
 11
24.9287
 21
279.589
 31
0.0
  0
LINE
  8
0
 62
     254
 10
24.9287
 20
279.589
 30
0.0
 11
24.846
 21
279.604
 31
0.0
  0
LINE
  8
0
 62
     254
 10
24.846
 20
279.604
 30
0.0
 11
24.5566
 21
279.703
 31
0.0
  0
LINE
  8
0
 62
     254
 10
24.5566
 20
279.703
 30
0.0
 11
24.5098
 21
279.892
 31
0.0
  0
LINE
  8
0
 62
     254
 10
24.5098
 20
279.892
 30
0.0
 11
24.5346
 21
279.928
 31
0.0
  0
LINE
  8
0
 62
     254
 10
24.5346
 20
279.928
 30
0.0
 11
24.6242
 21
280.069
 31
0.0
  0
LINE
  8
0
 62
     254
 10
24.6242
 20
280.069
 30
0.0
 11
25.1699
 21
280.311
 31
0.0
  0
LINE
  8
0
 62
     254
 10
25.1699
 20
280.311
 30
0.0
 11
26.2268
 21
280.463
 31
0.0
  0
LINE
  8
0
 62
     254
 10
26.2268
 20
280.463
 30
0.0
 11
27.3237
 21
280.282
 31
0.0
  0
LINE
  8
0
 62
     254
 10
27.3237
 20
280.282
 30
0.0
 11
27.9783
 21
279.863
 31
0.0
  0
LINE
  8
0
 62
     254
 10
27.9783
 20
279.863
 30
0.0
 11
28.0858
 21
279.663
 31
0.0
  0
LINE
  8
0
 62
     254
 10
28.0858
 20
279.663
 30
0.0
 11
28.1423
 21
279.663
 31
0.0
  0
LINE
  8
0
 62
     254
 10
28.1423
 20
279.663
 30
0.0
 11
28.7197
 21
279.637
 31
0.0
  0
LINE
  8
0
 62
     254
 10
28.7197
 20
279.637
 30
0.0
 11
28.7776
 21
279.631
 31
0.0
  0
LINE
  8
0
 62
     254
 10
30.5966
 20
261.643
 30
0.0
 11
30.5842
 21
261.794
 31
0.0
  0
LINE
  8
0
 62
     254
 10
30.5842
 20
261.794
 30
0.0
 11
30.405
 21
262.618
 31
0.0
  0
LINE
  8
0
 62
     254
 10
30.405
 20
262.618
 30
0.0
 11
30.0481
 21
263.543
 31
0.0
  0
LINE
  8
0
 62
     254
 10
30.0481
 20
263.543
 30
0.0
 11
29.9489
 21
263.743
 31
0.0
  0
LINE
  8
0
 62
     254
 10
29.9489
 20
263.743
 30
0.0
 11
29.8993
 21
263.65
 31
0.0
  0
LINE
  8
0
 62
     254
 10
29.8993
 20
263.65
 30
0.0
 11
29.4983
 21
262.746
 31
0.0
  0
LINE
  8
0
 62
     254
 10
29.4983
 20
262.746
 30
0.0
 11
29.4666
 21
262.658
 31
0.0
  0
LINE
  8
0
 62
     254
 10
29.4666
 20
262.658
 30
0.0
 11
29.5424
 21
262.567
 31
0.0
  0
LINE
  8
0
 62
     254
 10
29.5424
 20
262.567
 30
0.0
 11
30.3223
 21
261.727
 31
0.0
  0
LINE
  8
0
 62
     254
 10
30.3223
 20
261.727
 30
0.0
 11
30.4023
 21
261.65
 31
0.0
  0
LINE
  8
0
 62
     254
 10
30.4023
 20
261.65
 30
0.0
 11
30.4175
 21
261.65
 31
0.0
  0
LINE
  8
0
 62
     254
 10
30.4175
 20
261.65
 30
0.0
 11
30.58
 21
261.644
 31
0.0
  0
LINE
  8
0
 62
     254
 10
30.58
 20
261.644
 30
0.0
 11
30.5966
 21
261.643
 31
0.0
  0
LINE
  8
0
 62
     254
 10
36.2659
 20
262.114
 30
0.0
 11
36.2878
 21
262.146
 31
0.0
  0
LINE
  8
0
 62
     254
 10
36.2878
 20
262.146
 30
0.0
 11
36.5069
 21
262.454
 31
0.0
  0
LINE
  8
0
 62
     254
 10
36.5069
 20
262.454
 30
0.0
 11
36.5291
 21
262.483
 31
0.0
  0
LINE
  8
0
 62
     254
 10
36.5291
 20
262.483
 30
0.0
 11
36.5234
 21
262.493
 31
0.0
  0
LINE
  8
0
 62
     254
 10
36.5234
 20
262.493
 30
0.0
 11
36.4712
 21
262.588
 31
0.0
  0
LINE
  8
0
 62
     254
 10
36.4712
 20
262.588
 30
0.0
 11
36.467
 21
262.598
 31
0.0
  0
LINE
  8
0
 62
     254
 10
36.467
 20
262.598
 30
0.0
 11
36.5594
 21
262.892
 31
0.0
  0
LINE
  8
0
 62
     254
 10
36.5594
 20
262.892
 30
0.0
 11
36.5898
 21
263.857
 31
0.0
  0
LINE
  8
0
 62
     254
 10
36.5898
 20
263.857
 30
0.0
 11
36.3044
 21
265.287
 31
0.0
  0
LINE
  8
0
 62
     254
 10
36.3044
 20
265.287
 30
0.0
 11
35.6401
 21
266.563
 31
0.0
  0
LINE
  8
0
 62
     254
 10
35.6401
 20
266.563
 30
0.0
 11
34.9181
 21
267.25
 31
0.0
  0
LINE
  8
0
 62
     254
 10
34.9181
 20
267.25
 30
0.0
 11
34.6329
 21
267.359
 31
0.0
  0
LINE
  8
0
 62
     254
 10
34.6329
 20
267.359
 30
0.0
 11
34.6122
 21
266.956
 31
0.0
  0
LINE
  8
0
 62
     254
 10
34.6122
 20
266.956
 30
0.0
 11
34.6659
 21
264.79
 31
0.0
  0
LINE
  8
0
 62
     254
 10
34.6659
 20
264.79
 30
0.0
 11
34.9512
 21
262.416
 31
0.0
  0
LINE
  8
0
 62
     254
 10
34.9512
 20
262.416
 30
0.0
 11
35.0477
 21
261.907
 31
0.0
  0
LINE
  8
0
 62
     254
 10
35.0477
 20
261.907
 30
0.0
 11
35.1469
 21
261.922
 31
0.0
  0
LINE
  8
0
 62
     254
 10
35.1469
 20
261.922
 30
0.0
 11
36.1625
 21
262.094
 31
0.0
  0
LINE
  8
0
 62
     254
 10
36.1625
 20
262.094
 30
0.0
 11
36.2659
 21
262.114
 31
0.0
  0
LINE
  8
0
 62
     254
 10
20.5507
 20
249.832
 30
0.0
 11
20.457
 21
249.849
 31
0.0
  0
LINE
  8
0
 62
     254
 10
20.457
 20
249.849
 30
0.0
 11
19.5392
 21
249.978
 31
0.0
  0
LINE
  8
0
 62
     254
 10
19.5392
 20
249.978
 30
0.0
 11
19.4483
 21
249.986
 31
0.0
  0
LINE
  8
0
 62
     254
 10
19.4483
 20
249.986
 30
0.0
 11
19.4345
 21
249.82
 31
0.0
  0
LINE
  8
0
 62
     254
 10
19.4345
 20
249.82
 30
0.0
 11
19.5406
 21
249.042
 31
0.0
  0
LINE
  8
0
 62
     254
 10
19.5406
 20
249.042
 30
0.0
 11
19.903
 21
248.366
 31
0.0
  0
LINE
  8
0
 62
     254
 10
19.903
 20
248.366
 30
0.0
 11
20.0188
 21
248.252
 31
0.0
  0
LINE
  8
0
 62
     254
 10
20.0188
 20
248.252
 30
0.0
 11
20.0546
 21
248.384
 31
0.0
  0
LINE
  8
0
 62
     254
 10
20.0546
 20
248.384
 30
0.0
 11
20.4983
 21
249.701
 31
0.0
  0
LINE
  8
0
 62
     254
 10
20.4983
 20
249.701
 30
0.0
 11
20.5507
 21
249.832
 31
0.0
  0
LINE
  8
0
 62
     254
 10
21.4437
 20
44.045
 30
0.0
 11
21.3389
 21
43.9431
 31
0.0
  0
LINE
  8
0
 62
     254
 10
21.3389
 20
43.9431
 30
0.0
 11
20.3798
 21
43.2347
 31
0.0
  0
LINE
  8
0
 62
     254
 10
20.3798
 20
43.2347
 30
0.0
 11
20.2902
 21
43.2043
 31
0.0
  0
LINE
  8
0
 62
     254
 10
20.2902
 20
43.2043
 30
0.0
 11
20.242
 21
43.0967
 31
0.0
  0
LINE
  8
0
 62
     254
 10
20.242
 20
43.0967
 30
0.0
 11
19.9195
 21
41.8359
 31
0.0
  0
LINE
  8
0
 62
     254
 10
19.9195
 20
41.8359
 30
0.0
 11
19.9044
 21
41.6966
 31
0.0
  0
LINE
  8
0
 62
     254
 10
19.9044
 20
41.6966
 30
0.0
 11
20.0711
 21
41.8084
 31
0.0
  0
LINE
  8
0
 62
     254
 10
20.0711
 20
41.8084
 30
0.0
 11
21.8598
 21
42.7838
 31
0.0
  0
LINE
  8
0
 62
     254
 10
21.8598
 20
42.7838
 30
0.0
 11
22.0514
 21
42.8653
 31
0.0
  0
LINE
  8
0
 62
     254
 10
22.0514
 20
42.8653
 30
0.0
 11
21.977
 21
42.9687
 31
0.0
  0
LINE
  8
0
 62
     254
 10
21.977
 20
42.9687
 30
0.0
 11
21.4685
 21
43.954
 31
0.0
  0
LINE
  8
0
 62
     254
 10
21.4685
 20
43.954
 30
0.0
 11
21.4437
 21
44.045
 31
0.0
  0
LINE
  8
0
 62
     254
 10
70.3446
 20
13.2498
 30
0.0
 11
70.3488
 21
13.2733
 31
0.0
  0
LINE
  8
0
 62
     254
 10
70.3488
 20
13.2733
 30
0.0
 11
70.3986
 21
13.5006
 31
0.0
  0
LINE
  8
0
 62
     254
 10
70.3986
 20
13.5006
 30
0.0
 11
70.4039
 21
13.5227
 31
0.0
  0
LINE
  8
0
 62
     254
 10
70.4039
 20
13.5227
 30
0.0
 11
70.4014
 21
13.5282
 31
0.0
  0
LINE
  8
0
 62
     254
 10
70.4014
 20
13.5282
 30
0.0
 11
70.3778
 21
13.5709
 31
0.0
  0
LINE
  8
0
 62
     254
 10
70.3778
 20
13.5709
 30
0.0
 11
70.3763
 21
13.5751
 31
0.0
  0
LINE
  8
0
 62
     254
 10
70.3763
 20
13.5751
 30
0.0
 11
70.3696
 21
13.5475
 31
0.0
  0
LINE
  8
0
 62
     254
 10
70.3696
 20
13.5475
 30
0.0
 11
70.3432
 21
13.276
 31
0.0
  0
LINE
  8
0
 62
     254
 10
70.3432
 20
13.276
 30
0.0
 11
70.3446
 21
13.2498
 31
0.0
  0
LINE
  8
0
 62
     254
 10
83.3727
 20
13.4621
 30
0.0
 11
83.1455
 21
13.6881
 31
0.0
  0
LINE
  8
0
 62
     254
 10
83.1455
 20
13.6881
 30
0.0
 11
81.872
 21
15.0978
 31
0.0
  0
LINE
  8
0
 62
     254
 10
81.872
 20
15.0978
 30
0.0
 11
80.3342
 21
16.6646
 31
0.0
  0
LINE
  8
0
 62
     254
 10
80.3342
 20
16.6646
 30
0.0
 11
79.9758
 21
16.9678
 31
0.0
  0
LINE
  8
0
 62
     254
 10
79.9758
 20
16.9678
 30
0.0
 11
80.0791
 21
16.7914
 31
0.0
  0
LINE
  8
0
 62
     254
 10
80.0791
 20
16.7914
 30
0.0
 11
80.3409
 21
16.2278
 31
0.0
  0
LINE
  8
0
 62
     254
 10
80.3409
 20
16.2278
 30
0.0
 11
80.5423
 21
15.5277
 31
0.0
  0
LINE
  8
0
 62
     254
 10
80.5423
 20
15.5277
 30
0.0
 11
80.5628
 21
14.909
 31
0.0
  0
LINE
  8
0
 62
     254
 10
80.5628
 20
14.909
 30
0.0
 11
80.4594
 21
14.5162
 31
0.0
  0
LINE
  8
0
 62
     254
 10
80.4594
 20
14.5162
 30
0.0
 11
80.3906
 21
14.4088
 31
0.0
  0
LINE
  8
0
 62
     254
 10
80.3906
 20
14.4088
 30
0.0
 11
80.33
 21
14.3164
 31
0.0
  0
LINE
  8
0
 62
     254
 10
80.33
 20
14.3164
 30
0.0
 11
80.0156
 21
14.1249
 31
0.0
  0
LINE
  8
0
 62
     254
 10
80.0156
 20
14.1249
 30
0.0
 11
79.5457
 21
14.2089
 31
0.0
  0
LINE
  8
0
 62
     254
 10
79.5457
 20
14.2089
 30
0.0
 11
78.9711
 21
14.5535
 31
0.0
  0
LINE
  8
0
 62
     254
 10
78.9711
 20
14.5535
 30
0.0
 11
78.4585
 21
14.9269
 31
0.0
  0
LINE
  8
0
 62
     254
 10
78.4585
 20
14.9269
 30
0.0
 11
78.2877
 21
15.0496
 31
0.0
  0
LINE
  8
0
 62
     254
 10
78.2877
 20
15.0496
 30
0.0
 11
78.2906
 21
14.9117
 31
0.0
  0
LINE
  8
0
 62
     254
 10
78.2906
 20
14.9117
 30
0.0
 11
78.2257
 21
13.5613
 31
0.0
  0
LINE
  8
0
 62
     254
 10
78.2257
 20
13.5613
 30
0.0
 11
78.2119
 21
13.429
 31
0.0
  0
LINE
  8
0
 62
     254
 10
78.2119
 20
13.429
 30
0.0
 11
78.6282
 21
13.378
 31
0.0
  0
LINE
  8
0
 62
     254
 10
78.6282
 20
13.378
 30
0.0
 11
79.8946
 21
13.3394
 31
0.0
  0
LINE
  8
0
 62
     254
 10
79.8946
 20
13.3394
 30
0.0
 11
81.34
 21
13.4138
 31
0.0
  0
LINE
  8
0
 62
     254
 10
81.34
 20
13.4138
 30
0.0
 11
82.5101
 21
13.5048
 31
0.0
  0
LINE
  8
0
 62
     254
 10
82.5101
 20
13.5048
 30
0.0
 11
83.1645
 21
13.5103
 31
0.0
  0
LINE
  8
0
 62
     254
 10
83.1645
 20
13.5103
 30
0.0
 11
83.3727
 21
13.4621
 31
0.0
  0
LINE
  8
0
 62
     254
 10
72.3526
 20
31.7252
 30
0.0
 11
72.365
 21
31.7307
 31
0.0
  0
LINE
  8
0
 62
     254
 10
72.365
 20
31.7307
 30
0.0
 11
72.4987
 21
31.7679
 31
0.0
  0
LINE
  8
0
 62
     254
 10
72.4987
 20
31.7679
 30
0.0
 11
72.5124
 21
31.7693
 31
0.0
  0
LINE
  8
0
 62
     254
 10
72.5124
 20
31.7693
 30
0.0
 11
72.4726
 21
31.7927
 31
0.0
  0
LINE
  8
0
 62
     254
 10
72.4726
 20
31.7927
 30
0.0
 11
72.4256
 21
31.9815
 31
0.0
  0
LINE
  8
0
 62
     254
 10
72.4256
 20
31.9815
 30
0.0
 11
72.5551
 21
32.2475
 31
0.0
  0
LINE
  8
0
 62
     254
 10
72.5551
 20
32.2475
 30
0.0
 11
72.5992
 21
32.3108
 31
0.0
  0
LINE
  8
0
 62
     254
 10
72.5992
 20
32.3108
 30
0.0
 11
72.5812
 21
32.3123
 31
0.0
  0
LINE
  8
0
 62
     254
 10
72.5812
 20
32.3123
 30
0.0
 11
72.409
 21
32.3191
 31
0.0
  0
LINE
  8
0
 62
     254
 10
72.409
 20
32.3191
 30
0.0
 11
72.3925
 21
32.3191
 31
0.0
  0
LINE
  8
0
 62
     254
 10
72.3925
 20
32.3191
 30
0.0
 11
72.3882
 21
32.2709
 31
0.0
  0
LINE
  8
0
 62
     254
 10
72.3882
 20
32.2709
 30
0.0
 11
72.3554
 21
31.7748
 31
0.0
  0
LINE
  8
0
 62
     254
 10
72.3554
 20
31.7748
 30
0.0
 11
72.3526
 21
31.7252
 31
0.0
  0
LINE
  8
0
 62
     254
 10
73.2331
 20
29.0725
 30
0.0
 11
73.3721
 21
29.0105
 31
0.0
  0
LINE
  8
0
 62
     254
 10
73.3721
 20
29.0105
 30
0.0
 11
74.1701
 21
28.7982
 31
0.0
  0
LINE
  8
0
 62
     254
 10
74.1701
 20
28.7982
 30
0.0
 11
75.1085
 21
28.7362
 31
0.0
  0
LINE
  8
0
 62
     254
 10
75.1085
 20
28.7362
 30
0.0
 11
75.3209
 21
28.75
 31
0.0
  0
LINE
  8
0
 62
     254
 10
75.3209
 20
28.75
 30
0.0
 11
75.336
 21
28.7514
 31
0.0
  0
LINE
  8
0
 62
     254
 10
75.336
 20
28.7514
 30
0.0
 11
75.4874
 21
28.7624
 31
0.0
  0
LINE
  8
0
 62
     254
 10
75.4874
 20
28.7624
 30
0.0
 11
75.5026
 21
28.7638
 31
0.0
  0
LINE
  8
0
 62
     254
 10
75.5026
 20
28.7638
 30
0.0
 11
75.4807
 21
28.8878
 31
0.0
  0
LINE
  8
0
 62
     254
 10
75.4807
 20
28.8878
 30
0.0
 11
75.1872
 21
29.4239
 31
0.0
  0
LINE
  8
0
 62
     254
 10
75.1872
 20
29.4239
 30
0.0
 11
74.7847
 21
29.7353
 31
0.0
  0
LINE
  8
0
 62
     254
 10
74.7847
 20
29.7353
 30
0.0
 11
74.7102
 21
29.745
 31
0.0
  0
LINE
  8
0
 62
     254
 10
74.7102
 20
29.745
 30
0.0
 11
74.64
 21
29.8883
 31
0.0
  0
LINE
  8
0
 62
     254
 10
74.64
 20
29.8883
 30
0.0
 11
74.5613
 21
30.3775
 31
0.0
  0
LINE
  8
0
 62
     254
 10
74.5613
 20
30.3775
 30
0.0
 11
74.7984
 21
30.6807
 31
0.0
  0
LINE
  8
0
 62
     254
 10
74.7984
 20
30.6807
 30
0.0
 11
75.2644
 21
30.6792
 31
0.0
  0
LINE
  8
0
 62
     254
 10
75.2644
 20
30.6792
 30
0.0
 11
75.686
 21
30.4932
 31
0.0
  0
LINE
  8
0
 62
     254
 10
75.686
 20
30.4932
 30
0.0
 11
75.8045
 21
30.4009
 31
0.0
  0
LINE
  8
0
 62
     254
 10
75.8045
 20
30.4009
 30
0.0
 11
75.795
 21
30.6062
 31
0.0
  0
LINE
  8
0
 62
     254
 10
75.795
 20
30.6062
 30
0.0
 11
75.6225
 21
32.6168
 31
0.0
  0
LINE
  8
0
 62
     254
 10
75.6225
 20
32.6168
 30
0.0
 11
75.5897
 21
32.8056
 31
0.0
  0
LINE
  8
0
 62
     254
 10
75.5897
 20
32.8056
 30
0.0
 11
75.4888
 21
32.7684
 31
0.0
  0
LINE
  8
0
 62
     254
 10
75.4888
 20
32.7684
 30
0.0
 11
74.3825
 21
32.4666
 31
0.0
  0
LINE
  8
0
 62
     254
 10
74.3825
 20
32.4666
 30
0.0
 11
74.2654
 21
32.4446
 31
0.0
  0
LINE
  8
0
 62
     254
 10
74.2654
 20
32.4446
 30
0.0
 11
74.1549
 21
32.3494
 31
0.0
  0
LINE
  8
0
 62
     254
 10
74.1549
 20
32.3494
 30
0.0
 11
73.5859
 21
31.9705
 31
0.0
  0
LINE
  8
0
 62
     254
 10
73.5859
 20
31.9705
 30
0.0
 11
73.0472
 21
31.7486
 31
0.0
  0
LINE
  8
0
 62
     254
 10
73.0472
 20
31.7486
 30
0.0
 11
72.952
 21
31.7307
 31
0.0
  0
LINE
  8
0
 62
     254
 10
72.952
 20
31.7307
 30
0.0
 11
73.0345
 21
31.688
 31
0.0
  0
LINE
  8
0
 62
     254
 10
73.0345
 20
31.688
 30
0.0
 11
73.1986
 21
31.3876
 31
0.0
  0
LINE
  8
0
 62
     254
 10
73.1986
 20
31.3876
 30
0.0
 11
73.2607
 21
30.7881
 31
0.0
  0
LINE
  8
0
 62
     254
 10
73.2607
 20
30.7881
 30
0.0
 11
73.2374
 21
29.9944
 31
0.0
  0
LINE
  8
0
 62
     254
 10
73.2374
 20
29.9944
 30
0.0
 11
73.2236
 21
29.3026
 31
0.0
  0
LINE
  8
0
 62
     254
 10
73.2236
 20
29.3026
 30
0.0
 11
73.2331
 21
29.0725
 31
0.0
  0
LINE
  8
0
 62
     254
 10
81.0147
 20
47.3646
 30
0.0
 11
81.0024
 21
47.4169
 31
0.0
  0
LINE
  8
0
 62
     254
 10
81.0024
 20
47.4169
 30
0.0
 11
80.8193
 21
47.9266
 31
0.0
  0
LINE
  8
0
 62
     254
 10
80.8193
 20
47.9266
 30
0.0
 11
80.7942
 21
47.975
 31
0.0
  0
LINE
  8
0
 62
     254
 10
80.7942
 20
47.975
 30
0.0
 11
80.753
 21
47.9531
 31
0.0
  0
LINE
  8
0
 62
     254
 10
80.753
 20
47.9531
 30
0.0
 11
80.3684
 21
47.698
 31
0.0
  0
LINE
  8
0
 62
     254
 10
80.3684
 20
47.698
 30
0.0
 11
80.3328
 21
47.6691
 31
0.0
  0
LINE
  8
0
 62
     254
 10
80.3328
 20
47.6691
 30
0.0
 11
80.3906
 21
47.6458
 31
0.0
  0
LINE
  8
0
 62
     254
 10
80.3906
 20
47.6458
 30
0.0
 11
80.9583
 21
47.3922
 31
0.0
  0
LINE
  8
0
 62
     254
 10
80.9583
 20
47.3922
 30
0.0
 11
81.0147
 21
47.3646
 31
0.0
  0
LINE
  8
0
 62
     254
 10
82.0208
 20
55.3462
 30
0.0
 11
81.9175
 21
55.3268
 31
0.0
  0
LINE
  8
0
 62
     254
 10
81.9175
 20
55.3268
 30
0.0
 11
80.8824
 21
55.0693
 31
0.0
  0
LINE
  8
0
 62
     254
 10
80.8824
 20
55.0693
 30
0.0
 11
80.7791
 21
55.0376
 31
0.0
  0
LINE
  8
0
 62
     254
 10
80.7791
 20
55.0376
 30
0.0
 11
80.8895
 21
54.9973
 31
0.0
  0
LINE
  8
0
 62
     254
 10
80.8895
 20
54.9973
 30
0.0
 11
81.981
 21
54.6488
 31
0.0
  0
LINE
  8
0
 62
     254
 10
81.981
 20
54.6488
 30
0.0
 11
82.0882
 21
54.6185
 31
0.0
  0
LINE
  8
0
 62
     254
 10
82.0882
 20
54.6185
 30
0.0
 11
82.0896
 21
54.6777
 31
0.0
  0
LINE
  8
0
 62
     254
 10
82.0896
 20
54.6777
 30
0.0
 11
82.0332
 21
55.2856
 31
0.0
  0
LINE
  8
0
 62
     254
 10
82.0332
 20
55.2856
 30
0.0
 11
82.0208
 21
55.3462
 31
0.0
  0
ENDSEC
  0
EOF
